<?xml version="1.0" standalone="no"?>
<!DOCTYPE svg PUBLIC "-//W3C//DTD SVG 1.1//EN" "http://www.w3.org/Graphics/SVG/1.1/DTD/svg11.dtd" >
<svg xmlns="http://www.w3.org/2000/svg">
<metadata></metadata>
<defs>
<font id="serifaroman" horiz-adv-x="556" >
<font-face units-per-em="1000" ascent="800" descent="-200" />
<missing-glyph horiz-adv-x="278" />
<glyph unicode="fi" horiz-adv-x="611" d="M34 64h89v328h-89v64h89v58q0 82 51.5 116t148.5 34q37 0 69 -5.5t55.5 -20.5t37.5 -41.5t16 -68.5h-93q0 39 -26 55.5t-64 16.5q-51 0 -82 -22.5t-31 -65.5v-56h308v-392h79v-64h-240v64h79v328h-226v-328h79v-64h-250v64z" />
<glyph unicode="fl" horiz-adv-x="611" d="M34 64h89v328h-89v64h89v57q0 37 15.5 65t43 47t64.5 29t80 10q50 0 95.5 -6t91.5 -13v-581h79v-64h-240v64h79v524q-23 6 -48.5 9t-55.5 3t-53 -7.5t-38 -20t-23 -28.5t-8 -32v-56h114v-64h-114v-328h79v-64h-250v64z" />
<glyph unicode="&#xd;" horiz-adv-x="278" />
<glyph unicode=" "  horiz-adv-x="278" />
<glyph unicode="&#x09;" horiz-adv-x="278" />
<glyph unicode="&#xa0;" horiz-adv-x="278" />
<glyph unicode="!" horiz-adv-x="389" d="M148 94h94v-94h-94v94zM228 156h-66l-17 498h100z" />
<glyph unicode="&#x22;" d="M322 654h76v-230h-76v230zM158 654h76v-230h-76v230z" />
<glyph unicode="#" d="M210 262h124l20 132h-124zM135 204h-103v58h111l20 132h-102v58h111l30 203h67l-30 -203h124l30 203h67l-30 -203h94v-58h-103l-20 -132h93v-58h-101l-31 -204h-67l31 204h-124l-31 -204h-68z" />
<glyph unicode="$" d="M242 303q-44 13 -80.5 27.5t-62 35.5t-39.5 50.5t-14 70.5q0 42 16 75t43 55.5t62.5 34.5t74.5 12v86h58v-86q37 -8 69 -26t49 -47h3v63h76v-216h-77q3 70 -28 111.5t-92 50.5v-226q2 -1 5.5 -2t6.5 -2q47 -15 84.5 -30t64 -36t41 -51.5t14.5 -76.5q0 -44 -16.5 -78.5 t-45.5 -58.5t-68.5 -36.5t-85.5 -12.5v-93h-58v98q-76 17 -115 81h-3v-76h-76v221h78q0 -66 30.5 -108.5t85.5 -53.5v244zM242 600q-20 -3 -38.5 -11t-32.5 -22t-22.5 -34t-8.5 -46q0 -32 25.5 -53t76.5 -40v206zM300 54q22 2 44 10t39.5 23t28 37t10.5 52q0 44 -31.5 67 t-90.5 41v-230z" />
<glyph unicode="%" horiz-adv-x="889" d="M115 491q0 34 8.5 65.5t26.5 55.5t46.5 38t68.5 14q39 0 65.5 -14t43 -38t24 -55.5t7.5 -65.5q0 -36 -7.5 -68t-24 -55.5t-43 -37t-65.5 -13.5q-41 0 -69.5 13.5t-46.5 37t-26 55.5t-8 68zM605 672h63l-380 -690h-63zM554 164q0 -19 3 -40.5t12 -39.5t24.5 -30t40.5 -12 q23 0 37 12t21.5 30t9.5 39.5t2 40.5q0 21 -2 43t-9.5 39t-21.5 28t-37 11q-25 0 -40.5 -11t-24.5 -28t-12 -39t-3 -43zM484 164q0 34 8.5 65.5t26.5 55.5t46.5 38t68.5 14q39 0 65.5 -14t43 -38t24 -55.5t7.5 -65.5q0 -36 -7.5 -68t-24 -55.5t-43 -37t-65.5 -13.5 q-41 0 -69.5 13.5t-46.5 37t-26 55.5t-8 68zM185 491q0 -19 3 -40.5t12 -39.5t24.5 -30t40.5 -12q23 0 37 12t21.5 30t9.5 39.5t2 40.5q0 21 -2 43t-9.5 39t-21.5 28t-37 11q-25 0 -40.5 -11t-24.5 -28t-12 -39t-3 -43z" />
<glyph unicode="&#x26;" horiz-adv-x="778" d="M207 525q0 -17 8 -33.5t19.5 -32t25 -29.5t24.5 -26q16 11 33.5 23t32 26t24 31.5t9.5 40.5q0 42 -25 58.5t-64 16.5q-35 0 -61 -18t-26 -57zM258 314q-44 -20 -75.5 -53t-31.5 -83q0 -29 10.5 -52t28.5 -39t42.5 -24.5t52.5 -8.5q45 0 87.5 17t74.5 49zM709 321h-90 q0 -51 -17 -99.5t-46 -90.5l66 -67h100v-64h-156l-68 69q-41 -45 -99 -62t-117 -17q-46 0 -87 11t-71.5 34.5t-48.5 59t-18 83.5q0 36 11.5 65.5t32 53.5t47.5 42t58 31l-34 32t-30 34.5t-21 40t-8 48.5q0 36 15.5 62.5t41 43.5t58 25t67.5 8q36 0 68 -7t56 -23.5t38 -43 t14 -65.5q0 -32 -11.5 -58t-30 -47t-43.5 -37t-52 -28l166 -170q20 30 32 65t11 71h-81v64h247v-64z" />
<glyph unicode="'" horiz-adv-x="278" d="M101 654h76v-230h-76v230z" />
<glyph unicode="(" horiz-adv-x="333" d="M200 -120q-33 46 -61.5 99t-48.5 108t-31.5 109t-11.5 102q0 121 43.5 229t114.5 195h74q-68 -91 -103 -202t-35 -222t36 -220.5t98 -197.5h-75z" />
<glyph unicode=")" horiz-adv-x="333" d="M133 722q33 -46 61.5 -99t48.5 -108t31.5 -109t11.5 -102q0 -121 -43.5 -229t-114.5 -195h-74q68 91 103 202t35 222t-36 220.5t-98 197.5h75z" />
<glyph unicode="*" d="M300 526l116 55l24 -77l-127 -21l88 -94l-70 -47l-54 115l-62 -112l-66 48l92 90l-125 25l24 77l116 -59l-19 128h80z" />
<glyph unicode="+" horiz-adv-x="600" d="M262 506h76v-215h215v-76h-215v-215h-76v215h-215v76h215v215z" />
<glyph unicode="," horiz-adv-x="278" d="M89 100h100v-100l-42 -130h-58l43 130h-43v100z" />
<glyph unicode="-" horiz-adv-x="333" d="M48 307h237v-76h-237v76z" />
<glyph unicode="." horiz-adv-x="278" d="M89 100h100v-100h-100v100z" />
<glyph unicode="/" horiz-adv-x="389" d="M293 664h76l-273 -674h-76z" />
<glyph unicode="0" d="M141 327q0 -46 4 -94.5t18 -88t41.5 -65t75.5 -25.5q47 0 74 25.5t40.5 65t17 88t3.5 94.5q0 26 -1 57t-6 61t-13.5 58t-23.5 49.5t-37.5 34.5t-53.5 13q-48 0 -75.5 -28t-41.5 -69t-18 -88.5t-4 -87.5zM47 327q0 55 9.5 115t35 109t71 81t117.5 32t116.5 -32t69.5 -81 t34 -109t9 -115q0 -62 -9 -122.5t-34 -108t-69.5 -77t-116.5 -29.5t-117.5 29.5t-71 77t-35 108t-9.5 122.5z" />
<glyph unicode="1" d="M159 64h98v497q-34 -36 -74.5 -65.5t-81.5 -59.5v92q27 19 46 33.5t35.5 28.5t33.5 29t39 35h90v-590h99v-64h-285v64z" />
<glyph unicode="2" d="M49 105q21 20 54.5 47.5t71 59.5t75.5 67t68.5 70.5t49.5 71t19 67.5q0 53 -30.5 82.5t-79.5 29.5q-59 0 -93.5 -36.5t-34.5 -99.5h-94q5 99 65 149.5t157 50.5q40 0 77 -11t65 -32.5t45 -54.5t17 -78q0 -43 -20.5 -85.5t-52.5 -83t-72.5 -78t-80 -70.5t-74.5 -60 t-57 -47h290v108h76v-172h-441v105z" />
<glyph unicode="3" d="M241 365q29 0 56 5.5t48 19t34 35.5t13 56q0 54 -30 86.5t-85 32.5q-54 0 -87.5 -34t-37.5 -89h-94q1 44 18.5 78.5t47 58.5t69 37t84.5 13q40 0 77.5 -8.5t67 -29t47 -53.5t17.5 -81q0 -70 -40.5 -112t-109.5 -49v-2q33 0 61.5 -11.5t49.5 -31.5t33.5 -49t12.5 -65 q0 -47 -16.5 -81.5t-45 -57t-68.5 -33t-86 -10.5q-49 0 -90 9.5t-71 32t-46.5 59t-16.5 90.5h94q2 -62 36 -94.5t94 -32.5q24 0 46 8.5t39 24t27 37.5t10 48q0 37 -12.5 61.5t-34 39.5t-50 21.5t-61.5 6.5v64z" />
<glyph unicode="4" d="M327 564h-2l-236 -331h238v331zM228 64h99v105h-301v96l280 389h109v-421h98v-64h-98v-105h98v-64h-285v64z" />
<glyph unicode="5" d="M477 590h-306l-11 -246h2q7 18 21 32t32.5 23t39.5 14t41 5q101 0 155 -52.5t54 -155.5q0 -106 -59 -163t-167 -57q-45 0 -83.5 11t-67 33.5t-44.5 57.5t-16 83h94q0 -25 8 -47t23 -38.5t36.5 -26t49.5 -9.5q68 0 103 40.5t35 115.5q0 64 -32 104t-101 40 q-41 0 -76.5 -22.5t-47.5 -65.5h-82l11 388h388v-64z" />
<glyph unicode="6" d="M285 54q32 0 55.5 12.5t38.5 33.5t22.5 48t7.5 56q0 32 -7.5 59.5t-22.5 47.5t-38.5 31.5t-55.5 11.5q-30 0 -53.5 -13.5t-40.5 -35t-26 -48t-9 -53.5q0 -30 8.5 -57t24.5 -48t40 -33t56 -12zM285 -10q-71 0 -116.5 28t-71 73.5t-35 103t-9.5 117.5q0 67 11 130 t40.5 112.5t81 79.5t131.5 30t127.5 -42t47.5 -123h-88q0 50 -23.5 75.5t-75.5 25.5q-48 0 -80.5 -26t-51.5 -68q-9 -21 -15 -48t-9.5 -55t-5.5 -55t-2 -46h2q14 53 57.5 84.5t101.5 31.5q46 0 83 -14.5t63.5 -41t40.5 -64t14 -82.5q0 -51 -15 -92.5t-43 -71.5t-68.5 -46 t-91.5 -16z" />
<glyph unicode="7" d="M512 578q-72 -141 -135.5 -285.5t-120.5 -292.5h-94q30 76 64.5 154.5t69 155t69 147.5t64.5 133h-297v-126h-76v190h456v-76z" />
<glyph unicode="8" d="M146 180q0 -63 37 -94.5t97 -31.5q62 0 96 34.5t34 94.5q0 57 -34 88.5t-96 31.5q-28 0 -52.5 -8t-42.5 -23.5t-28.5 -38.5t-10.5 -53zM154 484q0 -27 10 -49t27 -37t40 -23t49 -8q52 0 88 31t36 88q0 58 -36.5 86t-87.5 28q-57 0 -91.5 -31t-34.5 -85zM66 492 q0 44 19 76.5t49 53.5t68.5 31.5t77.5 10.5q40 0 78 -9.5t68 -29.5t48 -51.5t18 -75.5q0 -70 -39 -109t-105 -50v-2q72 -11 111 -48t39 -113q0 -48 -17.5 -83.5t-47 -58t-69 -33.5t-84.5 -11q-44 0 -84.5 9.5t-71 31.5t-48.5 56.5t-18 84.5q0 72 40.5 115t110.5 51v1 q-63 10 -103 48t-40 105z" />
<glyph unicode="9" d="M260 300q30 0 54.5 13t42 34t27 48t9.5 55q0 26 -7.5 53t-22 48.5t-37 35t-52.5 13.5q-37 0 -63.5 -13t-44 -34t-25.5 -48t-8 -55q0 -32 8 -59.5t23.5 -47.5t39.5 -31.5t56 -11.5zM271 664q71 0 116.5 -28t71 -73.5t35 -103t9.5 -117.5q0 -67 -11 -130t-40.5 -112.5 t-81 -79.5t-131.5 -30t-127.5 42t-47.5 123h88q0 -50 23.5 -75.5t75.5 -25.5q48 0 80.5 26t51.5 68q9 21 15 48t9.5 55t5.5 54.5t2 46.5h-2q-14 -53 -57.5 -84.5t-101.5 -31.5q-46 0 -83 14.5t-63.5 41t-40.5 64t-14 82.5q0 51 15 92.5t43 71.5t68.5 46t91.5 16z" />
<glyph unicode=":" horiz-adv-x="278" d="M189 356h-100v100h100v-100zM89 100h100v-100h-100v100z" />
<glyph unicode=";" horiz-adv-x="278" d="M189 356h-100v100h100v-100zM89 100h100v-100l-42 -130h-58l43 130h-43v100z" />
<glyph unicode="&#x3c;" horiz-adv-x="600" d="M554 -8l-508 227v68l508 227v-75l-415 -186l415 -186v-75z" />
<glyph unicode="=" horiz-adv-x="600" d="M553 113h-506v76h506v-76zM553 317h-506v76h506v-76z" />
<glyph unicode="&#x3e;" horiz-adv-x="600" d="M461 253l-415 186v75l508 -227v-68l-508 -227v75z" />
<glyph unicode="?" horiz-adv-x="500" d="M174 94h94v-94h-94v94zM37 484q1 44 19 78t47.5 56.5t68 34t81.5 11.5q39 0 75 -9.5t63.5 -29t44 -49.5t16.5 -72t-10.5 -71.5t-29 -53.5t-43.5 -45.5t-54 -47.5q-18 -16 -28 -30t-15 -29t-6 -32t-1 -39h-89q0 45 7.5 74.5t22 52t36.5 43t51 46.5t47 52t18 67 q0 50 -29.5 76.5t-82.5 26.5q-54 0 -83.5 -30t-31.5 -80h-94z" />
<glyph unicode="@" horiz-adv-x="800" d="M539 503h61l-72 -251q-4 -12 -6.5 -23.5t-2.5 -21.5q0 -22 19 -22q24 0 47 16.5t41 44t29 62t11 70.5q0 53 -20 95t-54 71.5t-80 45.5t-97 16q-60 0 -110.5 -22.5t-87 -61t-57 -89.5t-20.5 -109q0 -59 21.5 -109t59.5 -87.5t89.5 -58.5t111.5 -21q63 0 121 26.5t97 71.5 h60q-45 -74 -119.5 -115t-160.5 -41q-72 0 -135 26t-109.5 72t-73 107.5t-26.5 133.5q0 70 27 131t73 106.5t108 71.5t131 26q63 0 119 -20.5t98 -57.5t67 -88.5t25 -112.5t-22.5 -109t-55 -81t-70 -50.5t-67.5 -17.5q-23 0 -39 13t-18 42h-2q-19 -21 -47.5 -38t-59.5 -17 q-29 0 -53.5 11.5t-42 31t-27.5 45.5t-10 55q0 45 15 89.5t42 80t65.5 57t85.5 21.5q32 0 59 -16t44 -54zM359 191q29 0 53.5 18t42.5 45t28 58t10 58q0 17 -6 32t-16 26.5t-23 18.5t-28 7q-29 0 -53.5 -17t-42.5 -43t-28 -57.5t-10 -59.5q0 -38 21 -62t52 -24z" />
<glyph unicode="A" horiz-adv-x="778" d="M15 64h72l251 590h105l248 -590h72v-64h-269v64h100l-63 152h-293l-65 -155h102v-61h-260v64zM386 569l-121 -289h240z" />
<glyph unicode="B" horiz-adv-x="667" d="M29 64h101v526h-101v64h296q40 0 85 -3.5t82.5 -20t62 -51.5t24.5 -99q0 -26 -9 -50t-25.5 -43t-41 -32.5t-54.5 -17.5v-2q70 1 110 -38.5t40 -112.5q0 -60 -22.5 -96.5t-60.5 -56t-87.5 -25.5t-103.5 -6h-296v64zM218 64h107q35 0 67.5 4t57.5 16.5t40 36.5t15 63 q0 37 -14.5 59.5t-39 34.5t-57.5 16t-69 4h-107v-234zM218 362h105q31 0 60.5 4t52 16.5t36 35.5t13.5 62q0 40 -15.5 62.5t-39.5 33t-52 12.5t-53 2h-107v-228z" />
<glyph unicode="C" horiz-adv-x="722" d="M662 420h-76q-8 90 -59 135t-138 45q-113 0 -175.5 -67t-62.5 -206q0 -59 15 -109t45 -86.5t74.5 -57t103.5 -20.5q36 0 69 11t58 32.5t40 53t15 71.5h94q0 -62 -22.5 -106t-61 -72t-88.5 -41t-104 -13q-82 0 -144 23t-104 66.5t-63 106t-21 141.5t21 141.5t63 106 t104 66.5t144 23q22 0 50 -5t55.5 -16.5t51.5 -28.5t38 -41h2v81h76v-234z" />
<glyph unicode="D" horiz-adv-x="722" d="M218 64h53q69 0 126.5 11.5t98.5 40.5t63.5 80t22.5 131q0 79 -22.5 130.5t-63.5 80.5t-98.5 40.5t-126.5 11.5h-53v-526zM30 64h100v526h-100v64h241q89 0 163.5 -12.5t128 -48.5t83.5 -99.5t30 -165.5t-30 -166t-83.5 -100t-128 -49t-163.5 -13h-241v64z" />
<glyph unicode="E" horiz-adv-x="667" d="M40 64h100v526h-100v64h570v-198h-76v134h-306v-228h146v94h76v-252h-76v94h-146v-234h306v140h76v-204h-570v64z" />
<glyph unicode="F" horiz-adv-x="611" d="M30 64h100v526h-101v64h553v-207h-76v143h-288v-228h143v85h76v-245h-76v96h-143v-234h119v-64h-307v64z" />
<glyph unicode="G" horiz-adv-x="778" d="M653 421h-75q-6 86 -54 132.5t-135 46.5q-113 0 -175.5 -67t-62.5 -206q0 -59 15 -109t45 -86.5t74.5 -57t103.5 -20.5q45 0 81 15.5t60.5 43t37.5 64.5t13 81h-111v64h281v-64h-89v-258h-82v93h-2q-14 -23 -35.5 -41.5t-46.5 -32.5t-52.5 -21.5t-54.5 -7.5 q-82 0 -144 23t-104 66.5t-63 106t-21 141.5t21 141.5t63 106t104 66.5t144 23q25 0 52.5 -6t53 -17.5t47 -28.5t33.5 -40h2v82h76v-233z" />
<glyph unicode="H" horiz-adv-x="778" d="M748 64v-64h-288v64h100v234h-342v-234h100v-64h-288v64h100v526h-100v64h288v-64h-100v-228h342v228h-100v64h288v-64h-100v-526h100z" />
<glyph unicode="I" horiz-adv-x="333" d="M23 64h100v526h-100v64h288v-64h-100v-526h100v-64h-288v64z" />
<glyph unicode="J" horiz-adv-x="500" d="M485 590h-80v-400q0 -37 -8.5 -73t-30.5 -64t-59.5 -45.5t-94.5 -17.5q-53 0 -90 14.5t-60 42t-33 67t-10 89.5h94q0 -27 4.5 -53.5t16.5 -48t32 -34.5t52 -13q36 0 56 18t29.5 43t11.5 51.5t2 43.5v380h-97v64h265v-64z" />
<glyph unicode="K" horiz-adv-x="667" d="M30 64h100v526h-100v64h288v-64h-100v-239l254 239h-83v64h249v-64h-54l-260 -242l266 -284h70v-64h-265v64h82l-259 281v-281h100v-64h-288v64z" />
<glyph unicode="L" horiz-adv-x="611" d="M30 64h100v526h-100v64h306v-64h-118v-526h275v157h76v-221h-539v64z" />
<glyph unicode="M" horiz-adv-x="944" d="M28 64h100v526h-100v64h254l189 -548h2l198 548h245v-64h-100v-526h100v-64h-278v64h90v526h-2l-214 -590h-80l-214 590h-2v-526h90v-64h-278v64z" />
<glyph unicode="N" horiz-adv-x="778" d="M752 590h-104v-590h-118l-316 572h-2v-508h100v-64h-286v64h104v526h-104v64h235l303 -552h2v488h-100v64h286v-64z" />
<glyph unicode="O" horiz-adv-x="778" d="M721 327q0 -79 -21 -141.5t-63 -106t-104 -66.5t-144 -23t-144 23t-104 66.5t-63 106t-21 141.5t21 141.5t63 106t104 66.5t144 23t144 -23t104 -66.5t63 -106t21 -141.5zM627 327q0 139 -62.5 206t-175.5 67t-175.5 -67t-62.5 -206q0 -59 16 -109t46.5 -86.5t75 -57 t100.5 -20.5t100.5 20.5t75 57t46.5 86.5t16 109z" />
<glyph unicode="P" horiz-adv-x="611" d="M30 64h100v526h-100v64h285q52 0 99.5 -7t84 -28t58 -59t21.5 -101t-21.5 -101.5t-58 -59.5t-84 -28t-99.5 -7h-97v-199h120v-64h-308v64zM218 327h97q32 0 62.5 3.5t54 17t38 39.5t14.5 72t-14.5 72.5t-38 39.5t-54 16t-62.5 3h-97v-263z" />
<glyph unicode="Q" horiz-adv-x="778" d="M389 -10q-82 0 -144 23t-104 66.5t-63 106t-21 141.5t21 141.5t63 106t104 66.5t144 23t144 -23t104 -66.5t63 -106t21 -141.5q0 -37 -6 -75t-20.5 -73t-37 -64.5t-55.5 -48.5v-2h160v-64h-233q-45 -4 -78.5 -7t-61.5 -3zM389 54q56 0 100.5 20.5t75 57t46.5 86.5t16 109 q0 139 -62.5 206t-175.5 67t-175.5 -67t-62.5 -206q0 -59 16 -109t46.5 -86.5t75 -57t100.5 -20.5z" />
<glyph unicode="R" horiz-adv-x="667" d="M30 64h100v526h-100v64h278q50 0 98.5 -4t87 -21t62.5 -52.5t24 -98.5q0 -70 -38.5 -114t-109.5 -50v-2q35 -4 54 -18t30 -34q11 -21 18 -46.5t18 -53.5l28 -96h76v-64h-146l-44 145q-13 44 -24 71.5t-28 42.5t-44.5 20.5t-73.5 5.5h-78v-221h100v-64h-288v64zM218 349 h73q37 0 72 2t62.5 14t44 38.5t16.5 74.5q0 42 -18 64.5t-46.5 33t-63 12.5t-67.5 2h-73v-241z" />
<glyph unicode="S" d="M48 0v221h78q0 -77 42 -122t117 -45q24 0 48 7t44 22t32.5 38t12.5 55q0 25 -10.5 43t-31 31.5t-50.5 24t-68 21.5q-48 13 -88 28.5t-68.5 37t-44 51.5t-15.5 74q0 45 18 78.5t49 55t70.5 32.5t83.5 11q22 0 44 -4.5t42.5 -14t37 -23t27.5 -31.5h3v63h76v-216h-77 q3 79 -36.5 120.5t-116.5 41.5q-24 0 -46.5 -6.5t-40.5 -20t-29 -35t-11 -51.5q0 -41 44.5 -66.5t127.5 -50.5q47 -15 84.5 -30t64 -36t41 -51.5t14.5 -76.5q0 -45 -17 -79.5t-46.5 -58t-69.5 -36t-87 -12.5q-55 0 -98.5 20.5t-70.5 65.5h-3v-76h-76z" />
<glyph unicode="T" horiz-adv-x="667" d="M181 64h108v526h-172v-150h-76v214h584v-214h-76v150h-172v-526h108v-64h-304v64z" />
<glyph unicode="U" horiz-adv-x="722" d="M706 590h-85v-340q0 -260 -260 -260q-79 0 -129 22t-78.5 58.5t-39 83.5t-10.5 96v340h-89v64h282v-64h-105v-340q0 -34 6.5 -68.5t25.5 -63t52.5 -46.5t86.5 -18q46 0 78.5 14t52.5 40t29.5 62t9.5 80v340h-98v64h271v-64z" />
<glyph unicode="V" horiz-adv-x="722" d="M707 590h-57l-239 -590h-100l-239 590h-56v64h254v-64h-101l196 -501l199 501h-101v64h244v-64z" />
<glyph unicode="W" horiz-adv-x="1000" d="M984 590h-59l-145 -590h-118l-158 580h-2l-162 -580h-118l-144 590h-59v64h248v-64h-103l122 -502h2l158 566h125l153 -566h2l123 502h-103v64h238v-64z" />
<glyph unicode="X" horiz-adv-x="722" d="M17 64h68l221 281l-193 245h-72v64h273v-64h-99l148 -188l148 188h-93v64h263v-64h-72l-193 -245l223 -281h65v-64h-280v64h108l-177 223l-176 -223h110v-64h-272v64z" />
<glyph unicode="Y" horiz-adv-x="667" d="M175 64h111v207l-216 319h-55v64h257v-64h-103l168 -247l173 247h-103v64h246v-64h-55l-224 -319v-207h111v-64h-310v64z" />
<glyph unicode="Z" horiz-adv-x="611" d="M39 0v86l429 504h-346v-137h-76v201h515v-82l-432 -508h366v140h76v-204h-532z" />
<glyph unicode="[" horiz-adv-x="333" d="M244 664h-79v-726h79v-58h-155v842h155v-58z" />
<glyph unicode="\" horiz-adv-x="389" d="M369 -10h-76l-273 674h76z" />
<glyph unicode="]" horiz-adv-x="333" d="M89 -62h79v726h-79v58h155v-842h-155v58z" />
<glyph unicode="^" horiz-adv-x="600" d="M265 654h70l211 -424h-77l-169 344l-169 -344h-77z" />
<glyph unicode="_" horiz-adv-x="500" d="M0 -75h500v-50h-500v50z" />
<glyph unicode="`" horiz-adv-x="278" d="M117 668l86 -144h-64l-132 144h110z" />
<glyph unicode="a" d="M129 131q0 -23 9 -37.5t23 -23.5t32.5 -12.5t36.5 -3.5q38 0 65.5 13t45 34.5t26 50.5t8.5 62h-69q-22 0 -52.5 -1.5t-58 -9t-47 -24.5t-19.5 -48zM375 94h-2q-15 -54 -56.5 -79t-96.5 -25q-34 0 -66.5 7.5t-57.5 24.5t-40 44t-15 65q0 52 23 81.5t59 44t79.5 18 t84.5 3.5h88v27q0 55 -28 76t-82 21q-23 0 -44 -3t-36.5 -11.5t-26 -24t-12.5 -39.5h-88q2 39 19 66.5t44 44t61.5 24t71.5 7.5q40 0 77 -5.5t65 -21t44.5 -43t16.5 -71.5v-261h80v-64h-162v94z" />
<glyph unicode="b" horiz-adv-x="611" d="M185 228q0 -39 9.5 -71t29.5 -55t50 -35.5t71 -12.5q33 0 58.5 12.5t43 35.5t26.5 55t9 71q0 34 -9 65.5t-26 55.5t-43 38.5t-59 14.5q-42 0 -72 -14.5t-49.5 -38.5t-29 -55.5t-9.5 -65.5zM23 64h80v526h-80v64h162v-281h2q10 22 27 39.5t38.5 29.5t45.5 18t47 6 q53 0 94.5 -16.5t70.5 -47.5t44.5 -75t15.5 -99q0 -54 -15 -97.5t-43.5 -75t-70.5 -48.5t-96 -17q-24 0 -48.5 6.5t-46 19.5t-38.5 32.5t-25 44.5h-2v-93h-162v64z" />
<glyph unicode="c" horiz-adv-x="500" d="M468 284h-65q-5 54 -39.5 86t-89.5 32q-36 0 -64 -14t-47 -38t-28.5 -55.5t-9.5 -66.5t9.5 -66.5t28.5 -55.5t47 -38t64 -14q48 0 82.5 24t41.5 75h76q-2 -42 -19 -72.5t-44.5 -50.5t-63 -30t-73.5 -10q-53 0 -97 16t-75 47t-48 75t-17 100t17 100t48 75t75 47t97 16 q38 0 73 -16t55 -51h2v57h64v-172z" />
<glyph unicode="d" horiz-adv-x="611" d="M426 228q0 36 -9 68t-27 55.5t-45.5 37t-64.5 13.5q-39 0 -67.5 -13.5t-47 -37t-27.5 -55.5t-9 -68q0 -34 9 -65.5t27.5 -55.5t47 -38.5t67.5 -14.5q37 0 64.5 14.5t45.5 38.5t27 55.5t9 65.5zM426 87h-2q-9 -22 -25.5 -40t-38 -30.5t-46.5 -19.5t-52 -7q-57 0 -98.5 18 t-69 50t-40.5 75.5t-13 94.5q0 52 15.5 96t44 75.5t69.5 49t92 17.5q24 0 49 -6t47 -18t39.5 -29.5t26.5 -40.5h2v218h-81v64h163v-590h80v-64h-162v87z" />
<glyph unicode="e" d="M429 269q-4 63 -40.5 98t-103.5 35q-30 0 -57 -9t-47.5 -26t-32.5 -42t-12 -56h293zM136 205q0 -79 42.5 -115t123.5 -36q19 0 41 5.5t41 16.5t32 27.5t15 38.5h76q-1 -42 -21.5 -71t-51.5 -47t-69 -26t-74 -8q-56 0 -100.5 16t-76.5 47t-49 75t-17 100t17 100t49 75 t76.5 47t100.5 16q61 0 102.5 -20.5t67.5 -55.5t38 -82.5t12 -102.5h-375z" />
<glyph unicode="f" horiz-adv-x="333" d="M34 64h79v328h-89v64h89v49q0 82 37 120.5t130 38.5q19 0 37.5 -3t38.5 -5v-64q-20 2 -39 5t-39 3q-27 0 -43.5 -8t-25.5 -21t-11.5 -30.5t-2.5 -35.5v-49h109v-64h-109v-328h99v-64h-260v64z" />
<glyph unicode="g" horiz-adv-x="611" d="M125 238q0 -36 9.5 -66.5t28.5 -53t47.5 -35.5t66.5 -13t66 13.5t46.5 36t27.5 53t9 65.5q0 33 -9 62.5t-26.5 52t-44 36t-61.5 13.5q-81 0 -120.5 -43t-39.5 -121zM588 392h-80v-243q0 -26 0.5 -56.5t-1 -61t-6.5 -59.5t-17 -53q-14 -27 -36.5 -45t-50 -29t-59.5 -15.5 t-64 -4.5q-38 0 -76.5 4.5t-69.5 19t-50.5 41t-17.5 70.5h94q0 -23 11 -37t28 -21.5t38 -10t42 -2.5q86 0 119.5 38.5t33.5 122.5v51h-2q-10 -25 -27.5 -43t-39.5 -29.5t-47.5 -17t-50.5 -5.5q-52 0 -93 16.5t-69.5 47t-44 73.5t-15.5 95q0 50 14.5 92t42.5 72t68.5 47 t93.5 17q54 0 100.5 -22t69.5 -72l-2 2v-2h2v84h162v-64z" />
<glyph unicode="h" horiz-adv-x="611" d="M39 64h79v526h-79v64h161v-281h2q17 44 59.5 68.5t93.5 24.5q86 0 124 -42t38 -124v-236h79v-64h-240v64h79v219q0 55 -22.5 87t-82.5 32q-66 0 -98 -41t-32 -102v-195h79v-64h-240v64z" />
<glyph unicode="i" horiz-adv-x="278" d="M189 560h-94v94h94v-94zM28 64h79v328h-79v64h161v-392h79v-64h-240v64z" />
<glyph unicode="j" horiz-adv-x="278" d="M196 560h-94v94h94v-94zM196 -15q0 -44 -5.5 -74.5t-19.5 -49.5t-38 -27.5t-61 -8.5q-20 0 -37 3l-34 6v63q30 -8 61 -8q13 0 22.5 3.5t16 13.5t10 29t3.5 50v407h-84v64h166v-471z" />
<glyph unicode="k" d="M27 64h79v526h-79v64h161v-413l180 149v2h-72v64h231v-64h-66l-124 -103l145 -225h56v-64h-210v64h60l-112 175l-88 -73v-102h72v-64h-233v64z" />
<glyph unicode="l" horiz-adv-x="278" d="M28 64h79v526h-79v64h161v-590h79v-64h-240v64z" />
<glyph unicode="m" horiz-adv-x="889" d="M29 64h79v328h-79v64h161v-81h2q14 44 53 67.5t91 23.5q54 0 90 -21.5t57 -69.5q20 44 58.5 67.5t86.5 23.5q79 0 121.5 -40t42.5 -119v-243h79v-64h-240v64h79v192q0 26 -2 52t-11.5 47t-29 34t-55.5 13q-33 0 -56.5 -12t-37.5 -32t-20.5 -46.5t-6.5 -55.5v-192h79v-64 h-240v64h79v192q1 29 0 55.5t-10.5 46.5t-29.5 32t-56 12q-33 0 -56.5 -13t-38.5 -34t-21.5 -48t-6.5 -56v-187h79v-64h-240v64z" />
<glyph unicode="n" horiz-adv-x="611" d="M39 64h79v328h-79v64h161v-83h2q17 44 59.5 68.5t93.5 24.5q86 0 124 -42t38 -124v-236h79v-64h-240v64h79v219q0 55 -22.5 87t-82.5 32q-66 0 -98 -41t-32 -102v-195h79v-64h-240v64z" />
<glyph unicode="o" d="M37 228q0 56 17 100t49 75t76.5 47t100.5 16q55 0 99.5 -16t75.5 -47t47.5 -75t16.5 -100t-16.5 -100t-47.5 -75t-75.5 -47t-99.5 -16q-56 0 -100.5 16t-76.5 47t-49 75t-17 100zM125 228q0 -35 9.5 -66.5t29 -55.5t48.5 -38t68 -14t67 14t47 38t28 55.5t9 66.5t-9 66.5 t-28 55.5t-47 38t-67 14t-68 -14t-48.5 -38t-29 -55.5t-9.5 -66.5z" />
<glyph unicode="p" horiz-adv-x="611" d="M185 228q0 -39 9.5 -71t29.5 -55t50 -35.5t71 -12.5q33 0 58.5 12.5t43 35.5t26.5 55t9 71q0 34 -9 65.5t-26 55.5t-43 38.5t-59 14.5q-42 0 -72 -14.5t-49.5 -38.5t-29 -55.5t-9.5 -65.5zM23 -101h80v493h-80v64h162v-91h2q17 45 59 73t99 28q53 0 94.5 -16.5 t70.5 -47.5t44.5 -75t15.5 -99q0 -54 -15 -97.5t-43.5 -75t-70.5 -48.5t-96 -17t-94.5 24.5t-63.5 73.5h-2v-189h80v-64h-242v64z" />
<glyph unicode="q" horiz-adv-x="611" d="M588 392h-80v-493h80v-64h-241v64h79v178h-2q-25 -44 -70.5 -65.5t-99.5 -21.5q-49 0 -88.5 18.5t-67 50t-42.5 73.5t-15 89q0 53 13.5 98t40.5 77.5t68 51t97 18.5q26 0 51.5 -7t47.5 -20t39 -32t26 -42h2v91h162v-64zM129 221q0 -35 9.5 -65.5t28.5 -53t47 -35.5 t65 -13t64.5 14t46 38t27.5 55t9 65q0 33 -9 65t-27 56.5t-46 39.5t-65 15q-42 0 -70.5 -14.5t-46 -39t-25.5 -57.5t-8 -70z" />
<glyph unicode="r" horiz-adv-x="389" d="M35 64h79v328h-79v64h161v-93h2q11 52 49.5 77.5t90.5 25.5q11 0 20 -0.5t17 -1.5v-67q-10 2 -22.5 3.5t-26.5 1.5q-43 0 -69 -20.5t-39.5 -52t-17.5 -69t-4 -72.5v-124h94v-64h-255v64z" />
<glyph unicode="s" horiz-adv-x="500" d="M54 0v159h64q1 -33 13.5 -53.5t33.5 -32t47.5 -15.5t54.5 -4q15 0 31.5 4t30.5 13t23 22.5t9 31.5q0 23 -11.5 35.5t-28.5 19t-37.5 8.5t-39.5 5q-32 5 -65 11t-60 19.5t-44 36.5t-17 63q0 36 16 63t41 45t56.5 26.5t63.5 8.5q45 0 82.5 -15t56.5 -50h2v55h64v-150h-64 q0 30 -10 48.5t-27 29t-39.5 14.5t-48.5 4q-18 0 -37.5 -3t-36 -11t-27 -21.5t-10.5 -35.5q0 -20 13 -30.5t33.5 -16.5t44.5 -9.5t46 -7.5q30 -5 61 -11.5t55.5 -20t40 -36.5t15.5 -62q0 -40 -16.5 -68t-43.5 -45.5t-61 -25.5t-69 -8q-20 0 -41.5 4t-40.5 13t-34 22.5 t-23 33.5h-2v-63h-64z" />
<glyph unicode="t" horiz-adv-x="389" d="M338 392h-149v-266q0 -29 9 -50.5t41 -21.5q18 0 28.5 8t16 20.5t6.5 28t1 29.5h70q0 -71 -30 -110.5t-104 -39.5q-44 0 -68 14t-35.5 37.5t-14 54.5t-2.5 66v230h-89v64h89v100l82 28v-128h149v-64z" />
<glyph unicode="u" horiz-adv-x="611" d="M499 64h79v-64h-161v79h-2q-14 -42 -56.5 -65.5t-92.5 -23.5q-89 0 -127.5 42.5t-38.5 123.5v236h-79v64h161v-283q0 -27 5 -49t17 -37.5t32 -24t51 -8.5q67 0 98.5 40t31.5 103v195h-79v64h161v-392z" />
<glyph unicode="v" d="M542 392h-56l-161 -392h-100l-156 392h-56v64h224v-64h-83l124 -316l130 316h-83v64h217v-64z" />
<glyph unicode="w" horiz-adv-x="889" d="M873 392h-60l-135 -392h-106l-126 381h-2l-131 -381h-106l-132 392h-60v64h237v-64h-90l102 -316h2l127 380h113l123 -380h2l106 316h-90v64h226v-64z" />
<glyph unicode="x" d="M15 64h52l160 169l-153 159h-50v64h221v-64h-67l107 -117l112 117h-76v64h213v-64h-50l-151 -159l157 -169h51v-64h-230v64h75l-114 125l-118 -125h82v-64h-221v64z" />
<glyph unicode="y" d="M544 392h-50l-187 -435q-12 -29 -24 -53.5t-27.5 -42t-38.5 -27t-58 -9.5q-16 0 -31.5 2t-31.5 4v62q11 -1 23 -2.5t25 -1.5q26 0 41 9.5t24.5 25.5t16.5 36t18 40l-177 392h-50v64h228v-64h-88l131 -306l129 306h-88v64h215v-64z" />
<glyph unicode="z" horiz-adv-x="500" d="M49 64l299 328h-221v-89h-70v153h391v-64l-302 -328h237v99h70v-163h-404v64z" />
<glyph unicode="{" horiz-adv-x="333" d="M306 658h-49q-26 0 -35.5 -24.5t-9.5 -58.5v-133q0 -37 -10.5 -62.5t-24 -42t-28 -25t-21.5 -10.5v-2q7 -2 21.5 -10t28 -24.5t24 -43t10.5 -65.5v-130q-1 -33 9 -58t36 -25h49v-64h-67q-19 0 -37.5 8.5t-33 25t-23.5 40.5t-9 55v132q0 56 -22.5 92t-57.5 36v64 q35 0 57.5 35t22.5 90v135q0 31 9 55t23.5 40.5t33 25t37.5 8.5h67v-64z" />
<glyph unicode="|" horiz-adv-x="222" d="M149 750v-1000h-76v1000h76z" />
<glyph unicode="}" horiz-adv-x="333" d="M27 -56h49q26 0 35.5 24.5t9.5 58.5v133q0 37 10.5 62.5t24 42t27.5 25t22 10.5v2q-8 2 -22 10t-27.5 24.5t-24 43t-10.5 65.5v130q1 33 -9 58t-36 25h-49v64h67q19 0 37.5 -8.5t33 -25t23.5 -40.5t9 -55v-132q0 -56 22.5 -92t57.5 -36v-64q-35 0 -57.5 -35t-22.5 -90 v-135q0 -31 -9 -55t-23.5 -40.5t-33 -25t-37.5 -8.5h-67v64z" />
<glyph unicode="~" horiz-adv-x="600" d="M69 236q8 16 19 31.5t26 27.5t33.5 19.5t42.5 7.5q25 0 47.5 -6.5t48.5 -17.5l41 -18q19 -8 37 -18t43 -10q15 0 27.5 6.5t23 17t19.5 24t18 26.5l36 -56q-11 -16 -23.5 -31.5t-27 -27.5t-32.5 -19.5t-41 -7.5q-21 0 -41 5.5t-40 15.5l-48 25q-17 9 -42.5 15.5t-45.5 6.5 q-17 0 -30 -6.5t-23.5 -16.5t-18 -23t-13.5 -26z" />
<glyph unicode="&#xa1;" horiz-adv-x="389" d="M241 395h-94v94h94v-94zM161 333h66l17 -498h-100z" />
<glyph unicode="&#xa2;" d="M323 55q43 3 71.5 28t33.5 70h76q-2 -38 -16.5 -67.5t-39 -49.5t-56.5 -31.5t-69 -13.5v-76h-52v78q-96 11 -149.5 74t-53.5 163q0 48 13.5 89.5t39.5 73t64 51t86 22.5v76h52v-76q35 -5 63.5 -21.5t45.5 -49.5h2v61h64v-172h-65q-5 50 -34 81.5t-76 36.5v-347zM271 399 q-29 -6 -50.5 -21t-36 -37.5t-21.5 -51t-7 -59.5q0 -63 28.5 -110.5t86.5 -60.5v340z" />
<glyph unicode="&#xa3;" d="M35 64h83v257h-87v64h87v60q0 51 10.5 91.5t34 69t61.5 43.5t94 15q86 0 130 -35.5t50 -124.5h-82q0 49 -26.5 72.5t-71.5 23.5q-32 0 -54.5 -10.5t-36.5 -29.5t-20.5 -44.5t-6.5 -55.5v-75h126v-64h-126v-257h215v102h76v-166h-456v64z" />
<glyph unicode="&#xa4;" d="M106 327q0 -40 13.5 -73t37 -56t54.5 -36t67 -13t67 13t54.5 36t37 56t13.5 73t-13.5 73t-37 56t-54.5 36t-67 13t-67 -13t-54.5 -36t-37 -56t-13.5 -73zM82 177q-25 31 -38.5 69t-13.5 81t13.5 81.5t38.5 69.5l-56 56l46 46l56 -56q32 24 70 37.5t80 13.5q84 0 149 -51 l58 56l46 -46l-57 -56q25 -31 38.5 -69.5t13.5 -81.5q0 -84 -51 -149l56 -55l-46 -46l-56 55q-30 -25 -68.5 -39t-82.5 -14q-42 0 -80.5 13.5t-69.5 38.5l-56 -56l-46 46z" />
<glyph unicode="&#xa5;" d="M205 590h-74l150 -244l155 244h-76v64h205v-64h-53l-160 -255h135v-52h-167l-7 -11v-66h174v-52h-174v-90h100v-64h-276v64h100v90h-174v52h174v66l-7 11h-167v52h136l-155 255h-53v64h214v-64z" />
<glyph unicode="&#xa6;" horiz-adv-x="222" d="M149 175v-350h-76v350h76zM149 675v-350h-76v350h76z" />
<glyph unicode="&#xa7;" d="M213 374q-21 -11 -35 -33t-14 -47q0 -16 4.5 -26t12.5 -17t19 -12t23 -9l122 -43q18 10 32.5 29t14.5 42q0 19 -6 31t-16 20t-23 13.5t-27 11.5zM172 57q0 -61 27.5 -82.5t81.5 -21.5q18 0 37 4.5t34 15t24.5 26.5t9.5 40q0 25 -15 41t-41.5 27.5t-61.5 22t-74 24.5 q-26 9 -47.5 19t-37 26t-24.5 39t-9 56q0 38 25 68.5t65 39.5v2q-42 15 -62 44t-20 76q0 36 17.5 62.5t44.5 44t60 25.5t65 8q46 0 82.5 -6t61.5 -24t38.5 -51t13.5 -86h-94q0 57 -23 80t-77 23q-16 0 -34 -3.5t-33 -12t-24.5 -23.5t-9.5 -37q0 -17 8.5 -30t22.5 -23 t33.5 -18.5t41.5 -16.5l79 -28q25 -9 47 -20.5t39 -27t27 -35.5t10 -47q0 -42 -22.5 -73.5t-62.5 -44.5v-2q42 -14 60.5 -43.5t18.5 -75.5q0 -41 -16.5 -69.5t-44 -46.5t-62 -26t-70.5 -8q-42 0 -79.5 8t-65 27.5t-43.5 52t-15 80.5h94z" />
<glyph unicode="&#xa8;" horiz-adv-x="278" d="M281 563h-94v100h94v-100zM-3 663h94v-100h-94v100z" />
<glyph unicode="&#xa9;" horiz-adv-x="800" d="M400 48q60 0 109 21t84 58.5t54.5 88.5t19.5 111t-19.5 111t-54.5 88.5t-84 58.5t-109 21t-109 -21t-84 -58.5t-54.5 -88.5t-19.5 -111t19.5 -111t54.5 -88.5t84 -58.5t109 -21zM400 -10q-70 0 -131.5 26.5t-107 72t-72 107t-26.5 131.5t26.5 131t72 107t107 72.5 t131.5 26.5t131 -26.5t107 -72.5t72.5 -107t26.5 -131t-26.5 -131.5t-72.5 -107t-107 -72t-131 -26.5zM580 264q-14 -68 -60 -106.5t-109 -38.5q-46 0 -83 16t-63.5 44t-41 66.5t-14.5 82.5q0 45 14 83t39.5 66t62.5 43.5t83 15.5q66 0 113.5 -36t57.5 -105h-61 q-8 37 -37 60t-72 23q-32 0 -56 -11.5t-40.5 -31.5t-25 -47.5t-8.5 -58.5q0 -30 9 -57.5t26 -48.5t41.5 -33.5t55.5 -12.5q44 0 72.5 24.5t34.5 62.5h62z" />
<glyph unicode="&#xaa;" horiz-adv-x="361" d="M88 468q0 -22 21 -32t44 -10q18 1 35 5.5t29.5 15t20 27.5t7.5 41q-9 0 -19 0.5t-21 0.5q-15 0 -35.5 -1t-38.5 -5.5t-30.5 -14t-12.5 -27.5zM245 446h-2q-8 -32 -34.5 -48t-61.5 -16q-22 0 -43 5t-37.5 15.5t-26.5 26.5t-10 39q0 32 16 50.5t40.5 27.5t53 11.5t52.5 2.5 q17 0 29.5 -2.5t23.5 -2.5v17q0 20 -15.5 34t-53.5 14q-30 0 -52 -7.5t-24 -30.5h-58q1 23 12 38.5t28.5 25.5t40 14t46.5 4q26 0 50.5 -3t43 -12t29.5 -25.5t11 -42.5v-149h49v-44h-107v58z" />
<glyph unicode="&#xab;" d="M371 428h76l-81 -198l78 -198h-73l-82 198zM191 428h76l-81 -198l78 -198h-73l-82 198z" />
<glyph unicode="&#xac;" horiz-adv-x="600" d="M477 317h-430v76h506v-286h-76v210z" />
<glyph unicode="&#xae;" horiz-adv-x="800" d="M399 351q21 0 39.5 1.5t31.5 8t20.5 19t7.5 35.5q0 18 -7 29.5t-19 17.5t-28 8t-35 1h-82v-120h72zM269 523h149q73 0 105.5 -27t32.5 -85q0 -56 -25 -79t-76 -31l112 -171h-67l-105 169h-68v-169h-58v393zM400 48q60 0 109 21t84 58.5t54.5 88.5t19.5 111t-19.5 111 t-54.5 88.5t-84 58.5t-109 21t-109 -21t-84 -58.5t-54.5 -88.5t-19.5 -111t19.5 -111t54.5 -88.5t84 -58.5t109 -21zM400 -10q-70 0 -131.5 26.5t-107 72t-72 107t-26.5 131.5t26.5 131t72 107t107 72.5t131.5 26.5t131 -26.5t107 -72.5t72.5 -107t26.5 -131t-26.5 -131.5 t-72.5 -107t-107 -72t-131 -26.5z" />
<glyph unicode="&#xaf;" horiz-adv-x="278" d="M0 633h278v-64h-278v64z" />
<glyph unicode="&#xb0;" horiz-adv-x="400" d="M52 516q0 32 11 59t31 47t47 31t59 11t59 -11t47 -31t31 -47t11 -59t-11 -59t-31 -47t-47 -31t-59 -11t-59 11t-47 31t-31 47t-11 59zM104 516q0 -40 28 -68t68 -28t68 28t28 68t-28 68t-68 28t-68 -28t-28 -68z" />
<glyph unicode="&#xb1;" horiz-adv-x="600" d="M47 76h506v-76h-506v76zM262 506h76v-160h215v-76h-215v-160h-76v160h-215v76h215v160z" />
<glyph unicode="&#xb2;" horiz-adv-x="361" d="M37 328q21 19 56.5 46t70 57t59.5 60t25 53q0 30 -15.5 49t-47.5 19q-38 0 -57 -22t-20 -54h-64q2 64 40 96t101 32q26 0 50.5 -6.5t43 -21t29 -37t10.5 -55.5q1 -23 -11 -45.5t-32 -43.5t-44.5 -41t-48.5 -37.5t-45 -32.5t-33 -27h169v51h52v-103h-288v63z" />
<glyph unicode="&#xb3;" horiz-adv-x="361" d="M159 492q38 0 63.5 14t25.5 49q0 22 -15.5 39.5t-50.5 17.5t-54 -20t-21 -55h-64q0 31 10.5 55t29.5 40t44.5 24t54.5 8q26 0 50.5 -5.5t43.5 -18t30.5 -32.5t11.5 -49q0 -39 -26.5 -63.5t-71.5 -28.5v-2q43 -1 73 -23.5t30 -70.5q0 -57 -40 -84.5t-101 -27.5 q-31 0 -57.5 6.5t-45.5 22t-29.5 41t-10.5 63.5h64q3 -81 79 -81q32 0 51.5 19t19.5 45q0 38 -26.5 52.5t-67.5 12.5v52z" />
<glyph unicode="&#xb4;" horiz-adv-x="278" d="M139 524h-64l86 144h110z" />
<glyph unicode="&#xb6;" horiz-adv-x="600" d="M241 280q-48 0 -87 14t-67 39t-43.5 58.5t-15.5 72.5q0 99 63 144.5t168 45.5h250v-774h-76v710h-116v-710h-76v400z" />
<glyph unicode="&#xb7;" horiz-adv-x="278" d="M71 262q0 28 20.5 48t47.5 20q29 0 48.5 -20t19.5 -48t-19.5 -48t-48.5 -20q-27 0 -47.5 20t-20.5 48z" />
<glyph unicode="&#xb8;" horiz-adv-x="278" d="M127 0h44l-43 -60q9 2 18.5 3.5t22.5 1.5q32 0 53.5 -17.5t21.5 -54.5q0 -21 -10.5 -37t-26.5 -27.5t-36 -17t-38 -5.5q-27 0 -53 5t-52 14l19 35q14 -5 34.5 -10.5t36.5 -5.5q23 0 36.5 12t13.5 32q0 18 -13 28.5t-28 10.5q-12 0 -24 -2.5t-23 -4.5l-16 17z" />
<glyph unicode="&#xb9;" horiz-adv-x="361" d="M87 317h65v283q-20 -19 -46 -36t-52 -35v55q17 11 29.5 20t23.5 17t22 17t25 20h62v-341h61v-52h-190v52z" />
<glyph unicode="&#xba;" horiz-adv-x="361" d="M24 525q0 30 11 55.5t32 44t50 29t65 10.5q72 0 113.5 -39t41.5 -100q0 -68 -41.5 -105.5t-113.5 -37.5t-115 37.5t-43 105.5zM88 525q0 -19 6 -37t18 -31.5t29.5 -22t40.5 -8.5t40 8.5t28.5 22t17 31.5t5.5 37q0 18 -5.5 35.5t-17 30.5t-29 21t-40.5 8t-40 -8t-29 -21 t-18 -30.5t-6 -35.5z" />
<glyph unicode="&#xbb;" d="M185 32h-76l81 198l-78 198h73l82 -198zM365 32h-76l81 198l-78 198h73l82 -198z" />
<glyph unicode="&#xbc;" horiz-adv-x="834" d="M92 317h65v283q-20 -19 -46 -36t-52 -35v55q17 11 29.5 20t23.5 17t22 17t25 20h62v-341h61v-52h-190v52zM624 334h-2l-145 -183h147v183zM564 52h60v47h-191v63l182 231h73v-242h61v-52h-61v-47h61v-52h-185v52zM581 672h60l-407 -690h-60z" />
<glyph unicode="&#xbd;" horiz-adv-x="834" d="M493 63q21 19 56.5 46t70 57t59.5 60t25 53q0 30 -15.5 49t-47.5 19q-38 0 -57 -22t-20 -54h-64q2 64 40 96t101 32q26 0 50.5 -6.5t43 -21t29 -37t10.5 -55.5q1 -23 -11 -45.5t-32 -43.5t-44.5 -41t-48.5 -37.5t-45 -32.5t-33 -27h169v51h52v-103h-288v63zM70 317h65 v283q-20 -19 -46 -36t-52 -35v55q17 11 29.5 20t23.5 17t22 17t25 20h62v-341h61v-52h-190v52zM561 672h60l-407 -690h-60z" />
<glyph unicode="&#xbe;" horiz-adv-x="834" d="M155 492q38 0 63.5 14t25.5 49q0 22 -15.5 39.5t-50.5 17.5t-54 -20t-21 -55h-64q0 31 10.5 55t29.5 40t44.5 24t54.5 8q26 0 50.5 -5.5t43.5 -18t30.5 -32.5t11.5 -49q0 -39 -26.5 -63.5t-71.5 -28.5v-2q43 -1 73 -23.5t30 -70.5q0 -57 -40 -84.5t-101 -27.5 q-31 0 -57.5 6.5t-45.5 22t-29.5 41t-10.5 63.5h64q3 -81 79 -81q32 0 51.5 19t19.5 45q0 38 -26.5 52.5t-67.5 12.5v52zM626 334h-2l-145 -183h147v183zM566 52h60v47h-191v63l182 231h73v-242h61v-52h-61v-47h61v-52h-185v52zM588 672h60l-407 -690h-60z" />
<glyph unicode="&#xbf;" horiz-adv-x="500" d="M326 395h-94v94h94v-94zM463 5q-2 -44 -19.5 -78t-47 -56.5t-68 -34t-81.5 -11.5q-39 0 -75 9t-63.5 28.5t-44 50t-16.5 72.5t10.5 71.5t29 53.5t43.5 45.5t54 47.5q18 16 28 30t15 29t6 32t1 39h89q0 -45 -7.5 -74.5t-22 -52t-36.5 -43t-51 -46.5t-47 -52t-18 -67 q0 -50 29.5 -76.5t82.5 -26.5q54 0 83.5 30t31.5 80h94z" />
<glyph unicode="&#xc0;" horiz-adv-x="778" d="M15 64h72l251 590h105l248 -590h72v-64h-269v64h100l-63 152h-293l-65 -155h102v-61h-260v64zM386 569l-121 -289h240zM367 844l86 -144h-64l-132 144h110z" />
<glyph unicode="&#xc1;" horiz-adv-x="778" d="M15 64h72l251 590h105l248 -590h72v-64h-269v64h100l-63 152h-293l-65 -155h102v-61h-260v64zM386 569l-121 -289h240zM389 700h-64l86 144h110z" />
<glyph unicode="&#xc2;" horiz-adv-x="778" d="M15 64h72l251 590h105l248 -590h72v-64h-269v64h100l-63 152h-293l-65 -155h102v-61h-260v64zM386 569l-121 -289h240zM342 844h95l103 -144h-78l-69 92l-68 -92h-87z" />
<glyph unicode="&#xc3;" horiz-adv-x="778" d="M15 64h72l251 590h105l248 -590h72v-64h-269v64h100l-63 152h-293l-65 -155h102v-61h-260v64zM386 569l-121 -289h240zM226 728q3 20 11 39.5t21 34.5t30.5 24.5t40.5 9.5q18 0 33.5 -4t30.5 -10l31 -12q13 -5 25 -9t26 -4q20 0 30.5 15t12.5 32h52q-2 -22 -10 -41.5 t-21 -34.5t-30.5 -24t-36.5 -9q-17 0 -33 4.5t-33 10.5l-29 10q-15 5 -29 9.5t-23 4.5q-21 0 -32 -14t-16 -32h-51z" />
<glyph unicode="&#xc4;" horiz-adv-x="778" d="M15 64h72l251 590h105l248 -590h72v-64h-269v64h100l-63 152h-293l-65 -155h102v-61h-260v64zM386 569l-121 -289h240zM531 739h-94v100h94v-100zM247 839h94v-100h-94v100z" />
<glyph unicode="&#xc5;" horiz-adv-x="778" d="M15 64h72l251 590h105l248 -590h72v-64h-269v64h100l-63 152h-293l-65 -155h102v-61h-260v64zM386 569l-121 -289h240zM331 779q0 -24 17.5 -41t40.5 -17t40.5 17t17.5 41q0 25 -17.5 40.5t-40.5 17.5q-12 0 -22.5 -4.5t-19 -12.5t-13 -18.5t-3.5 -22.5zM287 779 q0 21 8 39.5t21.5 32.5t32.5 22t40 8t39.5 -8t32.5 -22t22 -32.5t8 -39.5t-8 -40t-22 -32.5t-32.5 -21.5t-39.5 -8q-43 0 -72.5 29.5t-29.5 72.5z" />
<glyph unicode="&#xc6;" horiz-adv-x="1000" d="M13 64h41l357 590h529v-198h-76v134h-314l34 -228h130v94h76v-252h-76v94h-121l35 -234h236v140h76v-204h-497v64h99l-23 152h-285l-93 -152h101v-64h-229v64zM464 590h-2l-189 -310h237z" />
<glyph unicode="&#xc7;" horiz-adv-x="722" d="M662 420h-76q-8 90 -59 135t-138 45q-113 0 -175.5 -67t-62.5 -206q0 -59 15 -109t45 -86.5t74.5 -57t103.5 -20.5q36 0 69 11t58 32.5t40 53t15 71.5h94q0 -62 -22.5 -106t-61 -72t-88.5 -41t-104 -13h-3l-36 -50q9 2 18.5 3.5t22.5 1.5q32 0 53.5 -17.5t21.5 -54.5 q0 -21 -10.5 -37t-26.5 -27.5t-36 -17t-38 -5.5q-27 0 -53 5t-52 14l19 35q14 -5 34.5 -10.5t36.5 -5.5q23 0 36.5 12t13.5 32q0 18 -13 28.5t-28 10.5q-12 0 -24 -2.5t-23 -4.5l-16 17l57 75q-142 13 -214 101t-72 234q0 79 21 141.5t63 106t104 66.5t144 23q22 0 50 -5 t55.5 -16.5t51.5 -28.5t38 -41h2v81h76v-234z" />
<glyph unicode="&#xc8;" horiz-adv-x="667" d="M40 64h100v526h-100v64h570v-198h-76v134h-306v-228h146v94h76v-252h-76v94h-146v-234h306v140h76v-204h-570v64zM312 844l86 -144h-64l-132 144h110z" />
<glyph unicode="&#xc9;" horiz-adv-x="667" d="M40 64h100v526h-100v64h570v-198h-76v134h-306v-228h146v94h76v-252h-76v94h-146v-234h306v140h76v-204h-570v64zM334 700h-64l86 144h110z" />
<glyph unicode="&#xca;" horiz-adv-x="667" d="M40 64h100v526h-100v64h570v-198h-76v134h-306v-228h146v94h76v-252h-76v94h-146v-234h306v140h76v-204h-570v64zM287 844h95l103 -144h-78l-69 92l-68 -92h-87z" />
<glyph unicode="&#xcb;" horiz-adv-x="667" d="M40 64h100v526h-100v64h570v-198h-76v134h-306v-228h146v94h76v-252h-76v94h-146v-234h306v140h76v-204h-570v64zM476 739h-94v100h94v-100zM192 839h94v-100h-94v100z" />
<glyph unicode="&#xcc;" horiz-adv-x="333" d="M23 64h100v526h-100v64h288v-64h-100v-526h100v-64h-288v64zM145 844l86 -144h-64l-132 144h110z" />
<glyph unicode="&#xcd;" horiz-adv-x="333" d="M23 64h100v526h-100v64h288v-64h-100v-526h100v-64h-288v64zM167 700h-64l86 144h110z" />
<glyph unicode="&#xce;" horiz-adv-x="333" d="M23 64h100v526h-100v64h288v-64h-100v-526h100v-64h-288v64zM120 844h95l103 -144h-78l-69 92l-68 -92h-87z" />
<glyph unicode="&#xcf;" horiz-adv-x="333" d="M23 64h100v526h-100v64h288v-64h-100v-526h100v-64h-288v64zM309 739h-94v100h94v-100zM25 839h94v-100h-94v100z" />
<glyph unicode="&#xd0;" horiz-adv-x="722" d="M30 64h100v245h-100v64h100v217h-100v64h241q89 0 163.5 -12.5t128 -48.5t83.5 -99.5t30 -165.5t-30 -166t-83.5 -100t-128 -49t-163.5 -13h-241v64zM218 373h172v-64h-172v-245h53q69 0 126.5 11.5t98.5 40.5t63.5 80t22.5 131q0 79 -22.5 130.5t-63.5 80.5t-98.5 40.5 t-126.5 11.5h-53v-217z" />
<glyph unicode="&#xd1;" horiz-adv-x="778" d="M752 590h-104v-590h-118l-316 572h-2v-508h100v-64h-286v64h104v526h-104v64h235l303 -552h2v488h-100v64h286v-64zM226 728q3 20 11 39.5t21 34.5t30.5 24.5t40.5 9.5q18 0 33.5 -4t30.5 -10l31 -12q13 -5 25 -9t26 -4q20 0 30.5 15t12.5 32h52q-2 -22 -10 -41.5 t-21 -34.5t-30.5 -24t-36.5 -9q-17 0 -33 4.5t-33 10.5l-29 10q-15 5 -29 9.5t-23 4.5q-21 0 -32 -14t-16 -32h-51z" />
<glyph unicode="&#xd2;" horiz-adv-x="778" d="M721 327q0 -79 -21 -141.5t-63 -106t-104 -66.5t-144 -23t-144 23t-104 66.5t-63 106t-21 141.5t21 141.5t63 106t104 66.5t144 23t144 -23t104 -66.5t63 -106t21 -141.5zM627 327q0 139 -62.5 206t-175.5 67t-175.5 -67t-62.5 -206q0 -59 16 -109t46.5 -86.5t75 -57 t100.5 -20.5t100.5 20.5t75 57t46.5 86.5t16 109zM367 844l86 -144h-64l-132 144h110z" />
<glyph unicode="&#xd3;" horiz-adv-x="778" d="M721 327q0 -79 -21 -141.5t-63 -106t-104 -66.5t-144 -23t-144 23t-104 66.5t-63 106t-21 141.5t21 141.5t63 106t104 66.5t144 23t144 -23t104 -66.5t63 -106t21 -141.5zM627 327q0 139 -62.5 206t-175.5 67t-175.5 -67t-62.5 -206q0 -59 16 -109t46.5 -86.5t75 -57 t100.5 -20.5t100.5 20.5t75 57t46.5 86.5t16 109zM389 700h-64l86 144h110z" />
<glyph unicode="&#xd4;" horiz-adv-x="778" d="M721 327q0 -79 -21 -141.5t-63 -106t-104 -66.5t-144 -23t-144 23t-104 66.5t-63 106t-21 141.5t21 141.5t63 106t104 66.5t144 23t144 -23t104 -66.5t63 -106t21 -141.5zM627 327q0 139 -62.5 206t-175.5 67t-175.5 -67t-62.5 -206q0 -59 16 -109t46.5 -86.5t75 -57 t100.5 -20.5t100.5 20.5t75 57t46.5 86.5t16 109zM342 844h95l103 -144h-78l-69 92l-68 -92h-87z" />
<glyph unicode="&#xd5;" horiz-adv-x="778" d="M721 327q0 -79 -21 -141.5t-63 -106t-104 -66.5t-144 -23t-144 23t-104 66.5t-63 106t-21 141.5t21 141.5t63 106t104 66.5t144 23t144 -23t104 -66.5t63 -106t21 -141.5zM627 327q0 139 -62.5 206t-175.5 67t-175.5 -67t-62.5 -206q0 -59 16 -109t46.5 -86.5t75 -57 t100.5 -20.5t100.5 20.5t75 57t46.5 86.5t16 109zM226 728q3 20 11 39.5t21 34.5t30.5 24.5t40.5 9.5q18 0 33.5 -4t30.5 -10l31 -12q13 -5 25 -9t26 -4q20 0 30.5 15t12.5 32h52q-2 -22 -10 -41.5t-21 -34.5t-30.5 -24t-36.5 -9q-17 0 -33 4.5t-33 10.5l-29 10 q-15 5 -29 9.5t-23 4.5q-21 0 -32 -14t-16 -32h-51z" />
<glyph unicode="&#xd6;" horiz-adv-x="778" d="M721 327q0 -79 -21 -141.5t-63 -106t-104 -66.5t-144 -23t-144 23t-104 66.5t-63 106t-21 141.5t21 141.5t63 106t104 66.5t144 23t144 -23t104 -66.5t63 -106t21 -141.5zM627 327q0 139 -62.5 206t-175.5 67t-175.5 -67t-62.5 -206q0 -59 16 -109t46.5 -86.5t75 -57 t100.5 -20.5t100.5 20.5t75 57t46.5 86.5t16 109zM531 739h-94v100h94v-100zM247 839h94v-100h-94v100z" />
<glyph unicode="&#xd7;" horiz-adv-x="600" d="M71 431l51 51l177 -178l179 178l51 -51l-179 -178l179 -178l-51 -51l-179 179l-177 -179l-51 51l178 178z" />
<glyph unicode="&#xd8;" horiz-adv-x="778" d="M233 109q29 -26 67.5 -40.5t88.5 -14.5q59 0 103.5 20.5t74.5 57t45 86.5t15 109q0 61 -11 105.5t-33 76.5zM551 546q-59 54 -162 54q-113 0 -175.5 -67t-62.5 -206q0 -51 12.5 -98t38.5 -84zM144 79q-44 45 -65.5 107.5t-21.5 140.5q0 79 21 141.5t63 106t104 66.5 t144 23q133 0 213 -60l70 80l37 -30l-71 -82q83 -84 83 -245q0 -79 -21 -141.5t-63 -106t-104 -66.5t-144 -23q-130 0 -209 58l-68 -78l-37 30z" />
<glyph unicode="&#xd9;" horiz-adv-x="722" d="M706 590h-85v-340q0 -260 -260 -260q-79 0 -129 22t-78.5 58.5t-39 83.5t-10.5 96v340h-89v64h282v-64h-105v-340q0 -34 6.5 -68.5t25.5 -63t52.5 -46.5t86.5 -18q46 0 78.5 14t52.5 40t29.5 62t9.5 80v340h-98v64h271v-64zM339 844l86 -144h-64l-132 144h110z" />
<glyph unicode="&#xda;" horiz-adv-x="722" d="M706 590h-85v-340q0 -260 -260 -260q-79 0 -129 22t-78.5 58.5t-39 83.5t-10.5 96v340h-89v64h282v-64h-105v-340q0 -34 6.5 -68.5t25.5 -63t52.5 -46.5t86.5 -18q46 0 78.5 14t52.5 40t29.5 62t9.5 80v340h-98v64h271v-64zM361 700h-64l86 144h110z" />
<glyph unicode="&#xdb;" horiz-adv-x="722" d="M706 590h-85v-340q0 -260 -260 -260q-79 0 -129 22t-78.5 58.5t-39 83.5t-10.5 96v340h-89v64h282v-64h-105v-340q0 -34 6.5 -68.5t25.5 -63t52.5 -46.5t86.5 -18q46 0 78.5 14t52.5 40t29.5 62t9.5 80v340h-98v64h271v-64zM314 844h95l103 -144h-78l-69 92l-68 -92h-87z " />
<glyph unicode="&#xdc;" horiz-adv-x="722" d="M706 590h-85v-340q0 -260 -260 -260q-79 0 -129 22t-78.5 58.5t-39 83.5t-10.5 96v340h-89v64h282v-64h-105v-340q0 -34 6.5 -68.5t25.5 -63t52.5 -46.5t86.5 -18q46 0 78.5 14t52.5 40t29.5 62t9.5 80v340h-98v64h271v-64zM503 739h-94v100h94v-100zM219 839h94v-100 h-94v100z" />
<glyph unicode="&#xdd;" horiz-adv-x="667" d="M175 64h111v207l-216 319h-55v64h257v-64h-103l168 -247l173 247h-103v64h246v-64h-55l-224 -319v-207h111v-64h-310v64zM334 700h-64l86 144h110z" />
<glyph unicode="&#xde;" horiz-adv-x="611" d="M30 64h100v526h-100v64h306v-64h-118v-66h97q52 0 99.5 -7t84 -28t58 -59t21.5 -101t-21.5 -101.5t-58 -59.5t-84 -28t-99.5 -7h-97v-69h118v-64h-306v64zM218 197h97q32 0 62.5 3.5t54 17t38 39.5t14.5 72t-14.5 72.5t-38 39.5t-54 16t-62.5 3h-97v-263z" />
<glyph unicode="&#xdf;" d="M17 64h79v388q0 98 46 155t152 57q43 0 79.5 -8t63.5 -27.5t42 -51t15 -77.5q0 -69 -41 -103.5t-107 -37.5v-2q77 -6 124.5 -48t47.5 -118q0 -59 -15.5 -96t-45 -58t-71.5 -29t-96 -8v64q35 0 61 6t43.5 20.5t26.5 39t9 61.5q0 35 -11 60t-30.5 40.5t-46.5 23t-59 7.5v64 q54 0 88.5 27t34.5 87q0 49 -29.5 74.5t-76.5 25.5q-36 0 -60 -11t-37.5 -31t-19 -47t-5.5 -59v-388h49v-64h-210v64z" />
<glyph unicode="&#xe0;" d="M129 131q0 -23 9 -37.5t23 -23.5t32.5 -12.5t36.5 -3.5q38 0 65.5 13t45 34.5t26 50.5t8.5 62h-69q-22 0 -52.5 -1.5t-58 -9t-47 -24.5t-19.5 -48zM375 94h-2q-15 -54 -56.5 -79t-96.5 -25q-34 0 -66.5 7.5t-57.5 24.5t-40 44t-15 65q0 52 23 81.5t59 44t79.5 18 t84.5 3.5h88v27q0 55 -28 76t-82 21q-23 0 -44 -3t-36.5 -11.5t-26 -24t-12.5 -39.5h-88q2 39 19 66.5t44 44t61.5 24t71.5 7.5q40 0 77 -5.5t65 -21t44.5 -43t16.5 -71.5v-261h80v-64h-162v94zM256 668l86 -144h-64l-132 144h110z" />
<glyph unicode="&#xe1;" d="M129 131q0 -23 9 -37.5t23 -23.5t32.5 -12.5t36.5 -3.5q38 0 65.5 13t45 34.5t26 50.5t8.5 62h-69q-22 0 -52.5 -1.5t-58 -9t-47 -24.5t-19.5 -48zM375 94h-2q-15 -54 -56.5 -79t-96.5 -25q-34 0 -66.5 7.5t-57.5 24.5t-40 44t-15 65q0 52 23 81.5t59 44t79.5 18 t84.5 3.5h88v27q0 55 -28 76t-82 21q-23 0 -44 -3t-36.5 -11.5t-26 -24t-12.5 -39.5h-88q2 39 19 66.5t44 44t61.5 24t71.5 7.5q40 0 77 -5.5t65 -21t44.5 -43t16.5 -71.5v-261h80v-64h-162v94zM278 524h-64l86 144h110z" />
<glyph unicode="&#xe2;" d="M129 131q0 -23 9 -37.5t23 -23.5t32.5 -12.5t36.5 -3.5q38 0 65.5 13t45 34.5t26 50.5t8.5 62h-69q-22 0 -52.5 -1.5t-58 -9t-47 -24.5t-19.5 -48zM375 94h-2q-15 -54 -56.5 -79t-96.5 -25q-34 0 -66.5 7.5t-57.5 24.5t-40 44t-15 65q0 52 23 81.5t59 44t79.5 18 t84.5 3.5h88v27q0 55 -28 76t-82 21q-23 0 -44 -3t-36.5 -11.5t-26 -24t-12.5 -39.5h-88q2 39 19 66.5t44 44t61.5 24t71.5 7.5q40 0 77 -5.5t65 -21t44.5 -43t16.5 -71.5v-261h80v-64h-162v94zM231 668h95l103 -144h-78l-69 92l-68 -92h-87z" />
<glyph unicode="&#xe3;" d="M129 131q0 -23 9 -37.5t23 -23.5t32.5 -12.5t36.5 -3.5q38 0 65.5 13t45 34.5t26 50.5t8.5 62h-69q-22 0 -52.5 -1.5t-58 -9t-47 -24.5t-19.5 -48zM375 94h-2q-15 -54 -56.5 -79t-96.5 -25q-34 0 -66.5 7.5t-57.5 24.5t-40 44t-15 65q0 52 23 81.5t59 44t79.5 18 t84.5 3.5h88v27q0 55 -28 76t-82 21q-23 0 -44 -3t-36.5 -11.5t-26 -24t-12.5 -39.5h-88q2 39 19 66.5t44 44t61.5 24t71.5 7.5q40 0 77 -5.5t65 -21t44.5 -43t16.5 -71.5v-261h80v-64h-162v94zM115 552q3 20 11 39.5t21 34.5t30.5 24.5t40.5 9.5q18 0 33.5 -4t30.5 -10 l31 -12q13 -5 25 -9t26 -4q20 0 30.5 15t12.5 32h52q-2 -22 -10 -41.5t-21 -34.5t-30.5 -24t-36.5 -9q-17 0 -33 4.5t-33 10.5l-29 10q-15 5 -29 9.5t-23 4.5q-21 0 -32 -14t-16 -32h-51z" />
<glyph unicode="&#xe4;" d="M129 131q0 -23 9 -37.5t23 -23.5t32.5 -12.5t36.5 -3.5q38 0 65.5 13t45 34.5t26 50.5t8.5 62h-69q-22 0 -52.5 -1.5t-58 -9t-47 -24.5t-19.5 -48zM375 94h-2q-15 -54 -56.5 -79t-96.5 -25q-34 0 -66.5 7.5t-57.5 24.5t-40 44t-15 65q0 52 23 81.5t59 44t79.5 18 t84.5 3.5h88v27q0 55 -28 76t-82 21q-23 0 -44 -3t-36.5 -11.5t-26 -24t-12.5 -39.5h-88q2 39 19 66.5t44 44t61.5 24t71.5 7.5q40 0 77 -5.5t65 -21t44.5 -43t16.5 -71.5v-261h80v-64h-162v94zM420 563h-94v100h94v-100zM136 663h94v-100h-94v100z" />
<glyph unicode="&#xe5;" d="M129 131q0 -23 9 -37.5t23 -23.5t32.5 -12.5t36.5 -3.5q38 0 65.5 13t45 34.5t26 50.5t8.5 62h-69q-22 0 -52.5 -1.5t-58 -9t-47 -24.5t-19.5 -48zM375 94h-2q-15 -54 -56.5 -79t-96.5 -25q-34 0 -66.5 7.5t-57.5 24.5t-40 44t-15 65q0 52 23 81.5t59 44t79.5 18 t84.5 3.5h88v27q0 55 -28 76t-82 21q-23 0 -44 -3t-36.5 -11.5t-26 -24t-12.5 -39.5h-88q2 39 19 66.5t44 44t61.5 24t71.5 7.5q40 0 77 -5.5t65 -21t44.5 -43t16.5 -71.5v-261h80v-64h-162v94zM220 616q0 -24 17.5 -41t40.5 -17t40.5 17t17.5 41q0 25 -17.5 40.5 t-40.5 17.5q-12 0 -22.5 -4.5t-19 -12.5t-13 -18.5t-3.5 -22.5zM176 616q0 21 8 39.5t21.5 32.5t32.5 22t40 8t39.5 -8t32.5 -22t22 -32.5t8 -39.5t-8 -40t-22 -32.5t-32.5 -21.5t-39.5 -8q-43 0 -72.5 29.5t-29.5 72.5z" />
<glyph unicode="&#xe6;" horiz-adv-x="778" d="M243 205q-21 0 -42 -2t-38 -9t-28 -22t-11 -42q0 -42 27 -59t65 -17q36 0 61 13t41 34t23 48t7 56h-105zM664 269q0 27 -4.5 51.5t-16.5 42.5t-33 28.5t-54 10.5q-32 0 -56 -10.5t-41 -28.5t-26 -42.5t-9 -51.5h240zM424 205q0 -32 8 -60t25 -48t43 -31.5t61 -11.5 q20 0 38.5 6.5t33 18.5t23 29t8.5 38h76q-2 -42 -17 -71.5t-40.5 -48.5t-59.5 -27.5t-73 -8.5q-28 0 -55.5 7t-51 21.5t-41.5 35.5t-25 48h-2q-8 -28 -25.5 -49t-41 -35t-50.5 -21t-55 -7q-34 0 -64.5 8.5t-53 26t-36 44.5t-13.5 64q0 45 18.5 72t48.5 41t66.5 18.5 t72.5 4.5h106v39q0 46 -21.5 70t-80.5 24q-42 0 -70.5 -16.5t-33.5 -57.5h-88q1 39 19 65.5t45 42.5t59 23t63 7q58 0 99.5 -15t62.5 -61q23 39 61 57.5t89 18.5q63 0 101.5 -19.5t59.5 -54t27.5 -82.5t5.5 -105h-322z" />
<glyph unicode="&#xe7;" horiz-adv-x="500" d="M468 284h-65q-5 54 -39.5 86t-89.5 32q-36 0 -64 -14t-47 -38t-28.5 -55.5t-9.5 -66.5t9.5 -66.5t28.5 -55.5t47 -38t64 -14q48 0 82.5 24t41.5 75h76q-2 -42 -19 -72.5t-44.5 -50.5t-62.5 -30t-73 -10l-36 -50q9 2 18.5 3.5t22.5 1.5q32 0 53.5 -17.5t21.5 -54.5 q0 -21 -10.5 -37t-26.5 -27.5t-36 -17t-38 -5.5q-27 0 -53 5t-52 14l19 35q14 -5 34.5 -10.5t36.5 -5.5q23 0 36.5 12t13.5 32q0 18 -13 28.5t-28 10.5q-12 0 -24 -2.5t-23 -4.5l-16 17l58 76q-91 12 -143.5 73.5t-52.5 161.5q0 56 17 100t48 75t75 47t97 16q38 0 73 -16 t55 -51h2v57h64v-172z" />
<glyph unicode="&#xe8;" d="M429 269q-4 63 -40.5 98t-103.5 35q-30 0 -57 -9t-47.5 -26t-32.5 -42t-12 -56h293zM136 205q0 -79 42.5 -115t123.5 -36q19 0 41 5.5t41 16.5t32 27.5t15 38.5h76q-1 -42 -21.5 -71t-51.5 -47t-69 -26t-74 -8q-56 0 -100.5 16t-76.5 47t-49 75t-17 100t17 100t49 75 t76.5 47t100.5 16q61 0 102.5 -20.5t67.5 -55.5t38 -82.5t12 -102.5h-375zM256 668l86 -144h-64l-132 144h110z" />
<glyph unicode="&#xe9;" d="M429 269q-4 63 -40.5 98t-103.5 35q-30 0 -57 -9t-47.5 -26t-32.5 -42t-12 -56h293zM136 205q0 -79 42.5 -115t123.5 -36q19 0 41 5.5t41 16.5t32 27.5t15 38.5h76q-1 -42 -21.5 -71t-51.5 -47t-69 -26t-74 -8q-56 0 -100.5 16t-76.5 47t-49 75t-17 100t17 100t49 75 t76.5 47t100.5 16q61 0 102.5 -20.5t67.5 -55.5t38 -82.5t12 -102.5h-375zM278 524h-64l86 144h110z" />
<glyph unicode="&#xea;" d="M429 269q-4 63 -40.5 98t-103.5 35q-30 0 -57 -9t-47.5 -26t-32.5 -42t-12 -56h293zM136 205q0 -79 42.5 -115t123.5 -36q19 0 41 5.5t41 16.5t32 27.5t15 38.5h76q-1 -42 -21.5 -71t-51.5 -47t-69 -26t-74 -8q-56 0 -100.5 16t-76.5 47t-49 75t-17 100t17 100t49 75 t76.5 47t100.5 16q61 0 102.5 -20.5t67.5 -55.5t38 -82.5t12 -102.5h-375zM231 668h95l103 -144h-78l-69 92l-68 -92h-87z" />
<glyph unicode="&#xeb;" d="M429 269q-4 63 -40.5 98t-103.5 35q-30 0 -57 -9t-47.5 -26t-32.5 -42t-12 -56h293zM136 205q0 -79 42.5 -115t123.5 -36q19 0 41 5.5t41 16.5t32 27.5t15 38.5h76q-1 -42 -21.5 -71t-51.5 -47t-69 -26t-74 -8q-56 0 -100.5 16t-76.5 47t-49 75t-17 100t17 100t49 75 t76.5 47t100.5 16q61 0 102.5 -20.5t67.5 -55.5t38 -82.5t12 -102.5h-375zM420 563h-94v100h94v-100zM136 663h94v-100h-94v100z" />
<glyph unicode="&#xec;" horiz-adv-x="278" d="M28 64h79v328h-79v64h161v-392h79v-64h-240v64zM117 668l86 -144h-64l-132 144h110z" />
<glyph unicode="&#xed;" horiz-adv-x="278" d="M28 64h79v328h-79v64h161v-392h79v-64h-240v64zM139 524h-64l86 144h110z" />
<glyph unicode="&#xee;" horiz-adv-x="278" d="M28 64h79v328h-79v64h161v-392h79v-64h-240v64zM92 668h95l103 -144h-78l-69 92l-68 -92h-87z" />
<glyph unicode="&#xef;" horiz-adv-x="278" d="M28 64h79v328h-79v64h161v-392h79v-64h-240v64zM281 563h-94v100h94v-100zM-3 663h94v-100h-94v100z" />
<glyph unicode="&#xf0;" d="M400 680l36 -39l-99 -50q35 -27 67.5 -60t58 -76.5t41 -99t15.5 -127.5q0 -52 -16.5 -96t-47.5 -75.5t-75.5 -49t-99.5 -17.5q-56 0 -100.5 16t-76.5 47t-49 75t-17 100t17 100t49 75t76.5 47t100.5 16q35 0 64 -12.5t55 -35.5h2q-26 42 -60 76t-75 63l-100 -50l-36 37 l91 47q-19 16 -40 28.5t-41 24.5l56 42q25 -14 49.5 -29t47.5 -32zM125 228q0 -35 9.5 -66.5t29 -55.5t48.5 -38t68 -14t67 13.5t47 36.5t28 55t9 69q0 78 -36.5 126t-114.5 48q-39 0 -68 -14t-48.5 -38t-29 -55.5t-9.5 -66.5z" />
<glyph unicode="&#xf1;" horiz-adv-x="611" d="M39 64h79v328h-79v64h161v-83h2q17 44 59.5 68.5t93.5 24.5q86 0 124 -42t38 -124v-236h79v-64h-240v64h79v219q0 55 -22.5 87t-82.5 32q-66 0 -98 -41t-32 -102v-195h79v-64h-240v64zM143 552q3 20 11 39.5t21 34.5t30.5 24.5t40.5 9.5q18 0 33.5 -4t30.5 -10l31 -12 q13 -5 25 -9t26 -4q20 0 30.5 15t12.5 32h52q-2 -22 -10 -41.5t-21 -34.5t-30.5 -24t-36.5 -9q-17 0 -33 4.5t-33 10.5l-29 10q-15 5 -29 9.5t-23 4.5q-21 0 -32 -14t-16 -32h-51z" />
<glyph unicode="&#xf2;" d="M37 228q0 56 17 100t49 75t76.5 47t100.5 16q55 0 99.5 -16t75.5 -47t47.5 -75t16.5 -100t-16.5 -100t-47.5 -75t-75.5 -47t-99.5 -16q-56 0 -100.5 16t-76.5 47t-49 75t-17 100zM125 228q0 -35 9.5 -66.5t29 -55.5t48.5 -38t68 -14t67 14t47 38t28 55.5t9 66.5t-9 66.5 t-28 55.5t-47 38t-67 14t-68 -14t-48.5 -38t-29 -55.5t-9.5 -66.5zM256 668l86 -144h-64l-132 144h110z" />
<glyph unicode="&#xf3;" d="M37 228q0 56 17 100t49 75t76.5 47t100.5 16q55 0 99.5 -16t75.5 -47t47.5 -75t16.5 -100t-16.5 -100t-47.5 -75t-75.5 -47t-99.5 -16q-56 0 -100.5 16t-76.5 47t-49 75t-17 100zM125 228q0 -35 9.5 -66.5t29 -55.5t48.5 -38t68 -14t67 14t47 38t28 55.5t9 66.5t-9 66.5 t-28 55.5t-47 38t-67 14t-68 -14t-48.5 -38t-29 -55.5t-9.5 -66.5zM278 524h-64l86 144h110z" />
<glyph unicode="&#xf4;" d="M37 228q0 56 17 100t49 75t76.5 47t100.5 16q55 0 99.5 -16t75.5 -47t47.5 -75t16.5 -100t-16.5 -100t-47.5 -75t-75.5 -47t-99.5 -16q-56 0 -100.5 16t-76.5 47t-49 75t-17 100zM125 228q0 -35 9.5 -66.5t29 -55.5t48.5 -38t68 -14t67 14t47 38t28 55.5t9 66.5t-9 66.5 t-28 55.5t-47 38t-67 14t-68 -14t-48.5 -38t-29 -55.5t-9.5 -66.5zM231 668h95l103 -144h-78l-69 92l-68 -92h-87z" />
<glyph unicode="&#xf5;" d="M37 228q0 56 17 100t49 75t76.5 47t100.5 16q55 0 99.5 -16t75.5 -47t47.5 -75t16.5 -100t-16.5 -100t-47.5 -75t-75.5 -47t-99.5 -16q-56 0 -100.5 16t-76.5 47t-49 75t-17 100zM125 228q0 -35 9.5 -66.5t29 -55.5t48.5 -38t68 -14t67 14t47 38t28 55.5t9 66.5t-9 66.5 t-28 55.5t-47 38t-67 14t-68 -14t-48.5 -38t-29 -55.5t-9.5 -66.5zM115 552q3 20 11 39.5t21 34.5t30.5 24.5t40.5 9.5q18 0 33.5 -4t30.5 -10l31 -12q13 -5 25 -9t26 -4q20 0 30.5 15t12.5 32h52q-2 -22 -10 -41.5t-21 -34.5t-30.5 -24t-36.5 -9q-17 0 -33 4.5t-33 10.5 l-29 10q-15 5 -29 9.5t-23 4.5q-21 0 -32 -14t-16 -32h-51z" />
<glyph unicode="&#xf6;" d="M37 228q0 56 17 100t49 75t76.5 47t100.5 16q55 0 99.5 -16t75.5 -47t47.5 -75t16.5 -100t-16.5 -100t-47.5 -75t-75.5 -47t-99.5 -16q-56 0 -100.5 16t-76.5 47t-49 75t-17 100zM125 228q0 -35 9.5 -66.5t29 -55.5t48.5 -38t68 -14t67 14t47 38t28 55.5t9 66.5t-9 66.5 t-28 55.5t-47 38t-67 14t-68 -14t-48.5 -38t-29 -55.5t-9.5 -66.5zM420 563h-94v100h94v-100zM136 663h94v-100h-94v100z" />
<glyph unicode="&#xf7;" horiz-adv-x="600" d="M232 46q0 29 20.5 48.5t47.5 19.5q28 0 48 -20t20 -48q0 -13 -5.5 -25t-14.5 -21.5t-21.5 -15.5t-25.5 -6q-28 0 -48.5 20t-20.5 48zM232 460q0 29 20.5 48.5t47.5 19.5q28 0 48 -20t20 -48q0 -13 -5.5 -25t-14.5 -21.5t-21.5 -15.5t-25.5 -6q-28 0 -48.5 20t-20.5 48z M47 291h506v-76h-506v76z" />
<glyph unicode="&#xf8;" d="M100 58q-63 60 -63 170q0 56 17 100t49 75t76.5 47t100.5 16q86 0 144 -38l53 60l31 -30l-51 -57q30 -31 46 -74.5t16 -98.5q0 -56 -16.5 -100t-47.5 -75t-75.5 -47t-99.5 -16q-91 0 -149 41l-51 -57l-31 26zM182 88q18 -16 42.5 -25t55.5 -9q39 0 67 14t47 38t28 55.5 t9 66.5q0 32 -7 59.5t-22 50.5zM373 370q-37 32 -93 32q-39 0 -68 -14t-48.5 -38t-29 -55.5t-9.5 -66.5q0 -31 7.5 -58.5t22.5 -49.5z" />
<glyph unicode="&#xf9;" horiz-adv-x="611" d="M499 64h79v-64h-161v79h-2q-14 -42 -56.5 -65.5t-92.5 -23.5q-89 0 -127.5 42.5t-38.5 123.5v236h-79v64h161v-283q0 -27 5 -49t17 -37.5t32 -24t51 -8.5q67 0 98.5 40t31.5 103v195h-79v64h161v-392zM269 668l86 -144h-64l-132 144h110z" />
<glyph unicode="&#xfa;" horiz-adv-x="611" d="M499 64h79v-64h-161v79h-2q-14 -42 -56.5 -65.5t-92.5 -23.5q-89 0 -127.5 42.5t-38.5 123.5v236h-79v64h161v-283q0 -27 5 -49t17 -37.5t32 -24t51 -8.5q67 0 98.5 40t31.5 103v195h-79v64h161v-392zM306 524h-64l86 144h110z" />
<glyph unicode="&#xfb;" horiz-adv-x="611" d="M499 64h79v-64h-161v79h-2q-14 -42 -56.5 -65.5t-92.5 -23.5q-89 0 -127.5 42.5t-38.5 123.5v236h-79v64h161v-283q0 -27 5 -49t17 -37.5t32 -24t51 -8.5q67 0 98.5 40t31.5 103v195h-79v64h161v-392zM244 668h95l103 -144h-78l-69 92l-68 -92h-87z" />
<glyph unicode="&#xfc;" horiz-adv-x="611" d="M499 64h79v-64h-161v79h-2q-14 -42 -56.5 -65.5t-92.5 -23.5q-89 0 -127.5 42.5t-38.5 123.5v236h-79v64h161v-283q0 -27 5 -49t17 -37.5t32 -24t51 -8.5q67 0 98.5 40t31.5 103v195h-79v64h161v-392zM433 563h-94v100h94v-100zM149 663h94v-100h-94v100z" />
<glyph unicode="&#xfd;" d="M544 392h-50l-187 -435q-12 -29 -24 -53.5t-27.5 -42t-38.5 -27t-58 -9.5q-16 0 -31.5 2t-31.5 4v62q11 -1 23 -2.5t25 -1.5q26 0 41 9.5t24.5 25.5t16.5 36t18 40l-177 392h-50v64h228v-64h-88l131 -306l129 306h-88v64h215v-64zM278 524h-64l86 144h110z" />
<glyph unicode="&#xfe;" horiz-adv-x="611" d="M185 228q0 -39 9.5 -71t29.5 -55t50 -35.5t71 -12.5q33 0 58.5 12.5t43 35.5t26.5 55t9 71q0 34 -9 65.5t-26 55.5t-43 38.5t-59 14.5q-42 0 -72 -14.5t-49.5 -38.5t-29 -55.5t-9.5 -65.5zM23 -101h80v691h-80v64h162v-289h2q17 45 60.5 73t109.5 28q48 0 87.5 -16.5 t67.5 -47.5t43 -75t15 -99q0 -54 -15 -97.5t-43.5 -75t-70.5 -48.5t-96 -17t-94.5 24.5t-63.5 73.5h-2v-189h80v-64h-242v64z" />
<glyph unicode="&#xff;" d="M544 392h-50l-187 -435q-12 -29 -24 -53.5t-27.5 -42t-38.5 -27t-58 -9.5q-16 0 -31.5 2t-31.5 4v62q11 -1 23 -2.5t25 -1.5q26 0 41 9.5t24.5 25.5t16.5 36t18 40l-177 392h-50v64h228v-64h-88l131 -306l129 306h-88v64h215v-64zM420 563h-94v100h94v-100zM136 663h94 v-100h-94v100z" />
<glyph unicode="&#x131;" horiz-adv-x="278" d="M28 64h79v328h-79v64h161v-392h79v-64h-240v64z" />
<glyph unicode="&#x141;" horiz-adv-x="611" d="M30 64h100v154l-84 -59v76l84 59v296h-100v64h306v-64h-118v-234l184 129v-76l-184 -129v-216h275v157h76v-221h-539v64z" />
<glyph unicode="&#x142;" horiz-adv-x="278" d="M28 64h79v229l-70 -54v71l70 54v226h-79v64h161v-225l70 57v-71l-70 -57v-294h79v-64h-240v64z" />
<glyph unicode="&#x152;" horiz-adv-x="1000" d="M492 590q-23 2 -48.5 6t-54.5 4q-113 0 -175.5 -67t-62.5 -206q0 -59 16 -109t46.5 -86.5t75 -57t100.5 -20.5q32 0 56.5 3.5t46.5 7.5v525zM931 456h-76v134h-275v-228h122v94h76v-252h-76v94h-122v-234h279v140h76v-204h-380q-45 0 -72.5 -2.5t-47.5 -4.5 q-16 -2 -28.5 -2.5t-17.5 -0.5q-82 0 -144 23t-104 66.5t-63 106t-21 141.5t21 141.5t63 106t104 66.5t144 23q14 0 48.5 -2t71.5 -5q35 -3 70 -3h70h282v-198z" />
<glyph unicode="&#x153;" horiz-adv-x="833" d="M125 229q0 -33 6.5 -64t22 -56t41 -40t63.5 -15q37 0 63.5 15.5t43.5 40.5t24.5 57t7.5 64q0 31 -6.5 61.5t-22 55t-41 39.5t-63.5 15q-41 0 -67.5 -14.5t-42.5 -38.5t-22.5 -55t-6.5 -65zM721 269q0 26 -5 50t-18.5 42.5t-36 29.5t-56.5 11q-31 0 -55.5 -10.5t-41 -29 t-25.5 -42.5t-10 -51h248zM473 205q0 -29 9 -56.5t26 -48.5t42.5 -33.5t57.5 -12.5q45 0 77 21.5t35 70.5h76q0 -42 -15 -71.5t-40 -48.5t-58.5 -27.5t-71.5 -8.5q-61 0 -108 27t-68 81q-29 -57 -72 -82.5t-107 -25.5q-54 0 -94.5 18.5t-68.5 50.5t-42 75.5t-14 94.5 q0 50 14.5 93.5t42.5 75.5t70 50t96 18q28 0 55.5 -5.5t51.5 -17.5t42 -31.5t26 -46.5h2q19 50 65 75.5t105 25.5q63 0 101.5 -20.5t59.5 -55.5t28 -83t7 -102h-330z" />
<glyph unicode="&#x160;" d="M48 0v221h78q0 -77 42 -122t117 -45q24 0 48 7t44 22t32.5 38t12.5 55q0 25 -10.5 43t-31 31.5t-50.5 24t-68 21.5q-48 13 -88 28.5t-68.5 37t-44 51.5t-15.5 74q0 45 18 78.5t49 55t70.5 32.5t83.5 11q22 0 44 -4.5t42.5 -14t37 -23t27.5 -31.5h3v63h76v-216h-77 q3 79 -36.5 120.5t-116.5 41.5q-24 0 -46.5 -6.5t-40.5 -20t-29 -35t-11 -51.5q0 -41 44.5 -66.5t127.5 -50.5q47 -15 84.5 -30t64 -36t41 -51.5t14.5 -76.5q0 -45 -17 -79.5t-46.5 -58t-69.5 -36t-87 -12.5q-55 0 -98.5 20.5t-70.5 65.5h-3v-76h-76zM214 866l68 -92l69 92 h78l-103 -144h-95l-104 144h87z" />
<glyph unicode="&#x161;" horiz-adv-x="500" d="M54 0v159h64q1 -33 13.5 -53.5t33.5 -32t47.5 -15.5t54.5 -4q15 0 31.5 4t30.5 13t23 22.5t9 31.5q0 23 -11.5 35.5t-28.5 19t-37.5 8.5t-39.5 5q-32 5 -65 11t-60 19.5t-44 36.5t-17 63q0 36 16 63t41 45t56.5 26.5t63.5 8.5q45 0 82.5 -15t56.5 -50h2v55h64v-150h-64 q0 30 -10 48.5t-27 29t-39.5 14.5t-48.5 4q-18 0 -37.5 -3t-36 -11t-27 -21.5t-10.5 -35.5q0 -20 13 -30.5t33.5 -16.5t44.5 -9.5t46 -7.5q30 -5 61 -11.5t55.5 -20t40 -36.5t15.5 -62q0 -40 -16.5 -68t-43.5 -45.5t-61 -25.5t-69 -8q-20 0 -41.5 4t-40.5 13t-34 22.5 t-23 33.5h-2v-63h-64zM186 668l68 -92l69 92h78l-103 -144h-95l-104 144h87z" />
<glyph unicode="&#x178;" horiz-adv-x="667" d="M175 64h111v207l-216 319h-55v64h257v-64h-103l168 -247l173 247h-103v64h246v-64h-55l-224 -319v-207h111v-64h-310v64zM476 739h-94v100h94v-100zM192 839h94v-100h-94v100z" />
<glyph unicode="&#x17d;" horiz-adv-x="611" d="M39 0v86l429 504h-346v-137h-76v201h515v-82l-432 -508h366v140h76v-204h-532zM242 866l68 -92l69 92h78l-103 -144h-95l-104 144h87z" />
<glyph unicode="&#x17e;" horiz-adv-x="500" d="M49 64l299 328h-221v-89h-70v153h391v-64l-302 -328h237v99h70v-163h-404v64zM186 668l68 -92l69 92h78l-103 -144h-95l-104 144h87z" />
<glyph unicode="&#x192;" d="M173 456h94l12 67q5 27 14 52.5t25 45t39.5 31.5t58.5 12q20 0 38.5 -3.5t37.5 -8.5l-13 -61q-9 4 -19 6.5t-20 2.5q-34 0 -50.5 -19.5t-24.5 -60.5l-12 -64h103l-13 -64h-103l-70 -364q-8 -39 -15 -70.5t-20.5 -54.5t-37.5 -35.5t-65 -12.5q-13 0 -26.5 1t-28.5 4l12 62 q21 -3 35 -3q16 0 26 11.5t17 29.5t11.5 40t9.5 43l66 349h-94z" />
<glyph unicode="&#x2c6;" horiz-adv-x="278" d="M92 668h95l103 -144h-78l-69 92l-68 -92h-87z" />
<glyph unicode="&#x2c7;" horiz-adv-x="278" d="M75 668l68 -92l69 92h78l-103 -144h-95l-104 144h87z" />
<glyph unicode="&#x2d8;" horiz-adv-x="278" d="M42 677q0 -21 9 -36t24 -24t33.5 -13.5t37.5 -4.5t37.5 4.5t33.5 13.5t24 24t9 36h52q0 -36 -12 -62.5t-33 -44t-49.5 -26.5t-61.5 -9t-61.5 9t-49.5 26.5t-33 44t-12 62.5h52z" />
<glyph unicode="&#x2d9;" horiz-adv-x="278" d="M186 563h-94v100h94v-100z" />
<glyph unicode="&#x2da;" horiz-adv-x="278" d="M81 616q0 -24 17.5 -41t40.5 -17t40.5 17t17.5 41q0 25 -17.5 40.5t-40.5 17.5q-12 0 -22.5 -4.5t-19 -12.5t-13 -18.5t-3.5 -22.5zM37 616q0 21 8 39.5t21.5 32.5t32.5 22t40 8t39.5 -8t32.5 -22t22 -32.5t8 -39.5t-8 -40t-22 -32.5t-32.5 -21.5t-39.5 -8 q-43 0 -72.5 29.5t-29.5 72.5z" />
<glyph unicode="&#x2db;" horiz-adv-x="278" d="M264 -165q-17 -25 -42.5 -37t-51.5 -12q-12 0 -28.5 1.5t-31.5 9.5t-26 23.5t-11 44.5q0 43 29.5 75.5t74.5 59.5h55q-44 -35 -63.5 -64t-19.5 -61q0 -20 9.5 -32.5t27.5 -12.5q17 0 31 8.5t25 21.5z" />
<glyph unicode="&#x2dc;" horiz-adv-x="278" d="M-24 552q3 20 11 39.5t21 34.5t30.5 24.5t40.5 9.5q18 0 33.5 -4t30.5 -10l31 -12q13 -5 25 -9t26 -4q20 0 30.5 15t12.5 32h52q-2 -22 -10 -41.5t-21 -34.5t-30.5 -24t-36.5 -9q-17 0 -33 4.5t-33 10.5l-29 10q-15 5 -29 9.5t-23 4.5q-21 0 -32 -14t-16 -32h-51z" />
<glyph unicode="&#x2dd;" horiz-adv-x="278" d="M220 524h-64l86 144h109zM59 524h-64l86 144h110z" />
<glyph unicode="&#x3bc;" horiz-adv-x="611" d="M499 64h79v-64h-161v79h-2q-14 -42 -56.5 -65.5t-92.5 -23.5q-53 0 -84 17v-172h-82v557h-79v64h161v-283q0 -27 5 -49t17 -37.5t32 -24t51 -8.5q67 0 98.5 40t31.5 103v195h-79v64h161v-392z" />
<glyph unicode="&#x2013;" horiz-adv-x="500" d="M0 301h500v-64h-500v64z" />
<glyph unicode="&#x2014;" horiz-adv-x="1000" d="M0 301h1000v-64h-1000v64z" />
<glyph unicode="&#x2018;" horiz-adv-x="278" d="M189 424h-100v100l42 130h58l-43 -130h43v-100z" />
<glyph unicode="&#x2019;" horiz-adv-x="278" d="M89 654h100v-100l-42 -130h-58l43 130h-43v100z" />
<glyph unicode="&#x201a;" horiz-adv-x="278" d="M89 100h100v-100l-42 -130h-58l43 130h-43v100z" />
<glyph unicode="&#x201c;" d="M234 424h-100v100l42 130h58l-43 -130h43v-100zM422 424h-100v100l42 130h58l-43 -130h43v-100z" />
<glyph unicode="&#x201d;" d="M134 654h100v-100l-42 -130h-58l43 130h-43v100zM322 654h100v-100l-42 -130h-58l43 130h-43v100z" />
<glyph unicode="&#x201e;" d="M134 100h100v-100l-42 -130h-58l43 130h-43v100zM322 100h100v-100l-42 -130h-58l43 130h-43v100z" />
<glyph unicode="&#x2020;" d="M237 402h-168v70h168v182h82v-182h168v-70h-168v-402h-82v402z" />
<glyph unicode="&#x2021;" d="M237 153h-166v70h166v205h-166v70h166v156h82v-156h166v-70h-166v-205h166v-70h-166v-153h-82v153z" />
<glyph unicode="&#x2022;" horiz-adv-x="500" d="M86 327q0 34 13 64t35 52t51.5 35t63.5 13t63.5 -13t52 -35t35.5 -52t13 -64q0 -33 -13 -63t-35.5 -52t-52 -35t-63.5 -13t-63.5 13t-51.5 35t-35 52t-13 63z" />
<glyph unicode="&#x2026;" horiz-adv-x="1000" d="M783 100h100v-100h-100v100zM450 100h100v-100h-100v100zM117 100h100v-100h-100v100z" />
<glyph unicode="&#x2030;" horiz-adv-x="1000" d="M779 156q0 -20 2.5 -40t10.5 -36.5t21.5 -27t36.5 -10.5t37 10.5t21.5 27t9.5 36.5t2 40q0 16 -2 36t-9.5 37.5t-21.5 29t-37 11.5t-36.5 -11.5t-21.5 -29t-10.5 -37.5t-2.5 -36zM709 156q0 31 8 61t25 53t43.5 37.5t64.5 14.5q36 0 62 -14.5t43.5 -37.5t26 -53t8.5 -61 q0 -34 -8.5 -64t-26 -52.5t-43.5 -36t-62 -13.5q-38 0 -64.5 13.5t-43.5 36t-25 52.5t-8 64zM80 498q0 -20 2.5 -40t10.5 -36.5t21.5 -27t36.5 -10.5t37 10.5t21.5 27t9.5 36.5t2 40q0 16 -2 36t-9.5 37.5t-21.5 29t-37 11.5t-36.5 -11.5t-21.5 -29t-10.5 -37.5t-2.5 -36z M10 498q0 31 8 61t25 53t43.5 37.5t64.5 14.5q36 0 62 -14.5t43.5 -37.5t26 -53t8.5 -61q0 -34 -8.5 -64t-26 -52.5t-43.5 -36t-62 -13.5q-38 0 -64.5 13.5t-43.5 36t-25 52.5t-8 64zM486 672h64l-380 -690h-62zM436 156q0 -20 2.5 -40t10.5 -36.5t21.5 -27t36.5 -10.5 t37 10.5t21.5 27t9.5 36.5t2 40q0 16 -2 36t-9.5 37.5t-21.5 29t-37 11.5t-36.5 -11.5t-21.5 -29t-10.5 -37.5t-2.5 -36zM366 156q0 31 8 61t25 53t43.5 37.5t64.5 14.5q36 0 62 -14.5t43.5 -37.5t26 -53t8.5 -61q0 -34 -8.5 -64t-26 -52.5t-43.5 -36t-62 -13.5 q-38 0 -64.5 13.5t-43.5 36t-25 52.5t-8 64z" />
<glyph unicode="&#x2039;" horiz-adv-x="278" d="M142 428h76l-81 -198l78 -198h-73l-82 198z" />
<glyph unicode="&#x203a;" horiz-adv-x="278" d="M136 32h-76l81 198l-78 198h73l82 -198z" />
<glyph unicode="&#x2044;" horiz-adv-x="167" d="M257 672h60l-407 -690h-60z" />
<glyph unicode="&#x2122;" horiz-adv-x="990" d="M394 590h-127v-348h-76v348h-127v64h330v-64zM926 242h-76v336h-2l-129 -336h-50l-129 336h-2v-336h-76v412h115l118 -303l116 303h115v-412z" />
<glyph unicode="&#x2212;" horiz-adv-x="600" d="M47 215v76h506v-76h-506z" />
<glyph unicode="&#x25fc;" horiz-adv-x="455" d="M0 455h455v-455h-455v455z" />
</font>
</defs>
</svg>
