<?xml version="1.0" standalone="no"?>
<!DOCTYPE svg PUBLIC "-//W3C//DTD SVG 1.1//EN" "http://www.w3.org/Graphics/SVG/1.1/DTD/svg11.dtd" >
<svg xmlns="http://www.w3.org/2000/svg">
<metadata></metadata>
<defs>
<font id="serifa_std65_bold" horiz-adv-x="556" >
<font-face units-per-em="1000" ascent="654" descent="-346" />
<missing-glyph horiz-adv-x="278" />
<glyph unicode="fi" horiz-adv-x="612" d="M23 90h65v288h-65v90h65v41q0 48 18.5 81t51 53.5t76 29.5t94.5 9q38 0 72.5 -8t61 -26t43 -46.5t19.5 -68.5h-145q-5 32 -21 45.5t-52 13.5q-43 0 -64 -25t-21 -57v-42h303v-378h65v-90h-253v90h55v288h-170v-288h55v-90h-253v90z" />
<glyph unicode="fl" horiz-adv-x="612" d="M23 90h65v288h-65v90h65v41q0 48 18.5 81t51 53.5t76 29.5t94.5 9q42 0 94.5 -3.5t101.5 -8.5v-580h65v-90h-253v90h55v499q-25 2 -42.5 2.5t-42.5 0.5q-43 0 -64 -25t-21 -57v-42h85v-90h-85v-288h55v-90h-253v90z" />
<glyph unicode="&#xd;" horiz-adv-x="278" />
<glyph unicode=" "  horiz-adv-x="278" />
<glyph unicode="&#x09;" horiz-adv-x="278" />
<glyph unicode="&#xa0;" horiz-adv-x="278" />
<glyph unicode="!" horiz-adv-x="390" d="M122 133h146v-133h-146v133zM240 188h-90l-30 466h150z" />
<glyph unicode="&#x22;" d="M145 654h100v-276h-100v276zM411 378h-100v276h100v-276z" />
<glyph unicode="#" d="M220 268h99l17 118h-99zM129 188h-80l11 80h80l17 118h-80l11 80h80l26 188h80l-26 -188h99l26 188h80l-26 -188h80l-12 -80h-78l-18 -118h80l-11 -80h-80l-26 -188h-80l26 188h-99l-26 -188h-80z" />
<glyph unicode="$" d="M514 450h-120q-4 66 -32.5 97t-96.5 31q-42 0 -73 -19.5t-31 -65.5q0 -38 27.5 -57t68.5 -31t89 -23t89 -32.5t68.5 -60.5t27.5 -106q0 -45 -16 -81t-44 -61.5t-66 -39.5t-81 -15v-76h-95v86q-26 6 -48 20t-39 38h-2v-54h-115v220h120q0 -78 32.5 -111t107.5 -33 q18 0 37 5.5t35 16t26 26.5t10 36q0 50 -27 74t-67.5 37t-88 22t-88 27.5t-67.5 54.5t-27 103q0 46 15.5 81t42.5 58.5t63.5 36t79.5 14.5v78h95v-90q21 -7 39 -20t34 -35h2v53h115v-204z" />
<glyph unicode="%" horiz-adv-x="889" d="M651 674h84l-495 -694h-85zM168 496q0 -17 2.5 -35t9.5 -33t20 -24.5t35 -9.5q21 0 34 9.5t20.5 24.5t10 33t2.5 35q0 18 -2 36t-9 32.5t-20.5 24t-35.5 9.5t-35 -9.5t-20 -24.5t-9.5 -33t-2.5 -35zM73 496q0 78 40.5 125t121.5 47t121.5 -47t40.5 -125 q0 -38 -10.5 -69.5t-31 -54t-51 -35.5t-69.5 -13q-80 0 -121 48t-41 124zM587 158q0 -17 2.5 -35t9.5 -33t20 -24.5t35 -9.5q21 0 34 9.5t20.5 24.5t10 33t2.5 35q0 18 -2 36t-9 32.5t-20.5 24t-35.5 9.5t-35 -9.5t-20 -24.5t-9.5 -33t-2.5 -35zM492 158q0 78 40.5 125 t121.5 47t121.5 -47t40.5 -125q0 -38 -10.5 -69.5t-31 -54t-51 -35.5t-69.5 -13q-80 0 -121 48t-41 124z" />
<glyph unicode="&#x26;" horiz-adv-x="778" d="M297 578q-28 0 -45.5 -17t-17.5 -48q0 -26 17 -46t34 -41q12 6 26.5 15.5t27 21t21 24t8.5 26.5q0 32 -20 48.5t-51 16.5zM256 291q-33 -20 -55.5 -42.5t-22.5 -66.5q0 -25 9.5 -45t26 -33.5t38 -20.5t45.5 -7q35 0 64.5 13t57.5 35zM730 301h-73q-5 -48 -25 -91.5 t-53 -78.5l34 -36h117v-95h-190l-50 49q-25 -21 -51.5 -33.5t-54 -19t-55.5 -8.5t-56 -2q-47 0 -89 11.5t-74 35.5t-51 61t-19 89q0 75 33.5 120t99.5 74q-28 29 -45.5 60t-18.5 73q0 43 17.5 73t45.5 49t64 27.5t74 8.5t71.5 -9t58 -28.5t39 -49.5t14.5 -72 q0 -30 -10.5 -54t-28 -44t-40 -36t-47.5 -29l136 -137q16 20 27.5 43t13.5 49h-56v95h242v-95z" />
<glyph unicode="'" horiz-adv-x="278" d="M89 654h100v-276h-100v276z" />
<glyph unicode="(" horiz-adv-x="333" d="M306 722q-32 -53 -55.5 -104.5t-38.5 -104t-22.5 -108t-7.5 -116.5q0 -105 30.5 -213.5t93.5 -195.5h-100q-60 91 -99.5 195t-39.5 214q0 115 39 225t100 208h100z" />
<glyph unicode=")" horiz-adv-x="333" d="M27 -120q32 53 55.5 104.5t38.5 104t22.5 108t7.5 116.5q0 105 -30.5 213.5t-93.5 195.5h100q60 -91 99.5 -195t39.5 -214q0 -115 -39 -225t-100 -208h-100z" />
<glyph unicode="*" d="M105 495l28 90l109 -46l-10 115h96l-12 -115l105 46l30 -90l-115 -27l78 -84l-76 -56l-61 97l-61 -97l-75 56l78 84z" />
<glyph unicode="+" horiz-adv-x="600" d="M47 303h203v203h100v-203h203v-100h-203v-203h-100v203h-203v100z" />
<glyph unicode="," horiz-adv-x="278" d="M66 146h146v-146l-50 -130h-90l50 130h-56v146z" />
<glyph unicode="-" horiz-adv-x="333" d="M49 319h235v-100h-235v100z" />
<glyph unicode="." horiz-adv-x="278" d="M66 146h146v-146h-146v146z" />
<glyph unicode="/" horiz-adv-x="389" d="M271 668h100l-253 -682h-100z" />
<glyph unicode="0" d="M37 327q0 61 10.5 122t37.5 109.5t74 79t119 30.5t119 -30.5t74 -79t37.5 -109.5t10.5 -122t-10.5 -122t-37.5 -109.5t-74 -79t-119 -30.5t-119 30.5t-74 79t-37.5 109.5t-10.5 122zM175 327q0 -50 3.5 -94.5t14.5 -78.5t31 -53.5t54 -19.5t54 19.5t31 53.5t14.5 78.5 t3.5 94.5t-3.5 94.5t-14.5 78.5t-31 53.5t-54 19.5t-54 -19.5t-31 -53.5t-14.5 -78.5t-3.5 -94.5z" />
<glyph unicode="1" d="M148 95h100v441q-33 -30 -69.5 -56t-74.5 -51v125q38 24 72 48.5t67 51.5h138v-559h100v-95h-333v95z" />
<glyph unicode="2" d="M35 127q32 29 83 71t103 91q28 25 53.5 50.5t44.5 51t30 50.5t10 50q0 37 -24 59.5t-61 22.5q-27 0 -44.5 -10t-28 -26.5t-15 -37.5t-5.5 -44h-138q1 65 20.5 106.5t52 65t76.5 32.5t95 9q45 0 83.5 -12t66.5 -36t44 -60.5t16 -84.5q1 -34 -16.5 -70t-45.5 -71.5 t-63.5 -69.5t-71 -65t-66.5 -57.5t-51 -46.5h204v85h120v-180h-472v127z" />
<glyph unicode="3" d="M228 386q27 -2 51.5 1t44 14t31 30.5t11.5 51.5q0 47 -25 68.5t-69 21.5q-47 0 -67.5 -30.5t-21.5 -73.5h-138q-1 52 18 89.5t52 62t76 36t89 11.5q45 0 86 -10t71.5 -31.5t48.5 -56.5t18 -85q0 -64 -36 -102.5t-100 -44.5v-2q62 -5 102 -46t40 -107q0 -50 -18 -87 t-50.5 -61.5t-77 -36.5t-97.5 -12q-47 0 -88.5 9.5t-73 33t-50 62t-18.5 96.5h138q-1 -48 21.5 -77t72.5 -29q47 0 75 26.5t28 73.5q0 37 -11.5 58t-31 31.5t-46 13t-55.5 2.5v100z" />
<glyph unicode="4" d="M229 95h90v66h-298v123l271 370h160v-398h80v-95h-80v-66h75v-95h-298v95zM319 522h-2l-194 -266h196v266z" />
<glyph unicode="5" d="M488 559h-292v-178h2q24 32 58 46t75 14q48 0 84 -18.5t59 -50t34.5 -72t11.5 -85.5q0 -41 -11.5 -82t-39 -73.5t-74.5 -53t-119 -20.5q-43 0 -83 11t-70 33.5t-48 57.5t-17 82h138q3 -44 24 -66.5t66 -22.5q27 0 45.5 11t29.5 29t16 41.5t5 49.5q0 25 -5 49t-16 43 t-30 30.5t-47 11.5q-38 0 -63 -25.5t-25 -63.5h-133v397h425v-95z" />
<glyph unicode="6" d="M371 495q-1 40 -20 61.5t-57 21.5t-60.5 -23t-34.5 -56t-16 -70.5t-6 -65.5h2q29 39 63 54t86 15q46 0 81 -19t59 -50.5t36.5 -71.5t12.5 -83q0 -59 -17.5 -101t-49 -69t-76 -39.5t-99.5 -12.5q-74 0 -120 25t-72 68.5t-35 101.5t-9 125q0 69 11 134t40 116t79.5 81.5 t130.5 30.5q90 0 146 -41t63 -132h-138zM384 216q0 25 -5.5 48t-17.5 40t-31.5 27.5t-47.5 10.5q-29 0 -48.5 -11.5t-32.5 -30.5t-18.5 -42t-5.5 -46q0 -25 5 -49.5t17 -43.5t32.5 -31t52.5 -12q28 0 47 13t31 33.5t17 45t5 48.5z" />
<glyph unicode="7" d="M515 544q-36 -68 -68 -134.5t-60.5 -133t-55 -135.5t-51.5 -141h-146q57 143 120 283t138 276h-226v-115h-120v210h469v-110z" />
<glyph unicode="8" d="M177 185q0 -51 25.5 -80t76.5 -29q49 0 74.5 30.5t25.5 78.5t-25 77.5t-75 29.5q-51 0 -76.5 -29t-25.5 -78zM57 479q0 49 17.5 85t47.5 59t70.5 34t86.5 11t86.5 -11t70.5 -34t47.5 -59t17.5 -85q0 -63 -35 -96.5t-94 -44.5v-1q63 -11 101.5 -49t38.5 -105 q0 -55 -17 -92.5t-48 -61t-74 -33.5t-94 -10q-52 0 -95.5 9t-74.5 31.5t-48 60.5t-17 96q0 30 11 57t29.5 47.5t44 33.5t54.5 16v2q-59 11 -92.5 44.5t-33.5 95.5zM182 479q0 -97 97 -97t97 97q0 99 -97 99t-97 -99z" />
<glyph unicode="9" d="M185 159q1 -40 20 -61.5t57 -21.5t60.5 23t34.5 56t16 70t6 66h-2q-29 -39 -63 -54t-86 -15q-46 0 -81 19t-59 50.5t-36.5 71.5t-12.5 83q0 58 17.5 100t49 69t76 40t99.5 13q74 0 120 -25t72 -68.5t35 -101.5t9 -125q0 -69 -11 -134t-40 -116t-80 -81.5t-130 -30.5 q-90 0 -146 40.5t-63 132.5h138zM172 438q0 -25 5.5 -48t17.5 -40t31.5 -27.5t47.5 -10.5t48 11.5t33 30.5t18.5 42t5.5 46q0 25 -5 49.5t-17 43.5t-32.5 31t-52.5 12q-28 0 -47 -13t-31 -33.5t-17 -45t-5 -48.5z" />
<glyph unicode=":" horiz-adv-x="278" d="M212 322h-146v146h146v-146zM66 0v146h146v-146h-146z" />
<glyph unicode=";" horiz-adv-x="278" d="M212 322h-146v146h146v-146zM66 146h146v-146l-50 -130h-90l50 130h-56v146z" />
<glyph unicode="&#x3c;" horiz-adv-x="600" d="M545 406l-352 -153l352 -153v-100l-490 211v84l490 211v-100z" />
<glyph unicode="=" horiz-adv-x="600" d="M47 194h506v-100h-506v100zM47 412h506v-100h-506v100z" />
<glyph unicode="&#x3e;" horiz-adv-x="600" d="M55 100l352 153l-352 153v100l490 -211v-84l-490 -211v100z" />
<glyph unicode="?" horiz-adv-x="500" d="M167 133h146v-133h-146v133zM178 223q0 22 1.5 40t8.5 36t20 36.5t36 42.5q21 21 36.5 37t26 30.5t15.5 29.5t5 35q0 32 -19.5 50t-53.5 18q-26 0 -41 -8t-23.5 -22.5t-12 -34.5t-4.5 -45h-138q0 108 57.5 154t164.5 46q40 0 78 -10.5t66.5 -31.5t46 -53t17.5 -74 q0 -27 -7 -48.5t-18.5 -39.5t-26 -33t-29.5 -29t-30 -28.5t-26 -31t-18 -36t-7 -43.5v-22h-125v35z" />
<glyph unicode="@" horiz-adv-x="800" d="M601 495l-51 -231q-2 -8 -4.5 -17.5t-2.5 -18t3 -14.5t11 -6q19 0 37.5 11t33.5 31.5t24 50.5t9 68q0 56 -19 98.5t-52 71.5t-78.5 44t-98.5 15q-59 0 -107 -20.5t-82 -57t-52 -86.5t-18 -109q0 -61 20 -110.5t56 -85t86 -54.5t110 -19q56 0 104.5 19.5t83.5 54.5h80 q-48 -69 -118 -106.5t-155 -37.5q-73 0 -137 25.5t-112 71t-75.5 108t-27.5 136.5q0 73 27.5 135t74.5 108t110 72t134 26q61 0 118 -19.5t101 -56t70.5 -87.5t26.5 -114q0 -73 -27 -123.5t-64 -81.5t-76 -44.5t-62 -13.5q-20 0 -35 12t-15 36h-2q-18 -20 -43.5 -34 t-51.5 -14q-29 0 -55.5 12.5t-46.5 33.5t-31.5 49t-11.5 60q0 42 14 82.5t39 72t60.5 51t79.5 19.5q70 0 108 -61l12 48h78zM412 423q-26 0 -46.5 -11t-35 -29t-22.5 -40.5t-8 -45.5q0 -38 20 -61t58 -23q24 0 43 11t33 29.5t21.5 41.5t7.5 47q0 37 -19.5 59t-51.5 22z" />
<glyph unicode="A" horiz-adv-x="778" d="M481 295l-98 251l-100 -251h198zM19 95h55l231 559h170l229 -559h55v-95h-281v95h82l-43 105h-271l-41 -105h82v-95h-268v95z" />
<glyph unicode="B" horiz-adv-x="667" d="M28 95h82v464h-82v95h314q45 0 91 -3t83.5 -18t61 -47.5t23.5 -91.5q0 -132 -134 -149v-2q31 -1 59 -12.5t49 -32t33.5 -47.5t12.5 -60q0 -74 -30 -113t-74 -56.5t-93 -19.5t-88 -2h-308v95zM248 381h79q25 0 49 3.5t43.5 13.5t31.5 28.5t12 48.5t-12 46.5t-31 25 t-42.5 10.5t-46.5 2h-83v-178zM248 95h92q32 0 58.5 3.5t45 14.5t29 31t10.5 53q0 35 -12.5 54t-32.5 28t-45.5 10.5t-51.5 1.5h-93v-196z" />
<glyph unicode="C" horiz-adv-x="722" d="M670 412h-125q-1 75 -46.5 118t-118.5 43q-55 0 -91.5 -22.5t-58.5 -59.5t-31 -84t-9 -96q0 -47 11.5 -89t36 -73.5t62.5 -49.5t90 -18q30 0 57 10.5t47 29.5t32 46t13 59h133q-1 -69 -28 -115t-68.5 -73.5t-92 -39.5t-98.5 -12q-86 0 -150 26t-106.5 71t-63.5 106.5 t-21 132.5q0 75 19.5 138.5t58.5 109.5t97.5 72t136.5 26q59 0 106.5 -19t80.5 -69l2 -2v76h125v-242z" />
<glyph unicode="D" horiz-adv-x="778" d="M248 95h111q107 0 160.5 62.5t53.5 169.5q0 106 -52.5 169t-161.5 63h-111v-464zM28 95h82v464h-82v95h357q16 0 47 -2t68.5 -12t76 -30.5t70.5 -56.5t52 -91t20 -134q0 -82 -25 -143.5t-70.5 -102.5t-110.5 -61.5t-144 -20.5h-341v95z" />
<glyph unicode="E" horiz-adv-x="667" d="M28 95h82v464h-82v95h594v-196h-115v101h-259v-178h99v89h105v-267h-105v88h-99v-196h259v119h115v-214h-594v95z" />
<glyph unicode="F" horiz-adv-x="667" d="M622 654v-219h-115v124h-259v-191h92v87h105v-267h-105v90h-92v-183h97v-95h-317v95h82v464h-82v95h594z" />
<glyph unicode="G" horiz-adv-x="778" d="M682 424h-125q-2 38 -16 66t-37.5 46.5t-55 27.5t-68.5 9q-55 0 -91.5 -22.5t-58.5 -59.5t-31 -84t-9 -96q0 -47 11.5 -89t36 -73.5t62.5 -49.5t90 -18q35 0 65 11t52.5 31t35.5 49.5t14 67.5h-99v95h295v-95h-65v-240h-125v74h-2q-27 -47 -76 -67.5t-100 -20.5 q-86 0 -150 26t-106.5 71t-63.5 106.5t-21 132.5q0 75 19.5 138.5t58.5 109.5t97.5 72t136.5 26q63 0 115 -18t84 -60h2v64h125v-230z" />
<glyph unicode="H" horiz-adv-x="778" d="M28 95h82v464h-82v95h315v-95h-95v-178h282v178h-95v95h315v-95h-82v-464h82v-95h-315v95h95v191h-282v-191h95v-95h-315v95z" />
<glyph unicode="I" horiz-adv-x="388" d="M43 95h82v464h-82v95h302v-95h-82v-464h82v-95h-302v95z" />
<glyph unicode="J" d="M528 559h-75v-361q0 -33 -5.5 -70.5t-27.5 -69t-66.5 -52t-123.5 -20.5q-59 0 -97.5 15t-60.5 42.5t-30.5 66.5t-8.5 86v23h138v-20q0 -21 2 -42.5t9.5 -38t23 -27t42.5 -10.5q29 0 48 23.5t19 71.5v383h-105v95h318v-95z" />
<glyph unicode="K" horiz-adv-x="723" d="M28 95h82v464h-82v95h302v-95h-82v-207l206 207h-60v95h283v-95h-60l-210 -212l228 -252h60v-95h-307v95h75l-215 239v-239h82v-95h-302v95z" />
<glyph unicode="L" horiz-adv-x="611" d="M28 95h82v464h-82v95h325v-95h-105v-464h215v135h120v-230h-555v95z" />
<glyph unicode="M" horiz-adv-x="944" d="M29 95h82v464h-82v95h304l138 -485h2l136 485h306v-95h-82v-464h82v-95h-290v95h75v464h-2l-164 -559h-142l-164 559h-2v-464h75v-95h-272v95z" />
<glyph unicode="N" horiz-adv-x="779" d="M20 95h82v464h-82v95h278l252 -486h2v391h-82v95h289v-95h-82v-559h-182l-266 505h-2v-410h82v-95h-289v95z" />
<glyph unicode="O" horiz-adv-x="778" d="M389 81q53 0 90.5 18.5t61.5 51.5t35.5 78t11.5 98q0 52 -11.5 97t-35.5 78t-61.5 52t-90.5 19t-90.5 -19t-61.5 -52t-35.5 -78t-11.5 -97q0 -53 11.5 -98t35.5 -78t61.5 -51.5t90.5 -18.5zM389 -14q-83 0 -147 25.5t-108 71t-67 108t-23 136.5t23 136.5t67 108t108 71 t147 25.5t147 -25.5t108 -71t67 -108t23 -136.5t-23 -136.5t-67 -108t-108 -71t-147 -25.5z" />
<glyph unicode="P" horiz-adv-x="667" d="M256 339h74q29 0 55.5 3.5t46.5 15t32 33t12 56.5q0 42 -13 65t-34.5 33.5t-48.5 12t-55 1.5h-69v-220zM28 95h90v464h-90v95h353q39 0 80 -6t75 -26.5t56 -60.5t22 -107q0 -63 -18 -103.5t-49 -64.5t-74 -33t-92 -9h-125v-149h105v-95h-333v95z" />
<glyph unicode="Q" horiz-adv-x="778" d="M190 327q0 -53 11.5 -98t35.5 -78t61.5 -51.5t90.5 -18.5t90.5 18.5t61.5 51.5t35.5 78t11.5 98q0 52 -11.5 97t-35.5 78t-61.5 52t-90.5 19t-90.5 -19t-61.5 -52t-35.5 -78t-11.5 -97zM762 95v-95h-246q-17 0 -33 -2t-32 -5q-16 -2 -31.5 -4.5t-30.5 -2.5 q-83 0 -147 25.5t-108 71t-67 108t-23 136.5t23 136.5t67 108t108 71t147 25.5t147 -25.5t108 -71t67 -108t23 -136.5q0 -27 -7 -61.5t-23.5 -68t-45.5 -62.5t-72 -47v-1q14 6 24.5 7t25.5 1h126z" />
<glyph unicode="R" horiz-adv-x="722" d="M256 366h106q22 0 45 4t42.5 14.5t32 30t12.5 50.5q0 29 -9.5 47.5t-25 29t-35.5 14t-42 3.5h-126v-193zM28 95h90v464h-90v95h374q44 0 84.5 -5.5t72 -24.5t50 -55.5t18.5 -99.5q0 -33 -11.5 -60t-31.5 -46.5t-47.5 -31t-59.5 -14.5v-2q33 -2 54.5 -14.5t36.5 -32 t24.5 -44t17.5 -50.5l24 -79h65v-95h-181l-54 182q-6 19 -13.5 35.5t-19.5 28.5t-29.5 18.5t-42.5 6.5h-103v-176h82v-95h-310v95z" />
<glyph unicode="S" horiz-adv-x="612" d="M53 220h120q0 -77 33 -111q33 -33 107 -33q18 0 37 5.5t35 16t26 26.5t10 36q0 50 -27 74t-67.5 37t-88 22t-88 27.5t-67.5 54.5t-27 103q0 48 16.5 83.5t45 59t67 35.5t83.5 12q48 0 87.5 -13t69.5 -54h2v53h115v-204h-120q-3 67 -33 97q-30 31 -96 31q-42 0 -73 -19.5 t-31 -65.5q0 -38 27.5 -57t68.5 -31t89 -23t89 -32.5t68.5 -60.5t27.5 -106q0 -46 -16.5 -82.5t-45.5 -62t-67.5 -39t-83.5 -13.5q-26 0 -50.5 2t-47 9.5t-42.5 20.5t-36 36h-2v-54h-115v220z" />
<glyph unicode="T" horiz-adv-x="666" d="M631 654v-226h-115v131h-114v-464h95v-95h-328v95h95v464h-114v-131h-115v226h596z" />
<glyph unicode="U" horiz-adv-x="722" d="M706 559h-70v-332q0 -50 -20 -94t-55.5 -76.5t-85 -51.5t-108.5 -19q-61 0 -105.5 12t-76 32.5t-50.5 46t-30 52t-15 52.5t-4 46v332h-70v95h298v-95h-90v-286q0 -21 1.5 -53.5t14 -63.5t42 -53t85.5 -22q60 0 90 23t42 54t12 63.5v51.5v286h-90v95h285v-95z" />
<glyph unicode="V" horiz-adv-x="778" d="M759 559h-60l-231 -559h-161l-228 559h-60v95h299v-95h-90l166 -424l165 424h-90v95h290v-95z" />
<glyph unicode="W" horiz-adv-x="999" d="M978 559h-45l-138 -559h-172l-123 516h-2l-128 -516h-172l-132 559h-45v95h272v-95h-90l86 -413h2l127 508h178l120 -508h2l93 413h-90v95h257v-95z" />
<glyph unicode="X" horiz-adv-x="722" d="M17 95h45l213 241l-201 223h-45v95h294v-95h-75l120 -140l124 140h-75v95h276v-95h-45l-202 -223l214 -241h45v-95h-302v95h85l-135 157l-136 -157h85v-95h-285v95z" />
<glyph unicode="Y" horiz-adv-x="723" d="M197 95h95v139l-221 325h-55v95h302v-95h-85l135 -206l136 206h-85v95h288v-95h-55l-222 -325v-139h95v-95h-328v95z" />
<glyph unicode="Z" horiz-adv-x="668" d="M44 122l403 437h-277v-120h-115v215h558v-120l-408 -439h304v132h115v-227h-580v122z" />
<glyph unicode="[" horiz-adv-x="333" d="M292 647h-105v-692h105v-75h-210v842h210v-75z" />
<glyph unicode="\" horiz-adv-x="389" d="M18 668h100l253 -682h-100z" />
<glyph unicode="]" horiz-adv-x="333" d="M41 -45h105v692h-105v75h210v-842h-210v75z" />
<glyph unicode="^" horiz-adv-x="600" d="M346 654l176 -366h-95l-126 266l-128 -266h-95l178 366h90z" />
<glyph unicode="_" horiz-adv-x="500" d="M0 -75h500v-50h-500v50z" />
<glyph unicode="`" horiz-adv-x="278" d="M207 530h-85l-135 145h138z" />
<glyph unicode="a" d="M291 214q-26 0 -49 -2.5t-41 -10.5t-28.5 -22.5t-10.5 -38.5q0 -33 20 -48.5t51 -15.5q59 0 91 39t31 99h-64zM357 68h-2q-31 -47 -66.5 -64.5t-88.5 -17.5q-33 0 -62.5 9.5t-52 28t-35.5 46.5t-13 66q0 58 26 90t65.5 47t87.5 18t92 3h47v36q0 41 -26.5 56.5t-63.5 15.5 q-39 0 -62 -17.5t-26 -58.5h-125q3 50 23.5 81t52 47.5t71.5 22t81 5.5q57 0 95 -12t61.5 -37t33.5 -64t10 -92v-187h60v-90h-183v68z" />
<glyph unicode="b" horiz-adv-x="611" d="M28 90h65v488h-65v90h198v-268l2 2q20 38 59 59t86 21q46 0 84.5 -15.5t66.5 -47.5t43.5 -80t15.5 -112q0 -47 -12.5 -90.5t-37.5 -77t-63 -53.5t-89 -20q-61 0 -98.5 20.5t-66.5 71.5h-2v-78h-186v90zM346 81q43 0 71 38.5t28 114.5q0 29 -5.5 56.5t-18 49t-34 34.5 t-53.5 13q-31 0 -53 -12t-36 -32t-20.5 -46.5t-6.5 -55.5q0 -37 6 -66.5t20.5 -50.5t39 -32t62.5 -11z" />
<glyph unicode="c" horiz-adv-x="500" d="M471 287h-105q-2 51 -23 77q-23 28 -73 28q-31 0 -51 -14t-32 -36.5t-16.5 -50t-4.5 -55.5q0 -29 4.5 -56.5t16.5 -49.5t32.5 -35.5t53.5 -13.5q35 0 59.5 22t27.5 60h120q-4 -45 -21.5 -78t-45.5 -55t-64.5 -33t-76.5 -11q-69 0 -116 22.5t-75.5 57.5t-40.5 77t-12 81 q0 55 12 102t37.5 81.5t66.5 54.5t98 20q39 0 73 -17.5t54 -50.5h2v54h100v-181z" />
<glyph unicode="d" horiz-adv-x="611" d="M265 81q37 0 62 11t39.5 32t20.5 50.5t6 66.5q0 29 -6.5 55.5t-20.5 46.5t-36 32t-53 12q-32 0 -53.5 -13t-34 -34.5t-18 -49t-5.5 -56.5q0 -76 28 -114.5t71 -38.5zM518 90h65v-90h-185v78h-2q-16 -25 -32 -42.5t-35.5 -28.5t-43.5 -16t-55 -5q-51 0 -89 20t-63 53.5 t-37.5 77t-12.5 90.5q0 64 15.5 112t43.5 80t66.5 47.5t84.5 15.5q60 0 94 -24.5t51 -58.5h2v179h-65v90h198v-578z" />
<glyph unicode="e" d="M177 196q0 -56 30.5 -88t86.5 -32q35 0 58.5 15.5t33.5 53.5h125q-8 -42 -28.5 -72.5t-50 -49.5t-66 -28t-76.5 -9q-123 0 -187 68.5t-64 185.5q0 55 18 100t50.5 76.5t78 48.5t101.5 17q42 0 79.5 -12t67 -35t49.5 -56.5t28 -76.5q5 -28 5.5 -54.5t0.5 -51.5h-340z M384 281q0 51 -25.5 81t-77.5 30q-51 0 -77.5 -31.5t-26.5 -79.5h207z" />
<glyph unicode="f" horiz-adv-x="389" d="M43 90h85v288h-85v90h85v52q0 28 7.5 57t28 52t56 38t92.5 15q22 0 44.5 -3t44.5 -6v-99q-11 3 -22.5 5.5t-24.5 2.5q-20 0 -37 -2t-29.5 -10t-19.5 -23t-7 -42v-37h105v-90h-105v-288h85v-90h-303v90z" />
<glyph unicode="g" horiz-adv-x="611" d="M166 239q0 -27 7 -52t21.5 -43.5t35.5 -30t49 -11.5q31 0 52.5 11.5t35 31t20 45t6.5 54.5q0 27 -6 52.5t-19 45t-34.5 31.5t-52.5 12q-32 0 -53.5 -12.5t-35.5 -33t-20 -46.5t-6 -54zM583 378h-65v-335q0 -45 -12.5 -86t-41 -72.5t-76.5 -50t-118 -18.5 q-104 0 -158.5 35.5t-59.5 119.5h145q2 -21 9.5 -34t19.5 -20t27 -9t31 -2q22 0 40.5 10t32 26t21 37t7.5 43v53q-17 -18 -32 -31t-32.5 -21t-40 -12t-52.5 -4q-47 0 -84.5 18.5t-63 50t-39 72.5t-13.5 86q0 52 12 97t38 78t66.5 52t97.5 19t93 -23.5t60 -60.5h2v72h186v-90 z" />
<glyph unicode="h" horiz-adv-x="611" d="M16 90h65v488h-65v90h198v-268h2q23 44 61 63t86 19q167 0 167 -171v-221h65v-90h-258v90h60v200q0 30 -7 49t-18 29.5t-24 14.5t-25 4q-29 0 -50 -12.5t-34 -30.5t-19 -38t-6 -34v-182h60v-90h-258v90z" />
<glyph unicode="i" horiz-adv-x="333" d="M233 535h-138v133h138v-133zM35 90h65v288h-65v90h198v-378h65v-90h-263v90z" />
<glyph unicode="j" horiz-adv-x="278" d="M214 535h-138v133h138v-133zM214 -11q0 -44 -6 -76.5t-22.5 -54t-44.5 -32t-72 -10.5q-17 0 -34.5 2.5t-34.5 4.5v88q47 -4 64 13t17 67v387h-65v90h198v-479z" />
<glyph unicode="k" horiz-adv-x="612" d="M24 90h65v488h-65v90h198v-399l138 107v2h-63v90h265v-90h-50l-113 -84l134 -204h55v-90h-254v90h55l-83 129l-84 -66v-63h55v-90h-253v90z" />
<glyph unicode="l" horiz-adv-x="333" d="M35 90h65v488h-65v90h198v-578h65v-90h-263v90z" />
<glyph unicode="m" horiz-adv-x="945" d="M25 90h65v288h-65v90h186v-79h2q24 45 66 69t93 24q54 0 92 -18.5t64 -68.5q24 45 62.5 66t88.5 21q39 0 70.5 -8.5t55 -26.5t36.5 -47t14 -70v-240h65v-90h-258v90h60v203q0 19 -4 36t-13.5 30t-25 20.5t-37.5 7.5q-27 0 -46.5 -10t-32 -27t-18.5 -38.5t-6 -45.5v-176 h60v-90h-253v90h60v203q0 36 -20.5 65t-61.5 29q-27 0 -46 -11.5t-31.5 -29.5t-18 -40.5t-5.5 -44.5v-171h60v-90h-258v90z" />
<glyph unicode="n" horiz-adv-x="668" d="M45 90h65v288h-65v90h186v-79h2q24 45 66 69t93 24q46 0 78 -12t52 -35.5t28.5 -58t8.5 -78.5v-208h65v-90h-258v90h60v203q0 36 -20.5 65t-61.5 29q-27 0 -46 -11.5t-31.5 -29.5t-18 -40.5t-5.5 -44.5v-171h60v-90h-258v90z" />
<glyph unicode="o" d="M278 482q55 0 101 -17t79 -48.5t51.5 -78t18.5 -104.5q0 -59 -18.5 -105t-51.5 -77.5t-79 -48.5t-101 -17t-101 17t-79 48.5t-51.5 77.5t-18.5 105q0 58 18.5 104.5t51.5 78t79 48.5t101 17zM166 234q0 -28 5.5 -55.5t18.5 -49t34.5 -35t53.5 -13.5t53.5 13.5t34.5 35 t18.5 49t5.5 55.5t-5.5 55t-18.5 49t-34.5 35.5t-53.5 13.5t-53.5 -13.5t-34.5 -35.5t-18.5 -49t-5.5 -55z" />
<glyph unicode="p" horiz-adv-x="611" d="M28 -80h65v458h-65v90h186v-83h2q29 51 67 74t90 23q46 0 84.5 -15.5t66.5 -47.5t43.5 -80t15.5 -112q0 -47 -12.5 -90.5t-37.5 -77t-63 -53.5t-89 -20q-26 0 -47.5 3.5t-39.5 12.5t-34 24.5t-32 38.5h-2v-145h72v-90h-270v90zM346 81q43 0 71 38.5t28 114.5 q0 29 -5.5 56.5t-18 49t-34 34.5t-53.5 13q-31 0 -53 -12t-36 -32t-20.5 -46.5t-6.5 -55.5q0 -37 6 -66.5t20.5 -50.5t39 -32t62.5 -11z" />
<glyph unicode="q" horiz-adv-x="611" d="M583 -170h-270v90h72v145h-2q-16 -23 -32 -38.5t-34 -24.5t-39.5 -12.5t-47.5 -3.5q-51 0 -89 20t-63 53.5t-37.5 77t-12.5 90.5q0 64 15.5 112t43.5 80t66.5 47.5t84.5 15.5q52 0 90 -23t67 -74h2v83h186v-90h-65v-458h65v-90zM265 81q37 0 62 11t39.5 32t20.5 50.5 t6 66.5q0 29 -6.5 55.5t-20.5 46.5t-36 32t-53 12q-32 0 -53.5 -13t-34 -34.5t-18 -49t-5.5 -56.5q0 -76 28 -114.5t71 -38.5z" />
<glyph unicode="r" horiz-adv-x="444" d="M45 90h65v288h-65v90h189v-91h2q21 45 56.5 75t87.5 30q30 0 57 -6v-109q-14 4 -29.5 4.5t-30.5 0.5q-33 0 -57.5 -11.5t-41 -31t-25 -46.5t-10.5 -57v-136h80v-90h-278v90z" />
<glyph unicode="s" horiz-adv-x="500" d="M47 165h105q0 -44 29.5 -66.5t70.5 -22.5q11 0 23 2t22.5 8t17.5 16.5t7 27.5q0 24 -20.5 34.5t-51.5 16.5t-66.5 11.5t-66.5 20.5t-51.5 44t-20.5 81q0 37 14.5 64t38 45t53.5 26.5t62 8.5q41 0 72 -13.5t54 -49.5h2v49h100v-155h-105q0 42 -24.5 60.5t-61.5 18.5 q-10 0 -22.5 -1.5t-23.5 -7t-18.5 -15.5t-7.5 -26q0 -24 20.5 -34t51.5 -16t66.5 -11.5t66.5 -20.5t51.5 -44t20.5 -80q0 -31 -12 -58.5t-33.5 -47.5t-52.5 -32t-69 -12q-53 0 -86 17.5t-53 46.5h-2v-50h-100v165z" />
<glyph unicode="t" horiz-adv-x="389" d="M343 378h-125v-226q0 -13 0.5 -25.5t4.5 -22.5t11.5 -16.5t22.5 -6.5q14 0 22 8t12 19t5 22.5t1 19.5h80q3 -80 -30 -122t-117 -42q-33 0 -60 11t-46 29.5t-29 43t-10 50.5v258h-75v90h75v91l133 47v-138h125v-90z" />
<glyph unicode="u" horiz-adv-x="611" d="M530 90h65v-90h-186v79h-2q-24 -45 -66 -69t-93 -24q-93 0 -130 47.5t-37 136.5v208h-65v90h198v-293q0 -36 20.5 -65t61.5 -29q27 0 46 11t31.5 29t18 40.5t5.5 45.5v171h-60v90h193v-378z" />
<glyph unicode="v" horiz-adv-x="612" d="M595 378h-50l-160 -378h-160l-158 378h-50v90h262v-90h-70l102 -269l104 269h-70v90h250v-90z" />
<glyph unicode="w" horiz-adv-x="889" d="M875 378h-45l-117 -378h-175l-92 375h-2l-96 -375h-175l-114 378h-45v90h244v-90h-65l71 -273h2l92 363h185l92 -363h2l71 273h-65v90h232v-90z" />
<glyph unicode="x" horiz-adv-x="612" d="M28 90h45l148 152l-134 136h-45v90h243v-90h-45l76 -81l74 81h-45v90h228v-90h-45l-136 -135l147 -153h45v-90h-257v90h60l-91 95l-89 -95h60v-90h-239v90z" />
<glyph unicode="y" horiz-adv-x="611" d="M596 378h-45l-223 -455q-13 -29 -27 -49.5t-32.5 -33t-42 -18.5t-56.5 -6q-20 0 -38.5 2t-37.5 5v95q15 -2 31.5 -4.5t38.5 -2.5q29 0 47.5 25.5t29.5 60.5l-181 381h-45v90h262v-90h-70l103 -239l107 239h-70v90h249v-90z" />
<glyph unicode="z" horiz-adv-x="557" d="M55 105l274 273h-158v-70h-110v160h435v-100l-277 -278h173v80h110v-170h-447v105z" />
<glyph unicode="{" horiz-adv-x="333" d="M323 647h-56q-18 0 -28.5 -7t-16.5 -17.5t-7.5 -23.5t-1.5 -25v-154q0 -37 -11 -59.5t-27 -35t-32.5 -17.5t-26.5 -6v-2q10 -2 26.5 -6.5t32.5 -17t27 -35t11 -59.5v-154q0 -12 1.5 -25t7.5 -23.5t16.5 -17.5t28.5 -7h56v-75h-87q-17 0 -38.5 8.5t-40 25t-31.5 42 t-13 59.5v154q0 25 -10 42.5t-24.5 28t-30.5 15t-29 4.5v85q13 0 29 4.5t30.5 15t24.5 28t10 42.5v153q0 34 13 59.5t31.5 42t40 25t38.5 8.5h87v-75z" />
<glyph unicode="|" horiz-adv-x="222" d="M161 750v-1000h-100v1000h100z" />
<glyph unicode="}" horiz-adv-x="333" d="M10 -45h56q18 0 28.5 7t16.5 17.5t7.5 23.5t1.5 25v154q0 37 11 59.5t27 35t32 17t27 6.5v2q-11 1 -27 6t-32 17.5t-27 35t-11 59.5v154q0 12 -1.5 25t-7.5 23.5t-16.5 17.5t-28.5 7h-56v75h87q17 0 38.5 -8.5t40 -25t31.5 -42t13 -59.5v-154q0 -25 10 -42.5t24.5 -28 t30.5 -15t29 -4.5v-85q-13 0 -29 -4.5t-30.5 -15t-24.5 -28t-10 -42.5v-153q0 -34 -13 -59.5t-31.5 -42t-40 -25t-38.5 -8.5h-87v75z" />
<glyph unicode="~" horiz-adv-x="600" d="M520 258q-11 -15 -22.5 -29.5t-25.5 -26.5t-31.5 -19t-39.5 -7q-29 0 -52.5 10t-46.5 23q-23 12 -48.5 22t-58.5 10q-16 0 -28 -6t-22 -16t-17 -22.5t-13 -24.5l-35 77q8 14 19 28.5t25 26.5t32.5 19.5t42.5 7.5q28 0 56 -10t55 -22q26 -13 49.5 -23t42.5 -10 q28 0 47.5 22t36.5 47z" />
<glyph unicode="&#xa1;" horiz-adv-x="390" d="M150 296h90l30 -466h-150zM269 348h-146v133h146v-133z" />
<glyph unicode="&#xa2;" d="M495 287h-105q-2 50 -23 77.5t-73 27.5q-31 0 -51 -14t-32 -36.5t-16.5 -50t-4.5 -55.5q0 -29 4.5 -56.5t16.5 -49.5t32.5 -35.5t53.5 -13.5q35 0 59.5 22t27.5 60h120q-3 -41 -18.5 -72t-39.5 -53t-55 -35t-67 -17v-76h-80v78q-54 9 -91 34t-59.5 58.5t-32 71t-9.5 72.5 q0 52 10.5 97.5t34 79.5t60 55.5t87.5 25.5v76h80v-88q45 -16 69 -56h2v54h100v-181z" />
<glyph unicode="&#xa3;" d="M25 95h75v209h-75v95h75v60q0 110 59 159.5t165 49.5q96 0 151.5 -44.5t55.5 -147.5h-133q0 46 -17 71.5t-64 25.5q-26 0 -42 -10.5t-25.5 -27t-13 -37t-3.5 -41.5v-58h110v-95h-110v-209h159v105h120v-200h-487v95z" />
<glyph unicode="&#xa4;" d="M135 327q0 -30 11 -57t30.5 -47.5t45.5 -32t56 -11.5q31 0 57.5 12t45.5 32.5t29.5 47.5t10.5 56t-10.5 56t-29.5 47.5t-45.5 32.5t-57.5 12q-30 0 -56 -12t-45.5 -32t-30.5 -47t-11 -57zM78 184q-23 27 -35.5 64t-12.5 79q0 41 11.5 79.5t36.5 64.5l-56 55l55 57l56 -54 q26 21 65.5 33.5t79.5 12.5q42 0 80.5 -12.5t64.5 -33.5l53 54l58 -57l-54 -55q23 -24 34.5 -63t11.5 -81q0 -41 -11.5 -79t-34.5 -64l54 -58l-58 -55l-53 57q-25 -23 -63.5 -36t-81.5 -13q-42 0 -80.5 12.5t-64.5 36.5l-56 -57l-55 55z" />
<glyph unicode="&#xa5;" d="M553 654v-95h-45l-97 -180h97v-80h-140l-24 -45v-19h164v-80h-164v-60h95v-95h-323v95h95v60h-164v80h164v19l-24 45h-140v80h97l-97 180h-45v95h246v-95h-68l97 -189h16l97 189h-68v95h231z" />
<glyph unicode="&#xa6;" horiz-adv-x="222" d="M161 175v-350h-100v350h100zM161 675v-350h-100v350h100z" />
<glyph unicode="&#xa7;" d="M182 305q0 -25 16.5 -39.5t40 -24.5t48 -16.5t41.5 -15.5q16 11 31 25.5t15 35.5q0 23 -18 38t-42.5 25.5t-50 18.5t-40.5 17q-17 -14 -29 -27.5t-12 -36.5zM194 60q0 -42 23.5 -61t67.5 -19q12 0 25.5 3t25 9.5t18.5 17t7 25.5q0 16 -5.5 27t-14.5 18t-21 12t-26 10 q-39 13 -76.5 26t-70.5 29q-39 18 -62 48.5t-23 75.5q0 42 23.5 71t60.5 43q-38 16 -55 45t-17 71q0 43 17 72.5t45 48.5t64.5 27.5t74.5 8.5q39 0 76.5 -8.5t67 -28t46.5 -51t16 -76.5h-125q1 41 -24 57.5t-67 16.5q-12 0 -23.5 -2.5t-21 -8t-15.5 -14.5t-6 -23 q0 -25 17 -35t36 -17q39 -15 79 -29.5t81 -32.5q38 -18 60 -44.5t22 -71.5q0 -42 -22 -72t-65 -43q42 -20 60.5 -49.5t18.5 -77.5q0 -44 -15.5 -75.5t-42 -52t-62 -30.5t-75.5 -10q-45 0 -85 6.5t-70.5 25t-48.5 52t-18 86.5h125z" />
<glyph unicode="&#xa8;" horiz-adv-x="278" d="M92 551h-110v115h110v-115zM296 551h-110v115h110v-115z" />
<glyph unicode="&#xa9;" horiz-adv-x="800" d="M59 327q0 70 27 132.5t73 108.5t108 73t133 27q70 0 132.5 -27t108.5 -73t73 -108.5t27 -132.5q0 -71 -27 -133t-73 -108t-108.5 -73t-132.5 -27q-71 0 -133 27t-108 73t-73 108t-27 133zM499 387q-6 33 -31 49t-57 16q-48 0 -73.5 -34t-25.5 -89q0 -26 7 -49t20.5 -40 t33 -27t43.5 -10q35 0 59 17.5t27 50.5h75q-11 -69 -57 -106t-107 -37q-44 0 -79 15.5t-60 42.5t-38.5 63.5t-13.5 78.5q0 43 13 79.5t37.5 63t59.5 41.5t79 15q63 0 108 -35.5t55 -104.5h-75zM154 327q0 -59 18 -108t51 -84t78 -54.5t99 -19.5q57 0 102.5 20.5t77.5 56.5 t49 84.5t17 104.5q0 59 -18.5 108t-51 84t-77.5 54.5t-99 19.5t-99 -19.5t-78 -54.5t-51 -84t-18 -108z" />
<glyph unicode="&#xaa;" horiz-adv-x="360" d="M182 507q-32 0 -55.5 -8t-25.5 -28q6 -29 42 -29q39 0 58 18.5t19 46.5h-38zM222 429h-2q-18 -27 -41 -37t-59 -10q-22 0 -41.5 5.5t-34.5 16t-24 27t-9 37.5q0 34 18 53t45 28t58 11t57 2h31v14q-2 23 -17.5 30t-38.5 7q-50 0 -53 -36h-90q2 29 15.5 47t35 27.5t48 13 t54.5 3.5q67 0 101.5 -26.5t34.5 -94.5v-99h39v-60h-127v41z" />
<glyph unicode="&#xab;" d="M276 233l84 196h100l-84 -196l84 -196h-100zM96 233l84 196h100l-84 -196l84 -196h-100z" />
<glyph unicode="&#xac;" horiz-adv-x="600" d="M47 412h506v-305h-100v205h-406v100z" />
<glyph unicode="&#xad;" horiz-adv-x="333" d="M49 319h235v-100h-235v100z" />
<glyph unicode="&#xae;" horiz-adv-x="800" d="M344 359h66q29 0 47.5 8.5t18.5 42.5q0 15 -7 24t-18 13.5t-24 6t-25 1.5h-58v-96zM264 515h142q72 0 111 -24.5t39 -87.5q0 -52 -27.5 -74.5t-72.5 -25.5l99 -163h-82l-90 159h-39v-159h-80v375zM154 327q0 -59 18 -108t51 -84t78 -54.5t99 -19.5q57 0 102.5 20.5 t77.5 56.5t49 84.5t17 104.5q0 59 -18.5 108t-51 84t-77.5 54.5t-99 19.5t-99 -19.5t-78 -54.5t-51 -84t-18 -108zM59 327q0 70 27 132.5t73 108.5t108 73t133 27q70 0 132.5 -27t108.5 -73t73 -108.5t27 -132.5q0 -71 -27 -133t-73 -108t-108.5 -73t-132.5 -27 q-71 0 -133 27t-108 73t-73 108t-27 133z" />
<glyph unicode="&#xaf;" horiz-adv-x="278" d="M-30 642h338v-65h-338v65z" />
<glyph unicode="&#xb0;" horiz-adv-x="400" d="M49 517q0 31 12 58.5t32.5 48t48 32.5t58.5 12t58.5 -12t48 -32.5t32.5 -48t12 -58.5t-12 -58.5t-32.5 -48t-48 -32.5t-58.5 -12t-58.5 12t-48 32.5t-32.5 48t-12 58.5zM109 517q0 -38 26.5 -64.5t64.5 -26.5t64.5 26.5t26.5 64.5t-26.5 64.5t-64.5 26.5t-64.5 -26.5 t-26.5 -64.5z" />
<glyph unicode="&#xb1;" horiz-adv-x="600" d="M553 6h-506v100h506v-100zM350 373h203v-100h-203v-133h-100v133h-203v100h203v133h100v-133z" />
<glyph unicode="&#xb2;" horiz-adv-x="360" d="M23 343q20 15 53.5 40t67.5 54q37 31 63.5 61t25.5 58q0 23 -15 35t-38 12q-17 0 -28 -5.5t-17.5 -14.5t-9 -21t-3.5 -24h-95q1 39 14 64t34.5 40t51 20.5t62.5 5.5q30 0 55 -7.5t44 -22t29.5 -36t10.5 -49.5q1 -31 -23.5 -64t-58 -63t-68 -55t-52.5 -41h126v50h85v-115 h-314v78z" />
<glyph unicode="&#xb3;" horiz-adv-x="360" d="M147 498q18 0 34 2t29 8t20.5 17t7.5 30q0 26 -15 37t-44 11q-30 0 -42.5 -16.5t-13.5 -40.5h-95q0 31 13 54t34.5 38t50 22.5t58.5 7.5t57 -6.5t47.5 -20t32.5 -34.5t12 -51q0 -39 -24.5 -62t-67.5 -27h1v-2q42 -2 68.5 -26.5t26.5 -59.5q0 -30 -12 -52.5t-34 -37.5 t-51.5 -22.5t-63.5 -7.5q-31 0 -58.5 6t-48.5 20.5t-33.5 38.5t-12.5 59h95q-1 -27 13 -43t46 -16q29 0 47 14t18 40q0 19 -9.5 30.5t-24 16.5t-31 6.5t-30.5 1.5v65z" />
<glyph unicode="&#xb4;" horiz-adv-x="278" d="M149 675h138l-135 -145h-85z" />
<glyph unicode="&#xb5;" horiz-adv-x="611" d="M530 90h65v-90h-186v79h-2q-24 -45 -66 -69t-93 -24l-34 3v-159h-133v548h-65v90h198v-293q0 -36 20.5 -65t61.5 -29q27 0 46 11t31.5 29t18 40.5t5.5 45.5v171h-60v90h193v-378z" />
<glyph unicode="&#xb6;" horiz-adv-x="620" d="M567 -120h-100v694h-105v-694h-100v417q-105 0 -162 47.5t-57 127.5q0 52 18 87t50 56t76 30t96 9h284v-774z" />
<glyph unicode="&#xb7;" horiz-adv-x="278" d="M66 260q0 30 21.5 51.5t51.5 21.5t51.5 -21.5t21.5 -51.5t-21.5 -51.5t-51.5 -21.5t-51.5 21.5t-21.5 51.5z" />
<glyph unicode="&#xb8;" horiz-adv-x="278" d="M35 -156q16 -9 34.5 -13t35.5 -4q20 0 37.5 6t17.5 27q0 19 -14 28.5t-29 9.5q-11 0 -21.5 -1.5t-20.5 -6.5l-19 25l63 85h48l-50 -61l2 -2q9 2 19 4t21 2q35 0 58 -21t23 -54q0 -24 -11 -40t-29 -26.5t-40 -15t-44 -4.5q-26 0 -52 5t-50 16z" />
<glyph unicode="&#xb9;" horiz-adv-x="360" d="M94 330h63v262q-20 -20 -43.5 -36t-47.5 -31v79q23 14 45 28.5t45 29.5h96v-332h62v-65h-220v65z" />
<glyph unicode="&#xba;" horiz-adv-x="360" d="M15 525q0 68 46 105.5t119 37.5t119 -37.5t46 -105.5t-46 -105.5t-119 -37.5t-119 37.5t-46 105.5zM110 525q0 -14 3.5 -28t12 -25t21.5 -18t33 -7q19 0 32.5 7t22 18t12 25t3.5 28t-3.5 28t-12 25t-22 18t-32.5 7q-20 0 -33 -7t-21.5 -18t-12 -25t-3.5 -28z" />
<glyph unicode="&#xbb;" d="M280 233l-84 -196h-100l84 196l-84 196h100zM460 233l-84 -196h-100l84 196l-84 196h100z" />
<glyph unicode="&#xbc;" horiz-adv-x="835" d="M507 674h76l-267 -694h-76zM78 330h63v262q-20 -20 -43.5 -36t-47.5 -31v79q23 14 45 28.5t45 29.5h96v-332h62v-65h-220v65zM581 65h58v51h-193v59l178 220h110v-224h51v-55h-51v-51h48v-65h-201v65zM639 315h-2l-117 -144h119v144z" />
<glyph unicode="&#xbd;" horiz-adv-x="835" d="M482 78q20 15 53.5 40t67.5 54q37 31 63.5 61t25.5 58q0 23 -15 35t-38 12q-17 0 -28 -5.5t-17.5 -14.5t-9 -21t-3.5 -24h-95q1 39 14 64t34.5 40t51 20.5t62.5 5.5q30 0 55 -7.5t44 -22t29.5 -36t10.5 -49.5q1 -31 -23.5 -64t-58 -63t-68 -55t-52.5 -41h126v50h85v-115 h-314v78zM486 674h76l-267 -694h-76zM67 330h63v262q-20 -20 -43.5 -36t-47.5 -31v79q23 14 45 28.5t45 29.5h96v-332h62v-65h-220v65z" />
<glyph unicode="&#xbe;" horiz-adv-x="834" d="M524 674h76l-267 -694h-76zM147 498q18 0 34 2t29 8t20.5 17t7.5 30q0 26 -15 37t-44 11q-30 0 -42.5 -16.5t-13.5 -40.5h-95q0 31 13 54t34.5 38t50 22.5t58.5 7.5t57 -6.5t47.5 -20t32.5 -34.5t12 -51q0 -39 -24.5 -62t-67.5 -27h1v-2q42 -2 68.5 -26.5t26.5 -59.5 q0 -30 -12 -52.5t-34 -37.5t-51.5 -22.5t-63.5 -7.5q-31 0 -58.5 6t-48.5 20.5t-33.5 38.5t-12.5 59h95q-1 -27 13 -43t46 -16q29 0 47 14t18 40q0 19 -9.5 30.5t-24 16.5t-31 6.5t-30.5 1.5v65zM607 65h58v51h-193v59l178 220h110v-224h51v-55h-51v-51h48v-65h-201v65z M665 315h-2l-117 -144h119v144z" />
<glyph unicode="&#xbf;" horiz-adv-x="500" d="M333 348h-146v133h146v-133zM322 261q0 -22 -1.5 -40t-8.5 -36t-20 -36.5t-36 -42.5q-21 -21 -36.5 -37t-26 -30.5t-15.5 -29.5t-5 -35q0 -32 19.5 -50t53.5 -18q25 0 40.5 8t24 22.5t12 34.5t4.5 45h138q0 -108 -57.5 -154t-164.5 -46q-41 0 -78.5 10.5t-66 31.5t-46 53 t-17.5 74q0 27 7 48.5t18.5 39.5t26 33t29.5 29t30 28.5t26 31t18 36t7 43.5v22h125v-35z" />
<glyph unicode="&#xc0;" horiz-adv-x="778" d="M457 716h-85l-135 145h138zM481 295l-98 251l-100 -251h198zM19 95h55l231 559h170l229 -559h55v-95h-281v95h82l-43 105h-271l-41 -105h82v-95h-268v95z" />
<glyph unicode="&#xc1;" horiz-adv-x="778" d="M399 861h138l-135 -145h-85zM481 295l-98 251l-100 -251h198zM19 95h55l231 559h170l229 -559h55v-95h-281v95h82l-43 105h-271l-41 -105h82v-95h-268v95z" />
<glyph unicode="&#xc2;" horiz-adv-x="778" d="M340 861h102l105 -145h-90l-67 85l-69 -85h-90zM481 295l-98 251l-100 -251h198zM19 95h55l231 559h170l229 -559h55v-95h-281v95h82l-43 105h-271l-41 -105h82v-95h-268v95z" />
<glyph unicode="&#xc3;" horiz-adv-x="778" d="M211 722q3 23 11.5 44.5t22 38.5t33 27.5t45.5 10.5q20 0 39 -6t37 -13q19 -8 37 -14t36 -6t29.5 16t15.5 32h50q-2 -22 -10 -44t-21.5 -39.5t-33 -28.5t-43.5 -11q-23 0 -42.5 6t-37.5 14q-17 7 -34 13t-35 6q-21 0 -32 -14.5t-17 -31.5h-50zM481 295l-98 251l-100 -251 h198zM19 95h55l231 559h170l229 -559h55v-95h-281v95h82l-43 105h-271l-41 -105h82v-95h-268v95z" />
<glyph unicode="&#xc4;" horiz-adv-x="778" d="M342 737h-110v115h110v-115zM546 737h-110v115h110v-115zM481 295l-98 251l-100 -251h198zM19 95h55l231 559h170l229 -559h55v-95h-281v95h82l-43 105h-271l-41 -105h82v-95h-268v95z" />
<glyph unicode="&#xc5;" horiz-adv-x="778" d="M332 808q0 -23 17 -40t40 -17q24 0 40.5 17t16.5 40t-16.5 40t-40.5 17q-23 0 -40 -17t-17 -40zM282 808q0 22 8.5 41.5t23 34t34 23t41.5 8.5t42 -8.5t34 -23t22.5 -34t8.5 -41.5q0 -23 -8.5 -42.5t-22.5 -33.5t-34 -22.5t-42 -8.5t-41.5 8.5t-34 22.5t-23 33.5 t-8.5 42.5zM481 295l-98 251l-100 -251h198zM19 95h55l231 559h170l229 -559h55v-95h-281v95h82l-43 105h-271l-41 -105h82v-95h-268v95z" />
<glyph unicode="&#xc6;" horiz-adv-x="1000" d="M19 95h54l279 559h603v-196h-115v101h-267l20 -178h88v88h105v-266h-105v88h-78l25 -196h212v119h115v-214h-549v95h90l-12 105h-227l-51 -105h82v-95h-269v95zM442 574h-2l-136 -279h169z" />
<glyph unicode="&#xc7;" horiz-adv-x="722" d="M670 412h-125q-1 75 -46.5 118t-118.5 43q-55 0 -91.5 -22.5t-58.5 -59.5t-31 -84t-9 -96q0 -47 11.5 -89t36 -73.5t62.5 -49.5t90 -18q30 0 57 10.5t47 29.5t32 46t13 59h133q-1 -69 -28 -115t-68.5 -73.5t-92 -39.5t-98.5 -12h-7l-39 -47l2 -2q9 2 19 4t21 2 q35 0 58 -21t23 -54q0 -24 -11 -40t-29 -26.5t-40 -15t-44 -4.5q-26 0 -52 5t-50 16l21 41q16 -9 34.5 -13t35.5 -4q20 0 37.5 6t17.5 27q0 19 -14 28.5t-29 9.5q-11 0 -21.5 -1.5t-20.5 -6.5l-19 25l55 74q-73 7 -127.5 35.5t-90.5 73t-53.5 101.5t-17.5 123 q0 75 19.5 138.5t58.5 109.5t97.5 72t136.5 26q59 0 106.5 -19t80.5 -69l2 -2v76h125v-242z" />
<glyph unicode="&#xc8;" horiz-adv-x="667" d="M402 716h-85l-135 145h138zM28 95h82v464h-82v95h594v-196h-115v101h-259v-178h99v89h105v-267h-105v88h-99v-196h259v119h115v-214h-594v95z" />
<glyph unicode="&#xc9;" horiz-adv-x="667" d="M344 861h138l-135 -145h-85zM28 95h82v464h-82v95h594v-196h-115v101h-259v-178h99v89h105v-267h-105v88h-99v-196h259v119h115v-214h-594v95z" />
<glyph unicode="&#xca;" horiz-adv-x="667" d="M285 861h102l105 -145h-90l-67 85l-69 -85h-90zM28 95h82v464h-82v95h594v-196h-115v101h-259v-178h99v89h105v-267h-105v88h-99v-196h259v119h115v-214h-594v95z" />
<glyph unicode="&#xcb;" horiz-adv-x="667" d="M287 737h-110v115h110v-115zM491 737h-110v115h110v-115zM28 95h82v464h-82v95h594v-196h-115v101h-259v-178h99v89h105v-267h-105v88h-99v-196h259v119h115v-214h-594v95z" />
<glyph unicode="&#xcc;" horiz-adv-x="388" d="M274 716h-85l-135 145h138zM43 95h82v464h-82v95h302v-95h-82v-464h82v-95h-302v95z" />
<glyph unicode="&#xcd;" horiz-adv-x="388" d="M204 861h138l-135 -145h-85zM43 95h82v464h-82v95h302v-95h-82v-464h82v-95h-302v95z" />
<glyph unicode="&#xce;" horiz-adv-x="388" d="M145 861h102l105 -145h-90l-67 85l-69 -85h-90zM43 95h82v464h-82v95h302v-95h-82v-464h82v-95h-302v95z" />
<glyph unicode="&#xcf;" horiz-adv-x="388" d="M147 737h-110v115h110v-115zM351 737h-110v115h110v-115zM43 95h82v464h-82v95h302v-95h-82v-464h82v-95h-302v95z" />
<glyph unicode="&#xd0;" horiz-adv-x="778" d="M248 392h133v-90h-133v-207h111q107 0 160.5 62.5t53.5 169.5q0 106 -52.5 169t-161.5 63h-111v-167zM28 95h82v207h-82v90h82v167h-82v95h357q16 0 47 -2t68.5 -12t76 -30.5t70.5 -56.5t52 -91t20 -134q0 -82 -25 -143.5t-70.5 -102.5t-110.5 -61.5t-144 -20.5h-341v95z " />
<glyph unicode="&#xd1;" horiz-adv-x="779" d="M212 722q3 23 11.5 44.5t22 38.5t33 27.5t45.5 10.5q20 0 39 -6t37 -13q19 -8 37 -14t36 -6t29.5 16t15.5 32h50q-2 -22 -10 -44t-21.5 -39.5t-33 -28.5t-43.5 -11q-23 0 -42.5 6t-37.5 14q-17 7 -34 13t-35 6q-21 0 -32 -14.5t-17 -31.5h-50zM20 95h82v464h-82v95h278 l252 -486h2v391h-82v95h289v-95h-82v-559h-182l-266 505h-2v-410h82v-95h-289v95z" />
<glyph unicode="&#xd2;" horiz-adv-x="778" d="M457 716h-85l-135 145h138zM389 81q53 0 90.5 18.5t61.5 51.5t35.5 78t11.5 98q0 52 -11.5 97t-35.5 78t-61.5 52t-90.5 19t-90.5 -19t-61.5 -52t-35.5 -78t-11.5 -97q0 -53 11.5 -98t35.5 -78t61.5 -51.5t90.5 -18.5zM389 -14q-83 0 -147 25.5t-108 71t-67 108 t-23 136.5t23 136.5t67 108t108 71t147 25.5t147 -25.5t108 -71t67 -108t23 -136.5t-23 -136.5t-67 -108t-108 -71t-147 -25.5z" />
<glyph unicode="&#xd3;" horiz-adv-x="778" d="M399 861h138l-135 -145h-85zM389 81q53 0 90.5 18.5t61.5 51.5t35.5 78t11.5 98q0 52 -11.5 97t-35.5 78t-61.5 52t-90.5 19t-90.5 -19t-61.5 -52t-35.5 -78t-11.5 -97q0 -53 11.5 -98t35.5 -78t61.5 -51.5t90.5 -18.5zM389 -14q-83 0 -147 25.5t-108 71t-67 108 t-23 136.5t23 136.5t67 108t108 71t147 25.5t147 -25.5t108 -71t67 -108t23 -136.5t-23 -136.5t-67 -108t-108 -71t-147 -25.5z" />
<glyph unicode="&#xd4;" horiz-adv-x="778" d="M340 861h102l105 -145h-90l-67 85l-69 -85h-90zM389 81q53 0 90.5 18.5t61.5 51.5t35.5 78t11.5 98q0 52 -11.5 97t-35.5 78t-61.5 52t-90.5 19t-90.5 -19t-61.5 -52t-35.5 -78t-11.5 -97q0 -53 11.5 -98t35.5 -78t61.5 -51.5t90.5 -18.5zM389 -14q-83 0 -147 25.5 t-108 71t-67 108t-23 136.5t23 136.5t67 108t108 71t147 25.5t147 -25.5t108 -71t67 -108t23 -136.5t-23 -136.5t-67 -108t-108 -71t-147 -25.5z" />
<glyph unicode="&#xd5;" horiz-adv-x="778" d="M211 722q3 23 11.5 44.5t22 38.5t33 27.5t45.5 10.5q20 0 39 -6t37 -13q19 -8 37 -14t36 -6t29.5 16t15.5 32h50q-2 -22 -10 -44t-21.5 -39.5t-33 -28.5t-43.5 -11q-23 0 -42.5 6t-37.5 14q-17 7 -34 13t-35 6q-21 0 -32 -14.5t-17 -31.5h-50zM389 81q53 0 90.5 18.5 t61.5 51.5t35.5 78t11.5 98q0 52 -11.5 97t-35.5 78t-61.5 52t-90.5 19t-90.5 -19t-61.5 -52t-35.5 -78t-11.5 -97q0 -53 11.5 -98t35.5 -78t61.5 -51.5t90.5 -18.5zM389 -14q-83 0 -147 25.5t-108 71t-67 108t-23 136.5t23 136.5t67 108t108 71t147 25.5t147 -25.5t108 -71 t67 -108t23 -136.5t-23 -136.5t-67 -108t-108 -71t-147 -25.5z" />
<glyph unicode="&#xd6;" horiz-adv-x="778" d="M342 737h-110v115h110v-115zM546 737h-110v115h110v-115zM389 81q53 0 90.5 18.5t61.5 51.5t35.5 78t11.5 98q0 52 -11.5 97t-35.5 78t-61.5 52t-90.5 19t-90.5 -19t-61.5 -52t-35.5 -78t-11.5 -97q0 -53 11.5 -98t35.5 -78t61.5 -51.5t90.5 -18.5zM389 -14 q-83 0 -147 25.5t-108 71t-67 108t-23 136.5t23 136.5t67 108t108 71t147 25.5t147 -25.5t108 -71t67 -108t23 -136.5t-23 -136.5t-67 -108t-108 -71t-147 -25.5z" />
<glyph unicode="&#xd7;" d="M116 487l162 -164l163 164l70 -71l-162 -163l162 -163l-70 -71l-163 163l-162 -163l-71 71l163 163l-163 163z" />
<glyph unicode="&#xd8;" horiz-adv-x="778" d="M249 136q25 -26 59 -40.5t81 -14.5q53 0 90.5 18.5t61.5 51.5t35.5 78t11.5 98q0 45 -7.5 83t-24.5 69zM520 527q-23 22 -55.5 34t-75.5 12q-53 0 -90.5 -19t-61.5 -52t-35.5 -78t-11.5 -97q0 -40 6.5 -75t20.5 -64zM712 653l-71 -79q46 -45 69.5 -108.5t23.5 -138.5 q0 -74 -23 -136.5t-67 -108t-108 -71t-147 -25.5q-66 0 -120.5 16.5t-96.5 47.5l-73 -81l-45 37l74 83q-42 46 -63 106.5t-21 131.5q0 74 23 136.5t67 108t108 71t147 25.5q63 0 114 -14.5t93 -41.5l72 80z" />
<glyph unicode="&#xd9;" horiz-adv-x="722" d="M429 716h-85l-135 145h138zM706 559h-70v-332q0 -50 -20 -94t-55.5 -76.5t-85 -51.5t-108.5 -19q-61 0 -105.5 12t-76 32.5t-50.5 46t-30 52t-15 52.5t-4 46v332h-70v95h298v-95h-90v-286q0 -21 1.5 -53.5t14 -63.5t42 -53t85.5 -22q60 0 90 23t42 54t12 63.5v51.5v286 h-90v95h285v-95z" />
<glyph unicode="&#xda;" horiz-adv-x="722" d="M371 861h138l-135 -145h-85zM706 559h-70v-332q0 -50 -20 -94t-55.5 -76.5t-85 -51.5t-108.5 -19q-61 0 -105.5 12t-76 32.5t-50.5 46t-30 52t-15 52.5t-4 46v332h-70v95h298v-95h-90v-286q0 -21 1.5 -53.5t14 -63.5t42 -53t85.5 -22q60 0 90 23t42 54t12 63.5v51.5v286 h-90v95h285v-95z" />
<glyph unicode="&#xdb;" horiz-adv-x="722" d="M312 861h102l105 -145h-90l-67 85l-69 -85h-90zM706 559h-70v-332q0 -50 -20 -94t-55.5 -76.5t-85 -51.5t-108.5 -19q-61 0 -105.5 12t-76 32.5t-50.5 46t-30 52t-15 52.5t-4 46v332h-70v95h298v-95h-90v-286q0 -21 1.5 -53.5t14 -63.5t42 -53t85.5 -22q60 0 90 23t42 54 t12 63.5v51.5v286h-90v95h285v-95z" />
<glyph unicode="&#xdc;" horiz-adv-x="722" d="M314 737h-110v115h110v-115zM518 737h-110v115h110v-115zM706 559h-70v-332q0 -50 -20 -94t-55.5 -76.5t-85 -51.5t-108.5 -19q-61 0 -105.5 12t-76 32.5t-50.5 46t-30 52t-15 52.5t-4 46v332h-70v95h298v-95h-90v-286q0 -21 1.5 -53.5t14 -63.5t42 -53t85.5 -22 q60 0 90 23t42 54t12 63.5v51.5v286h-90v95h285v-95z" />
<glyph unicode="&#xdd;" horiz-adv-x="723" d="M372 861h138l-135 -145h-85zM197 95h95v139l-221 325h-55v95h302v-95h-85l135 -206l136 206h-85v95h288v-95h-55l-222 -325v-139h95v-95h-328v95z" />
<glyph unicode="&#xde;" horiz-adv-x="667" d="M330 240q29 0 55.5 3t46.5 12t32 24t12 39q0 34 -13 53.5t-34.5 29t-48.5 11.5t-55 2h-69v-174h74zM28 95h90v464h-90v95h333v-95h-105v-55h100q20 0 46.5 -1t55.5 -6t57 -16t50 -30.5t35.5 -49t13.5 -71.5q0 -52 -18 -86.5t-49 -55.5t-74 -29.5t-92 -8.5h-125v-55h105 v-95h-333v95z" />
<glyph unicode="&#xdf;" horiz-adv-x="611" d="M30 90h65v408q0 51 19 86t52 56.5t76 31.5t91 10q40 0 78 -9.5t67.5 -30.5t47 -54t17.5 -79q0 -33 -12 -58t-32.5 -42t-46.5 -27t-54 -14v-2q38 -3 71 -15t58 -33t39 -51.5t14 -72.5q0 -59 -19.5 -97.5t-53.5 -61t-79.5 -30.5t-97.5 -5v90q48 -3 80 25.5t32 77.5 q0 35 -10.5 58.5t-30 37.5t-46.5 19t-60 3v100q49 -2 79.5 19.5t30.5 74.5q0 45 -24 66t-65 21q-40 0 -64 -25.5t-24 -80.5v-396h55v-90h-253v90z" />
<glyph unicode="&#xe0;" d="M346 530h-85l-135 145h138zM291 214q-26 0 -49 -2.5t-41 -10.5t-28.5 -22.5t-10.5 -38.5q0 -33 20 -48.5t51 -15.5q59 0 91 39t31 99h-64zM357 68h-2q-31 -47 -66.5 -64.5t-88.5 -17.5q-33 0 -62.5 9.5t-52 28t-35.5 46.5t-13 66q0 58 26 90t65.5 47t87.5 18t92 3h47v36 q0 41 -26.5 56.5t-63.5 15.5q-39 0 -62 -17.5t-26 -58.5h-125q3 50 23.5 81t52 47.5t71.5 22t81 5.5q57 0 95 -12t61.5 -37t33.5 -64t10 -92v-187h60v-90h-183v68z" />
<glyph unicode="&#xe1;" d="M288 675h138l-135 -145h-85zM291 214q-26 0 -49 -2.5t-41 -10.5t-28.5 -22.5t-10.5 -38.5q0 -33 20 -48.5t51 -15.5q59 0 91 39t31 99h-64zM357 68h-2q-31 -47 -66.5 -64.5t-88.5 -17.5q-33 0 -62.5 9.5t-52 28t-35.5 46.5t-13 66q0 58 26 90t65.5 47t87.5 18t92 3h47v36 q0 41 -26.5 56.5t-63.5 15.5q-39 0 -62 -17.5t-26 -58.5h-125q3 50 23.5 81t52 47.5t71.5 22t81 5.5q57 0 95 -12t61.5 -37t33.5 -64t10 -92v-187h60v-90h-183v68z" />
<glyph unicode="&#xe2;" d="M229 675h102l105 -145h-90l-67 85l-69 -85h-90zM291 214q-26 0 -49 -2.5t-41 -10.5t-28.5 -22.5t-10.5 -38.5q0 -33 20 -48.5t51 -15.5q59 0 91 39t31 99h-64zM357 68h-2q-31 -47 -66.5 -64.5t-88.5 -17.5q-33 0 -62.5 9.5t-52 28t-35.5 46.5t-13 66q0 58 26 90t65.5 47 t87.5 18t92 3h47v36q0 41 -26.5 56.5t-63.5 15.5q-39 0 -62 -17.5t-26 -58.5h-125q3 50 23.5 81t52 47.5t71.5 22t81 5.5q57 0 95 -12t61.5 -37t33.5 -64t10 -92v-187h60v-90h-183v68z" />
<glyph unicode="&#xe3;" d="M100 536q3 23 11.5 44.5t22 38.5t33 27.5t45.5 10.5q20 0 39 -6t37 -13q19 -8 37 -14t36 -6t29.5 16t15.5 32h50q-2 -22 -10 -44t-21.5 -39.5t-33 -28.5t-43.5 -11q-23 0 -42.5 6t-37.5 14q-17 7 -34 13t-35 6q-21 0 -32 -14.5t-17 -31.5h-50zM291 214q-26 0 -49 -2.5 t-41 -10.5t-28.5 -22.5t-10.5 -38.5q0 -33 20 -48.5t51 -15.5q59 0 91 39t31 99h-64zM357 68h-2q-31 -47 -66.5 -64.5t-88.5 -17.5q-33 0 -62.5 9.5t-52 28t-35.5 46.5t-13 66q0 58 26 90t65.5 47t87.5 18t92 3h47v36q0 41 -26.5 56.5t-63.5 15.5q-39 0 -62 -17.5t-26 -58.5 h-125q3 50 23.5 81t52 47.5t71.5 22t81 5.5q57 0 95 -12t61.5 -37t33.5 -64t10 -92v-187h60v-90h-183v68z" />
<glyph unicode="&#xe4;" d="M231 551h-110v115h110v-115zM435 551h-110v115h110v-115zM291 214q-26 0 -49 -2.5t-41 -10.5t-28.5 -22.5t-10.5 -38.5q0 -33 20 -48.5t51 -15.5q59 0 91 39t31 99h-64zM357 68h-2q-31 -47 -66.5 -64.5t-88.5 -17.5q-33 0 -62.5 9.5t-52 28t-35.5 46.5t-13 66q0 58 26 90 t65.5 47t87.5 18t92 3h47v36q0 41 -26.5 56.5t-63.5 15.5q-39 0 -62 -17.5t-26 -58.5h-125q3 50 23.5 81t52 47.5t71.5 22t81 5.5q57 0 95 -12t61.5 -37t33.5 -64t10 -92v-187h60v-90h-183v68z" />
<glyph unicode="&#xe5;" d="M221 622q0 -23 17 -40t40 -17q24 0 40.5 17t16.5 40t-16.5 40t-40.5 17q-23 0 -40 -17t-17 -40zM171 622q0 22 8.5 41.5t23 34t34 23t41.5 8.5t42 -8.5t34 -23t22.5 -34t8.5 -41.5q0 -23 -8.5 -42.5t-22.5 -33.5t-34 -22.5t-42 -8.5t-41.5 8.5t-34 22.5t-23 33.5 t-8.5 42.5zM291 214q-26 0 -49 -2.5t-41 -10.5t-28.5 -22.5t-10.5 -38.5q0 -33 20 -48.5t51 -15.5q59 0 91 39t31 99h-64zM357 68h-2q-31 -47 -66.5 -64.5t-88.5 -17.5q-33 0 -62.5 9.5t-52 28t-35.5 46.5t-13 66q0 58 26 90t65.5 47t87.5 18t92 3h47v36q0 41 -26.5 56.5 t-63.5 15.5q-39 0 -62 -17.5t-26 -58.5h-125q3 50 23.5 81t52 47.5t71.5 22t81 5.5q57 0 95 -12t61.5 -37t33.5 -64t10 -92v-187h60v-90h-183v68z" />
<glyph unicode="&#xe6;" horiz-adv-x="834" d="M309 196q-26 0 -52 -1t-47 -7t-34.5 -18.5t-13.5 -35.5q0 -17 7 -28t18 -18t26 -9.5t30 -2.5q28 0 48.5 10.5t33.5 27.5t19.5 38.5t6.5 43.5h-42zM59 331q1 43 19 72t47 46.5t65 25t73 7.5q24 0 48.5 -4t45.5 -13.5t37.5 -26.5t25.5 -43q12 26 31 43t41.5 26.5t48.5 13.5 t53 4q64 0 104.5 -24t63 -64t30 -91.5t4.5 -106.5h-320q1 -26 6.5 -47.5t16.5 -38t29.5 -25.5t45.5 -9q34 0 61.5 15.5t31.5 53.5h125q-3 -42 -21 -72.5t-46.5 -49.5t-64.5 -28t-74 -9q-33 0 -62 4.5t-53 16.5t-44 32.5t-36 52.5q-25 -59 -72 -82.5t-110 -23.5 q-78 0 -125 34.5t-47 105.5q0 58 26 89.5t66 46t86.5 17t87.5 2.5h48v32q0 37 -21.5 58t-66.5 21q-32 0 -54 -15t-25 -46h-125zM671 281q-1 23 -6 43.5t-16 35.5t-29 23.5t-45 8.5q-24 0 -42 -9.5t-30.5 -25t-19 -35.5t-7.5 -41h195z" />
<glyph unicode="&#xe7;" horiz-adv-x="500" d="M471 287h-105q-2 51 -23 77q-23 28 -73 28q-31 0 -51 -14t-32 -36.5t-16.5 -50t-4.5 -55.5q0 -29 4.5 -56.5t16.5 -49.5t32.5 -35.5t53.5 -13.5q35 0 59.5 22t27.5 60h120q-4 -45 -21.5 -78t-45.5 -55t-64.5 -33t-76.5 -11h-5l-39 -47l2 -2q9 2 19 4t21 2q35 0 58 -21 t23 -54q0 -24 -11 -40t-29 -26.5t-40 -15t-44 -4.5q-26 0 -52 5t-50 16l21 41q16 -9 34.5 -13t35.5 -4q20 0 37.5 6t17.5 27q0 19 -14 28.5t-29 9.5q-11 0 -21.5 -1.5t-20.5 -6.5l-19 25l56 75q-55 8 -92.5 32.5t-60 57.5t-32.5 71t-10 73q0 55 12 102t37.5 81.5t66.5 54.5 t98 20q39 0 73 -17.5t54 -50.5h2v54h100v-181z" />
<glyph unicode="&#xe8;" d="M346 530h-85l-135 145h138zM177 196q0 -56 30.5 -88t86.5 -32q35 0 58.5 15.5t33.5 53.5h125q-8 -42 -28.5 -72.5t-50 -49.5t-66 -28t-76.5 -9q-123 0 -187 68.5t-64 185.5q0 55 18 100t50.5 76.5t78 48.5t101.5 17q42 0 79.5 -12t67 -35t49.5 -56.5t28 -76.5 q5 -28 5.5 -54.5t0.5 -51.5h-340zM384 281q0 51 -25.5 81t-77.5 30q-51 0 -77.5 -31.5t-26.5 -79.5h207z" />
<glyph unicode="&#xe9;" d="M288 675h138l-135 -145h-85zM177 196q0 -56 30.5 -88t86.5 -32q35 0 58.5 15.5t33.5 53.5h125q-8 -42 -28.5 -72.5t-50 -49.5t-66 -28t-76.5 -9q-123 0 -187 68.5t-64 185.5q0 55 18 100t50.5 76.5t78 48.5t101.5 17q42 0 79.5 -12t67 -35t49.5 -56.5t28 -76.5 q5 -28 5.5 -54.5t0.5 -51.5h-340zM384 281q0 51 -25.5 81t-77.5 30q-51 0 -77.5 -31.5t-26.5 -79.5h207z" />
<glyph unicode="&#xea;" d="M229 675h102l105 -145h-90l-67 85l-69 -85h-90zM177 196q0 -56 30.5 -88t86.5 -32q35 0 58.5 15.5t33.5 53.5h125q-8 -42 -28.5 -72.5t-50 -49.5t-66 -28t-76.5 -9q-123 0 -187 68.5t-64 185.5q0 55 18 100t50.5 76.5t78 48.5t101.5 17q42 0 79.5 -12t67 -35t49.5 -56.5 t28 -76.5q5 -28 5.5 -54.5t0.5 -51.5h-340zM384 281q0 51 -25.5 81t-77.5 30q-51 0 -77.5 -31.5t-26.5 -79.5h207z" />
<glyph unicode="&#xeb;" d="M231 551h-110v115h110v-115zM435 551h-110v115h110v-115zM177 196q0 -56 30.5 -88t86.5 -32q35 0 58.5 15.5t33.5 53.5h125q-8 -42 -28.5 -72.5t-50 -49.5t-66 -28t-76.5 -9q-123 0 -187 68.5t-64 185.5q0 55 18 100t50.5 76.5t78 48.5t101.5 17q42 0 79.5 -12t67 -35 t49.5 -56.5t28 -76.5q5 -28 5.5 -54.5t0.5 -51.5h-340zM384 281q0 51 -25.5 81t-77.5 30q-51 0 -77.5 -31.5t-26.5 -79.5h207z" />
<glyph unicode="&#xec;" horiz-adv-x="333" d="M235 530h-85l-135 145h138zM35 90h65v288h-65v90h198v-378h65v-90h-263v90z" />
<glyph unicode="&#xed;" horiz-adv-x="333" d="M177 675h138l-135 -145h-85zM35 90h65v288h-65v90h198v-378h65v-90h-263v90z" />
<glyph unicode="&#xee;" horiz-adv-x="333" d="M118 675h102l105 -145h-90l-67 85l-69 -85h-90zM35 90h65v288h-65v90h198v-378h65v-90h-263v90z" />
<glyph unicode="&#xef;" horiz-adv-x="333" d="M120 551h-110v115h110v-115zM324 551h-110v115h110v-115zM35 90h65v288h-65v90h198v-378h65v-90h-263v90z" />
<glyph unicode="&#xf0;" d="M186 615q-29 18 -58.5 30t-55.5 18l54 57q86 -22 155 -59l123 59l49 -55l-100 -48q82 -61 128.5 -146.5t46.5 -196.5q-3 -142 -68.5 -215t-181.5 -73q-55 0 -101 18t-79 51t-51.5 78.5t-18.5 100.5q0 54 18.5 97.5t51.5 74.5t79 47.5t101 16.5q19 0 40 -6t44 -20l2 2 q-13 37 -40.5 68.5t-64.5 57.5l-132 -64l-49 55zM278 380q-32 0 -53.5 -13.5t-34.5 -34.5t-18.5 -47t-5.5 -51q0 -28 5.5 -55.5t18.5 -49t34.5 -35t53.5 -13.5t53.5 13.5t34.5 35t18.5 49t5.5 55.5q0 25 -5.5 51t-18.5 47t-34.5 34.5t-53.5 13.5z" />
<glyph unicode="&#xf1;" horiz-adv-x="668" d="M156 536q3 23 11.5 44.5t22 38.5t33 27.5t45.5 10.5q20 0 39 -6t37 -13q19 -8 37 -14t36 -6t29.5 16t15.5 32h50q-2 -22 -10 -44t-21.5 -39.5t-33 -28.5t-43.5 -11q-23 0 -42.5 6t-37.5 14q-17 7 -34 13t-35 6q-21 0 -32 -14.5t-17 -31.5h-50zM45 90h65v288h-65v90h186 v-79h2q24 45 66 69t93 24q46 0 78 -12t52 -35.5t28.5 -58t8.5 -78.5v-208h65v-90h-258v90h60v203q0 36 -20.5 65t-61.5 29q-27 0 -46 -11.5t-31.5 -29.5t-18 -40.5t-5.5 -44.5v-171h60v-90h-258v90z" />
<glyph unicode="&#xf2;" d="M346 530h-85l-135 145h138zM278 482q55 0 101 -17t79 -48.5t51.5 -78t18.5 -104.5q0 -59 -18.5 -105t-51.5 -77.5t-79 -48.5t-101 -17t-101 17t-79 48.5t-51.5 77.5t-18.5 105q0 58 18.5 104.5t51.5 78t79 48.5t101 17zM166 234q0 -28 5.5 -55.5t18.5 -49t34.5 -35 t53.5 -13.5t53.5 13.5t34.5 35t18.5 49t5.5 55.5t-5.5 55t-18.5 49t-34.5 35.5t-53.5 13.5t-53.5 -13.5t-34.5 -35.5t-18.5 -49t-5.5 -55z" />
<glyph unicode="&#xf3;" d="M288 675h138l-135 -145h-85zM278 482q55 0 101 -17t79 -48.5t51.5 -78t18.5 -104.5q0 -59 -18.5 -105t-51.5 -77.5t-79 -48.5t-101 -17t-101 17t-79 48.5t-51.5 77.5t-18.5 105q0 58 18.5 104.5t51.5 78t79 48.5t101 17zM166 234q0 -28 5.5 -55.5t18.5 -49t34.5 -35 t53.5 -13.5t53.5 13.5t34.5 35t18.5 49t5.5 55.5t-5.5 55t-18.5 49t-34.5 35.5t-53.5 13.5t-53.5 -13.5t-34.5 -35.5t-18.5 -49t-5.5 -55z" />
<glyph unicode="&#xf4;" d="M229 675h102l105 -145h-90l-67 85l-69 -85h-90zM278 482q55 0 101 -17t79 -48.5t51.5 -78t18.5 -104.5q0 -59 -18.5 -105t-51.5 -77.5t-79 -48.5t-101 -17t-101 17t-79 48.5t-51.5 77.5t-18.5 105q0 58 18.5 104.5t51.5 78t79 48.5t101 17zM166 234q0 -28 5.5 -55.5 t18.5 -49t34.5 -35t53.5 -13.5t53.5 13.5t34.5 35t18.5 49t5.5 55.5t-5.5 55t-18.5 49t-34.5 35.5t-53.5 13.5t-53.5 -13.5t-34.5 -35.5t-18.5 -49t-5.5 -55z" />
<glyph unicode="&#xf5;" d="M100 536q3 23 11.5 44.5t22 38.5t33 27.5t45.5 10.5q20 0 39 -6t37 -13q19 -8 37 -14t36 -6t29.5 16t15.5 32h50q-2 -22 -10 -44t-21.5 -39.5t-33 -28.5t-43.5 -11q-23 0 -42.5 6t-37.5 14q-17 7 -34 13t-35 6q-21 0 -32 -14.5t-17 -31.5h-50zM278 482q55 0 101 -17 t79 -48.5t51.5 -78t18.5 -104.5q0 -59 -18.5 -105t-51.5 -77.5t-79 -48.5t-101 -17t-101 17t-79 48.5t-51.5 77.5t-18.5 105q0 58 18.5 104.5t51.5 78t79 48.5t101 17zM166 234q0 -28 5.5 -55.5t18.5 -49t34.5 -35t53.5 -13.5t53.5 13.5t34.5 35t18.5 49t5.5 55.5t-5.5 55 t-18.5 49t-34.5 35.5t-53.5 13.5t-53.5 -13.5t-34.5 -35.5t-18.5 -49t-5.5 -55z" />
<glyph unicode="&#xf6;" d="M231 551h-110v115h110v-115zM435 551h-110v115h110v-115zM278 482q55 0 101 -17t79 -48.5t51.5 -78t18.5 -104.5q0 -59 -18.5 -105t-51.5 -77.5t-79 -48.5t-101 -17t-101 17t-79 48.5t-51.5 77.5t-18.5 105q0 58 18.5 104.5t51.5 78t79 48.5t101 17zM166 234 q0 -28 5.5 -55.5t18.5 -49t34.5 -35t53.5 -13.5t53.5 13.5t34.5 35t18.5 49t5.5 55.5t-5.5 55t-18.5 49t-34.5 35.5t-53.5 13.5t-53.5 -13.5t-34.5 -35.5t-18.5 -49t-5.5 -55z" />
<glyph unicode="&#xf7;" horiz-adv-x="600" d="M231 57q0 28 20 48.5t49 20.5q28 0 48.5 -20.5t20.5 -48.5q0 -29 -20.5 -49t-48.5 -20q-29 0 -49 20t-20 49zM231 449q0 28 20 48.5t49 20.5q28 0 48.5 -20.5t20.5 -48.5q0 -29 -20.5 -49t-48.5 -20q-29 0 -49 20t-20 49zM47 303h506v-100h-506v100z" />
<glyph unicode="&#xf8;" d="M199 118q13 -17 32.5 -27t46.5 -10q32 0 53.5 13.5t34.5 35t18.5 49t5.5 55.5q0 41 -12 76zM351 357q-27 30 -73 30q-32 0 -53.5 -13.5t-34.5 -35.5t-18.5 -49t-5.5 -55q0 -36 9 -67zM529 473l-61 -66q29 -32 44.5 -75.5t15.5 -97.5q0 -56 -17.5 -101.5t-49.5 -78 t-78.5 -50.5t-104.5 -18q-92 0 -156 49l-71 -77l-37 35l71 76q-27 32 -42 73.5t-15 91.5q0 58 18.5 104.5t51.5 78t79 48.5t101 17q88 0 150 -42l63 68z" />
<glyph unicode="&#xf9;" horiz-adv-x="611" d="M374 530h-85l-135 145h138zM530 90h65v-90h-186v79h-2q-24 -45 -66 -69t-93 -24q-93 0 -130 47.5t-37 136.5v208h-65v90h198v-293q0 -36 20.5 -65t61.5 -29q27 0 46 11t31.5 29t18 40.5t5.5 45.5v171h-60v90h193v-378z" />
<glyph unicode="&#xfa;" horiz-adv-x="611" d="M316 675h138l-135 -145h-85zM530 90h65v-90h-186v79h-2q-24 -45 -66 -69t-93 -24q-93 0 -130 47.5t-37 136.5v208h-65v90h198v-293q0 -36 20.5 -65t61.5 -29q27 0 46 11t31.5 29t18 40.5t5.5 45.5v171h-60v90h193v-378z" />
<glyph unicode="&#xfb;" horiz-adv-x="611" d="M257 675h102l105 -145h-90l-67 85l-69 -85h-90zM530 90h65v-90h-186v79h-2q-24 -45 -66 -69t-93 -24q-93 0 -130 47.5t-37 136.5v208h-65v90h198v-293q0 -36 20.5 -65t61.5 -29q27 0 46 11t31.5 29t18 40.5t5.5 45.5v171h-60v90h193v-378z" />
<glyph unicode="&#xfc;" horiz-adv-x="611" d="M259 551h-110v115h110v-115zM463 551h-110v115h110v-115zM530 90h65v-90h-186v79h-2q-24 -45 -66 -69t-93 -24q-93 0 -130 47.5t-37 136.5v208h-65v90h198v-293q0 -36 20.5 -65t61.5 -29q27 0 46 11t31.5 29t18 40.5t5.5 45.5v171h-60v90h193v-378z" />
<glyph unicode="&#xfd;" horiz-adv-x="611" d="M316 675h138l-135 -145h-85zM596 378h-45l-223 -455q-13 -29 -27 -49.5t-32.5 -33t-42 -18.5t-56.5 -6q-20 0 -38.5 2t-37.5 5v95q15 -2 31.5 -4.5t38.5 -2.5q29 0 47.5 25.5t29.5 60.5l-181 381h-45v90h262v-90h-70l103 -239l107 239h-70v90h249v-90z" />
<glyph unicode="&#xfe;" horiz-adv-x="611" d="M28 -80h65v658h-65v90h198v-263h2q20 36 56.5 56.5t88.5 20.5q46 0 84.5 -15.5t66.5 -47.5t43.5 -80t15.5 -112q0 -47 -12.5 -90.5t-37.5 -77t-63 -53.5t-89 -20q-26 0 -47.5 3.5t-39.5 12.5t-34 24.5t-32 38.5h-2v-145h72v-90h-270v90zM346 81q43 0 71 38.5t28 114.5 q0 29 -5.5 56.5t-18 49t-34 34.5t-53.5 13q-31 0 -53 -12t-36 -32t-20.5 -46.5t-6.5 -55.5q0 -37 6 -66.5t20.5 -50.5t39 -32t62.5 -11z" />
<glyph unicode="&#xff;" horiz-adv-x="611" d="M259 551h-110v115h110v-115zM463 551h-110v115h110v-115zM596 378h-45l-223 -455q-13 -29 -27 -49.5t-32.5 -33t-42 -18.5t-56.5 -6q-20 0 -38.5 2t-37.5 5v95q15 -2 31.5 -4.5t38.5 -2.5q29 0 47.5 25.5t29.5 60.5l-181 381h-45v90h262v-90h-70l103 -239l107 239h-70v90 h249v-90z" />
<glyph unicode="&#x131;" horiz-adv-x="333" d="M35 90h65v288h-65v90h198v-378h65v-90h-263v90z" />
<glyph unicode="&#x141;" horiz-adv-x="611" d="M28 95h82v100l-66 -46v106l66 46v258h-82v95h325v-95h-105v-161l152 107v-106l-152 -107v-197h215v135h120v-230h-555v95z" />
<glyph unicode="&#x142;" horiz-adv-x="333" d="M35 90h65v184l-65 -51v100l65 51v204h-65v90h198v-191l65 51v-100l-65 -51v-287h65v-90h-263v90z" />
<glyph unicode="&#x152;" horiz-adv-x="1000" d="M608 381h74v89h105v-267h-105v88h-74v-196h225v119h115v-214h-377q-27 0 -54 -2t-53 -5q-27 -2 -53.5 -4.5t-53.5 -2.5q-81 0 -140 29t-97.5 76.5t-57 108t-18.5 123.5q0 81 20.5 145t61 108.5t101.5 68t143 23.5q22 0 45 -2t48 -5q25 -2 52 -4.5t56 -2.5h377v-196h-115 v101h-225v-178zM470 565q-40 8 -81 8q-59 0 -97.5 -20t-61 -54t-31.5 -80.5t-9 -98.5q0 -41 7.5 -83.5t28 -77t57.5 -56.5t96 -22q9 0 21 0.5t25 1.5t24.5 2.5t20.5 4.5v475z" />
<glyph unicode="&#x153;" horiz-adv-x="834" d="M681 281q0 19 -4 38t-14 34t-26.5 24.5t-41.5 9.5q-24 0 -41.5 -9.5t-29.5 -24.5t-18 -34t-6 -38h181zM265 387q-32 0 -53.5 -13.5t-34.5 -35.5t-18.5 -49t-5.5 -55q0 -30 5.5 -58t18.5 -50.5t34.5 -36t53.5 -13.5t53.5 13.5t34.5 36t18.5 50.5t5.5 58q0 28 -5.5 55 t-18.5 49t-34.5 35.5t-53.5 13.5zM800 145q-4 -43 -21 -73t-43.5 -49t-60.5 -28t-72 -9q-58 0 -97 18t-68 71q-28 -50 -74.5 -69.5t-98.5 -19.5q-54 0 -97.5 16.5t-74.5 48.5t-48 78t-17 105t17 105t48 78t74.5 48.5t97.5 16.5q26 0 52 -5t49 -16t41.5 -29t30.5 -43 q23 51 68 72t97 21q34 0 61.5 -8t49.5 -21t37 -29.5t24 -32.5q19 -35 25 -86t6 -109h-306q0 -52 24.5 -86t73.5 -34q35 0 56 20t21 49h125z" />
<glyph unicode="&#x160;" horiz-adv-x="612" d="M355 716h-102l-105 145h90l67 -85l69 85h90zM53 220h120q0 -77 33 -111q33 -33 107 -33q18 0 37 5.5t35 16t26 26.5t10 36q0 50 -27 74t-67.5 37t-88 22t-88 27.5t-67.5 54.5t-27 103q0 48 16.5 83.5t45 59t67 35.5t83.5 12q48 0 87.5 -13t69.5 -54h2v53h115v-204h-120 q-3 67 -33 97q-30 31 -96 31q-42 0 -73 -19.5t-31 -65.5q0 -38 27.5 -57t68.5 -31t89 -23t89 -32.5t68.5 -60.5t27.5 -106q0 -46 -16.5 -82.5t-45.5 -62t-67.5 -39t-83.5 -13.5q-26 0 -50.5 2t-47 9.5t-42.5 20.5t-36 36h-2v-54h-115v220z" />
<glyph unicode="&#x161;" horiz-adv-x="500" d="M299 530h-102l-105 145h90l67 -85l69 85h90zM47 165h105q0 -44 29.5 -66.5t70.5 -22.5q11 0 23 2t22.5 8t17.5 16.5t7 27.5q0 24 -20.5 34.5t-51.5 16.5t-66.5 11.5t-66.5 20.5t-51.5 44t-20.5 81q0 37 14.5 64t38 45t53.5 26.5t62 8.5q41 0 72 -13.5t54 -49.5h2v49h100 v-155h-105q0 42 -24.5 60.5t-61.5 18.5q-10 0 -22.5 -1.5t-23.5 -7t-18.5 -15.5t-7.5 -26q0 -24 20.5 -34t51.5 -16t66.5 -11.5t66.5 -20.5t51.5 -44t20.5 -80q0 -31 -12 -58.5t-33.5 -47.5t-52.5 -32t-69 -12q-53 0 -86 17.5t-53 46.5h-2v-50h-100v165z" />
<glyph unicode="&#x178;" horiz-adv-x="723" d="M315 737h-110v115h110v-115zM519 737h-110v115h110v-115zM197 95h95v139l-221 325h-55v95h302v-95h-85l135 -206l136 206h-85v95h288v-95h-55l-222 -325v-139h95v-95h-328v95z" />
<glyph unicode="&#x17d;" horiz-adv-x="668" d="M383 716h-102l-105 145h90l67 -85l69 85h90zM44 122l403 437h-277v-120h-115v215h558v-120l-408 -439h304v132h115v-227h-580v122z" />
<glyph unicode="&#x17e;" horiz-adv-x="557" d="M328 530h-102l-105 145h90l67 -85l69 85h90zM55 105l274 273h-158v-70h-110v160h435v-100l-277 -278h173v80h110v-170h-447v105z" />
<glyph unicode="&#x192;" d="M455 350h-100l-79 -409q-14 -71 -56 -98t-113 -27q-17 0 -33 2.5t-33 4.5l18 95q10 -2 18.5 -2h18.5q15 2 25 10.5t16 20.5t9 25.5t6 25.5l68 352h-90l18 95h90l19 92q8 38 22.5 63.5t36.5 40.5t51.5 21t66.5 6q21 0 41 -2.5t40 -7.5l-19 -95q-9 2 -18.5 3t-19.5 2 q-24 0 -42 -5t-24 -31l-19 -87h100z" />
<glyph unicode="&#x2c6;" horiz-adv-x="278" d="M90 675h102l105 -145h-90l-67 85l-69 -85h-90z" />
<glyph unicode="&#x2c7;" horiz-adv-x="278" d="M188 530h-102l-105 145h90l67 -85l69 85h90z" />
<glyph unicode="&#x2c9;" horiz-adv-x="278" d="M-30 642h338v-65h-338v65z" />
<glyph unicode="&#x2d8;" horiz-adv-x="278" d="M37 675q8 -42 34 -60.5t68 -18.5q38 0 67.5 20.5t34.5 58.5h60q-10 -71 -51.5 -107.5t-110.5 -36.5q-72 0 -115 36t-47 108h60z" />
<glyph unicode="&#x2d9;" horiz-adv-x="278" d="M194 551h-110v115h110v-115z" />
<glyph unicode="&#x2da;" horiz-adv-x="278" d="M82 622q0 -23 17 -40t40 -17q24 0 40.5 17t16.5 40t-16.5 40t-40.5 17q-23 0 -40 -17t-17 -40zM32 622q0 22 8.5 41.5t23 34t34 23t41.5 8.5t42 -8.5t34 -23t22.5 -34t8.5 -41.5q0 -23 -8.5 -42.5t-22.5 -33.5t-34 -22.5t-42 -8.5t-41.5 8.5t-34 22.5t-23 33.5t-8.5 42.5 z" />
<glyph unicode="&#x2db;" horiz-adv-x="278" d="M257 -175q-20 -24 -43.5 -38.5t-60.5 -14.5q-12 0 -28.5 1.5t-31.5 10t-25.5 25t-10.5 46.5q0 50 29.5 84t73.5 61h65q-44 -35 -63.5 -64t-19.5 -61q0 -43 37 -43q17 0 31 7.5t25 20.5z" />
<glyph unicode="&#x2dc;" horiz-adv-x="278" d="M-39 536q3 23 11.5 44.5t22 38.5t33 27.5t45.5 10.5q20 0 39 -6t37 -13q19 -8 37 -14t36 -6t29.5 16t15.5 32h50q-2 -22 -10 -44t-21.5 -39.5t-33 -28.5t-43.5 -11q-23 0 -42.5 6t-37.5 14q-17 7 -34 13t-35 6q-21 0 -32 -14.5t-17 -31.5h-50z" />
<glyph unicode="&#x2dd;" horiz-adv-x="278" d="M251 675h138l-135 -145h-85zM47 675h138l-135 -145h-85z" />
<glyph unicode="&#x3a9;" horiz-adv-x="710" d="M178 94q-23 20 -45.5 47t-40 60.5t-28.5 73.5t-11 87q0 63 22.5 119t62.5 97t96 65t123 24q71 0 126.5 -26.5t93.5 -69t58 -96t20 -108.5q0 -47 -11 -88.5t-28.5 -76t-40.5 -62t-47 -46.5v-3h141v-91h-260v68q25 15 48.5 39.5t41.5 58t28.5 78t10.5 100.5q0 44 -12 85.5 t-35 73.5t-56.5 51.5t-77.5 19.5q-42 0 -76.5 -17.5t-59 -49t-38 -74.5t-13.5 -94t10.5 -94t28.5 -77.5t41.5 -60t49.5 -39.5v-68h-260v91h138v3z" />
<glyph unicode="&#x3bc;" horiz-adv-x="611" d="M530 90h65v-90h-186v79h-2q-24 -45 -66 -69t-93 -24l-34 3v-159h-133v548h-65v90h198v-293q0 -36 20.5 -65t61.5 -29q27 0 46 11t31.5 29t18 40.5t5.5 45.5v171h-60v90h193v-378z" />
<glyph unicode="&#x3c0;" horiz-adv-x="589" d="M494 397v-253q0 -55 4 -88.5t9 -55.5h-112q-9 14 -13 49t-4 88v260h-145q-2 -40 -7.5 -94t-14 -110t-19.5 -107.5t-24 -85.5h-112q12 40 23 91.5t19.5 106t14 106.5t6.5 93q-38 0 -61 -2.5t-40 -7.5l-13 75q18 14 56.5 22.5t101.5 8.5h412l-9 -96h-72z" />
<glyph unicode="&#x2013;" horiz-adv-x="500" d="M0 309h500v-80h-500v80z" />
<glyph unicode="&#x2014;" horiz-adv-x="1000" d="M0 309h1000v-80h-1000v80z" />
<glyph unicode="&#x2018;" horiz-adv-x="278" d="M206 654l-50 -130h56v-146h-146v146l50 130h90z" />
<glyph unicode="&#x2019;" horiz-adv-x="278" d="M66 654h146v-146l-50 -130h-90l50 130h-56v146z" />
<glyph unicode="&#x201a;" horiz-adv-x="278" d="M66 146h146v-146l-50 -130h-90l50 130h-56v146z" />
<glyph unicode="&#x201c;" d="M226 378h-146v146l50 130h90l-50 -130h56v-146zM476 378h-146v146l50 130h90l-50 -130h56v-146z" />
<glyph unicode="&#x201d;" d="M330 654h146v-146l-50 -130h-90l50 130h-56v146zM80 654h146v-146l-50 -130h-90l50 130h-56v146z" />
<glyph unicode="&#x201e;" d="M330 146h146v-146l-50 -130h-90l50 130h-56v146zM80 146h146v-146l-50 -130h-90l50 130h-56v146z" />
<glyph unicode="&#x2020;" d="M218 394h-150v95h150v165h120v-165h150v-95h-150v-394h-120v394z" />
<glyph unicode="&#x2021;" d="M218 145h-150v90h150v185h-150v90h150v144h120v-144h150v-90h-150v-185h150v-90h-150v-145h-120v145z" />
<glyph unicode="&#x2022;" horiz-adv-x="500" d="M86 328q0 32 13.5 61.5t36 52t52 36t61.5 13.5t62 -13.5t52.5 -36t36 -52t13.5 -61.5t-13.5 -61.5t-36 -52.5t-52.5 -36.5t-62 -13.5t-61.5 13.5t-52 36t-36 52.5t-13.5 62z" />
<glyph unicode="&#x2026;" horiz-adv-x="1000" d="M760 146h146v-146h-146v146zM427 146h146v-146h-146v146zM94 146h146v-146h-146v146z" />
<glyph unicode="&#x2030;" horiz-adv-x="1000" d="M491 674h85l-408 -694h-85zM786 150q0 -15 1.5 -32.5t7.5 -32t18.5 -24.5t34.5 -10q20 0 32.5 10t19 25t8.5 32t2 32q0 16 -1.5 33.5t-8 32t-19 24t-33.5 9.5q-20 0 -32.5 -10t-19 -25t-8.5 -32t-2 -32zM701 150q0 35 8.5 65t26.5 52t45.5 34.5t66.5 12.5t67 -12.5 t45.5 -34.5t26 -52t8.5 -65q0 -34 -9 -63.5t-27 -52t-46 -35.5t-65 -13q-38 0 -65.5 13t-45.5 35t-27 52t-9 64zM452 150q0 -15 1.5 -32.5t7.5 -32t18.5 -24.5t34.5 -10q20 0 32.5 10t19 25t8.5 32t2 32q0 16 -1.5 33.5t-8 32t-19 24t-33.5 9.5q-20 0 -32.5 -10t-19 -25 t-8.5 -32t-2 -32zM367 150q0 35 8.5 65t26.5 52t45.5 34.5t66.5 12.5t67 -12.5t45.5 -34.5t26 -52t8.5 -65q0 -34 -9 -63.5t-27 -52t-46 -35.5t-65 -13q-38 0 -65.5 13t-45.5 35t-27 52t-9 64zM90 504q0 -15 1.5 -32.5t7.5 -32t18.5 -24.5t34.5 -10q20 0 32.5 10t19 25 t8.5 32t2 32q0 16 -1.5 33.5t-8 32t-19 24t-33.5 9.5q-20 0 -32.5 -10t-19 -25t-8.5 -32t-2 -32zM5 504q0 35 8.5 65t26.5 52t45.5 34.5t66.5 12.5t67 -12.5t45.5 -34.5t26 -52t8.5 -65q0 -34 -9 -63.5t-27 -52t-46 -35.5t-65 -13q-38 0 -65.5 13t-45.5 35t-27 52t-9 64z " />
<glyph unicode="&#x2039;" horiz-adv-x="278" d="M47 233l84 196h100l-84 -196l84 -196h-100z" />
<glyph unicode="&#x203a;" horiz-adv-x="278" d="M231 233l-84 -196h-100l84 196l-84 196h100z" />
<glyph unicode="&#x2044;" horiz-adv-x="167" d="M179 674h76l-267 -694h-76z" />
<glyph unicode="&#x20ac;" d="M329 207h-112q5 -50 28.5 -84.5t67.5 -34.5q41 0 65.5 33.5t24.5 91.5h122q0 -106 -56.5 -166t-155.5 -60q-49 0 -86.5 16t-64.5 45.5t-44.5 70t-26.5 88.5h-76l17 85h49q-1 9 -1 17.5v17.5q0 7 0.5 14t0.5 13h-66l17 87h58q19 106 77 166t152 60q22 0 47.5 -12t37.5 -35 v34h120v-208h-121q-1 29 -8 52t-19 40q-24 33 -57 33q-79 0 -103 -130h157l-16 -87h-148l-1 -14v-23.5t1 -24.5h136z" />
<glyph unicode="&#x2113;" horiz-adv-x="505" d="M215 327q54 57 88.5 116.5t34.5 113.5q0 38 -12.5 60.5t-44.5 22.5q-11 0 -23 -7t-21.5 -24.5t-15.5 -47t-6 -73.5v-161zM485 121q-38 -71 -92 -101t-112 -30q-42 0 -73.5 12.5t-52.5 33.5t-32.5 49.5t-15.5 60.5q0 7 -1 10q-12 -9 -25 -19l-26 -20l-31 61q22 17 42 32 t39 32v238q0 64 14 109.5t37 75t54 43t66 13.5q36 0 62 -13.5t43 -36t25 -52.5t8 -64q0 -86 -53.5 -166.5t-145.5 -165.5l1 -34q2 -54 28 -81t64 -27q21 0 39.5 7.5t35 20.5t30 28.5t24.5 32.5z" />
<glyph unicode="&#x2122;" horiz-adv-x="1000" d="M157 584h-109v70h313v-70h-109v-316h-95v316zM439 654h134l94 -244l92 244h134v-386h-90v271h-2l-100 -271h-70l-100 271h-2v-271h-90v386z" />
<glyph unicode="&#x2126;" horiz-adv-x="710" d="M178 94q-23 20 -45.5 47t-40 60.5t-28.5 73.5t-11 87q0 63 22.5 119t62.5 97t96 65t123 24q71 0 126.5 -26.5t93.5 -69t58 -96t20 -108.5q0 -47 -11 -88.5t-28.5 -76t-40.5 -62t-47 -46.5v-3h141v-91h-260v68q25 15 48.5 39.5t41.5 58t28.5 78t10.5 100.5q0 44 -12 85.5 t-35 73.5t-56.5 51.5t-77.5 19.5q-42 0 -76.5 -17.5t-59 -49t-38 -74.5t-13.5 -94t10.5 -94t28.5 -77.5t41.5 -60t49.5 -39.5v-68h-260v91h138v3z" />
<glyph unicode="&#x212e;" horiz-adv-x="822" d="M650 528q0 13 -9 22q-45 45 -103.5 71t-126.5 26t-127 -27t-104 -73q-9 -9 -9 -23v-182q0 -2 1.5 -4t3.5 -2h470q2 0 3 2t1 4v186zM176 317q-5 0 -5 -4v-185q0 -11 8 -21q45 -47 104 -74t128 -27q74 0 136.5 30.5t107.5 82.5h55q-51 -60 -129.5 -96t-170.5 -36 q-78 0 -147 26.5t-120.5 73t-81 108t-29.5 132.5q0 70 29.5 132.5t81 108.5t120.5 73t147 27q79 0 148 -27t120.5 -73t81 -108.5t29.5 -132.5v-10h-613z" />
<glyph unicode="&#x2202;" horiz-adv-x="562" d="M252 83q29 0 53 17.5t41.5 45.5t28.5 63.5t15 70.5q-4 12 -13.5 27.5t-24.5 28.5t-35.5 22t-44.5 9q-26 0 -48.5 -12.5t-39 -34.5t-25.5 -50.5t-9 -59.5q0 -27 7.5 -50t20.5 -40t31.5 -27t41.5 -10h1zM67 683q11 9 27.5 18.5t39 17.5t50.5 13.5t62 5.5q54 0 103 -23 t85.5 -68.5t58.5 -112.5t22 -155q0 -85 -18.5 -156.5t-54 -123t-86.5 -80.5t-116 -29q-52 0 -90.5 21t-63.5 53t-37 71.5t-12 77.5q0 55 16.5 100.5t45 77t67.5 49t83 17.5q32 0 57.5 -9.5t44.5 -22.5t31.5 -27t18.5 -23h1q1 6 1 16.5v16.5q0 49 -12.5 92t-35 75t-54.5 51 t-70 19q-46 0 -78.5 -15t-52.5 -30z" />
<glyph unicode="&#x2206;" horiz-adv-x="650" d="M497 91l-116 296q-6 18 -14 41t-16.5 46t-15.5 44.5t-11 36.5h-4q-3 -12 -9.5 -30.5t-14 -39.5t-15 -43t-13.5 -41l-122 -310h351zM26 67l232 605h138l226 -604v-68h-596v67z" />
<glyph unicode="&#x220f;" horiz-adv-x="707" d="M580 555v-646h-113v646h-228v-646h-113v646h-103v102h660v-102h-103z" />
<glyph unicode="&#x2211;" horiz-adv-x="552" d="M22 -91v72l243 301l-233 297v78h484v-97h-328v-3l207 -258l-228 -283v-3h366v-104h-511z" />
<glyph unicode="&#x2212;" horiz-adv-x="600" d="M47 303h506v-100h-506v100z" />
<glyph unicode="&#x2215;" horiz-adv-x="167" d="M179 674h76l-267 -694h-76z" />
<glyph unicode="&#x2219;" horiz-adv-x="278" d="M66 260q0 30 21.5 51.5t51.5 21.5t51.5 -21.5t21.5 -51.5t-21.5 -51.5t-51.5 -21.5t-51.5 21.5t-21.5 51.5z" />
<glyph unicode="&#x221a;" horiz-adv-x="579" d="M366 -135h-93l-150 417l-73 -29l-19 63l160 65l109 -315q5 -20 10 -40.5t9 -35.5l2 -1q2 15 6 37t9 45l171 715h81z" />
<glyph unicode="&#x221e;" horiz-adv-x="753" d="M550 368q-23 0 -42.5 -10.5t-36.5 -25.5t-31.5 -32t-26.5 -30q22 -27 40 -46t34.5 -31t32.5 -17.5t34 -5.5q21 0 37 9t27 22.5t16.5 30.5t5.5 34q0 46 -24.5 74t-64.5 28h-1zM207 170q21 0 39.5 8.5t35 22t31.5 30.5t29 33q-15 20 -30 38.5t-31.5 33t-35.5 23.5t-43 9 q-42 0 -66 -29t-24 -73q0 -40 26 -68t68 -28h1zM705 271q0 -38 -13 -68.5t-34.5 -51.5t-49 -32.5t-57.5 -11.5q-42 0 -83.5 24.5t-90.5 86.5q-19 -23 -38 -43t-41 -35t-46.5 -24t-53.5 -9q-30 0 -57.5 12t-48 33t-33 50.5t-12.5 64.5q0 36 12 65.5t33.5 51t50.5 33.5t63 12 q54 0 95.5 -30t79.5 -78q16 18 33.5 37t38.5 35t46.5 26t57.5 10t59 -11t47 -31.5t31 -49.5t11 -65v-1z" />
<glyph unicode="&#x222b;" horiz-adv-x="375" d="M344 722q-7 4 -16 6.5t-19 2.5q-14 0 -27.5 -5.5t-22.5 -18.5q-16 -20 -22 -59.5t-6 -100.5q0 -57 2.5 -111.5t5 -110t5 -113t2.5 -119.5q0 -69 -10.5 -115t-26.5 -73q-20 -35 -52.5 -50.5t-66.5 -15.5q-23 0 -43 5t-31 11l15 79q7 -3 18 -6.5t25 -3.5q12 0 24 4.5 t20 14.5q13 18 21 51t8 98q0 63 -2.5 121.5t-5 115.5t-5 113.5t-2.5 116.5q0 81 13 129.5t44 80.5q21 22 50.5 32t58.5 10q18 0 34.5 -4t24.5 -8z" />
<glyph unicode="&#x2248;" horiz-adv-x="544" d="M503 209q-23 -42 -56 -69t-76 -27q-30 0 -54 10t-57 29q-23 14 -42.5 23t-43.5 9q-34 0 -54.5 -21.5t-39.5 -48.5l-42 39q22 42 59.5 69t82.5 27q35 0 59.5 -12t44.5 -23q23 -14 42.5 -24.5t45.5 -10.5q29 0 49 18.5t41 50.5zM503 387q-23 -43 -56 -70t-75 -27 q-31 0 -54.5 9.5t-57.5 29.5q-21 13 -41.5 22.5t-44.5 9.5q-17 0 -30 -6t-24 -15.5t-21 -22t-19 -25.5l-42 38q22 42 59.5 69t82.5 27q35 0 60 -12.5t45 -23.5q26 -15 44.5 -24.5t42.5 -9.5q29 0 49.5 18.5t40.5 50.5z" />
<glyph unicode="&#x2260;" horiz-adv-x="544" d="M357 399h139v-66h-165l-59 -132h224v-67h-251l-50 -111l-52 22l40 89h-136v67h163l59 132h-222v66h248l49 110l53 -23z" />
<glyph unicode="&#x2264;" horiz-adv-x="544" d="M48 -10v67h448v-67h-448zM52 307v72l441 214v-77l-373 -171v-2l373 -173v-77z" />
<glyph unicode="&#x2265;" horiz-adv-x="544" d="M49 -10v67h446v-67h-446zM495 379v-72l-441 -214v77l372 172v2l-372 172v77z" />
<glyph unicode="&#x25ca;" horiz-adv-x="579" d="M309 560q-5 12 -10.5 27t-7.5 26h-3l-8.5 -25.5t-10.5 -27.5l-119 -230l121 -238q5 -14 9.5 -27.5t6.5 -22.5h4q3 10 8 25.5t9 23.5l121 234zM333 -47h-91l-193 375l197 375h91l193 -375z" />
<glyph unicode="&#x25fc;" horiz-adv-x="470" d="M0 470h470v-470h-470v470z" />
</font>
</defs>
</svg>
